<svg xmlns="http://www.w3.org/2000/svg" xmlns:xlink="http://www.w3.org/1999/xlink" version="1.1" width="375" height="200" viewBox="0 0 375 200">
<rect x="0" y="0" width="375" height="200" fill="#103052">
</rect>
<g>
<rect x="0" y="0" rx="5" ry="5" width="375.0" height="200.0" fill="#011e33" opacity="0">
</rect>
<g transform=" translate(16.0 -16.0)">
<defs>
<clipPath id="ClipPath0">
<rect x="0" y="33" width="342" height="167">
</rect>
</clipPath>
</defs>
<g clip-path="url(#ClipPath0)">
<g fill="#f9fafb" stroke="#f9fafb" transform="translate(60.0 74.94) scale(0.031 -0.031)">
<defs>
<path id="g78/TT0" d="M78.0 708.0 L245.0 708.0 L574.0 178.0 L576.0 178.0 L576.0 708.0 L702.0 708.0 L702.0 0 L542.0 0 L206.0 547.0 L204.0 547.0 L204.0 0 L78.0 0 L78.0 708.0Z">
</path>
</defs>
<use x="0" y="0" xlink:href="#g78/TT0"/>
<defs>
<path id="g101/TT0" d="M529.0 202.0 L164.0 202.0Q 168.0,152.0  208.0,118.0 T 301.0,84.0 Q 384.0,84.0  428.0,146.0  L508.0 82.0Q 437.0,-14.0  302.0,-14.0 Q 228.0,-14.0  169.5,16.5 T 77.5,104.0 T 44.0,237.0 Q 44.0,313.0  77.0,371.5 T 168.0,462.0 T 298.0,494.0 Q 402.0,494.0  466.0,427.0 T 530.0,234.0 Q 530.0,213.0  529.0,202.0 Z M297.0 404.0Q 244.0,404.0  206.0,371.0 T 164.0,288.0  L410.0 288.0Q 410.0,338.0  381.0,371.0 T 297.0,404.0 Z">
</path>
</defs>
<use x="780.0" y="0" xlink:href="#g101/TT0"/>
<defs>
<path id="g103/TT0" d="M560.0 43.0Q 560.0,-91.0  492.5,-165.5 T 289.0,-240.0 Q 228.0,-240.0  162.0,-219.0 T 51.0,-161.0  L120.0 -68.0Q 154.0,-101.0  198.5,-118.5 T 288.0,-136.0 Q 370.0,-136.0  405.0,-92.5 T 440.0,29.0  L440.0 64.0 L438.0 64.0Q 412.0,29.0  371.5,10.5 T 281.0,-8.0 Q 211.0,-8.0  157.0,25.5 T 73.5,116.5 T 44.0,242.0 Q 44.0,312.0  73.0,369.5 T 155.0,460.5 T 279.0,494.0 Q 331.0,494.0  375.0,472.0 T 444.0,408.0  L446.0 408.0 L446.0 480.0 L560.0 480.0 L560.0 43.0Z M166.0 243.0Q 166.0,204.0  182.5,169.0 T 230.5,112.5 T 303.0,91.0 Q 346.0,91.0  378.5,112.0 T 428.5,168.0 T 446.0,243.0 Q 446.0,285.0  428.5,320.0 T 378.5,375.5 T 304.0,396.0 Q 241.0,396.0  203.5,352.5 T 166.0,243.0 Z">
</path>
</defs>
<use x="1354.0" y="0" xlink:href="#g103/TT0"/>
<defs>
<path id="g97/TT0" d="M367.0 61.0Q 349.0,29.0  308.5,8.5 T 218.0,-12.0 Q 175.0,-12.0  134.0,3.0 T 65.5,51.5 T 38.0,137.0 Q 38.0,233.0  131.0,266.5 T 368.0,300.0  L368.0 312.0Q 368.0,354.0  337.0,377.0 T 258.0,400.0 Q 221.0,400.0  186.0,384.5 T 127.0,345.0  L65.0 418.0Q 105.0,455.0  158.5,474.5 T 268.0,494.0 Q 385.0,494.0  433.5,436.0 T 482.0,292.0  L482.0 0 L370.0 0 L370.0 61.0 L367.0 61.0Z M341.0 219.0Q 158.0,219.0  158.0,139.0 Q 158.0,107.0  182.5,93.0 T 242.0,79.0 Q 303.0,79.0  335.5,111.5 T 368.0,202.0  L368.0 219.0 L341.0 219.0Z">
</path>
</defs>
<use x="1986.0" y="0" xlink:href="#g97/TT0"/>
<defs>
<path id="g116/TT0" d="M3.0 480.0 L87.0 480.0 L87.0 619.0 L205.0 619.0 L205.0 480.0 L325.0 480.0 L325.0 384.0 L205.0 384.0 L205.0 161.0Q 205.0,125.0  218.0,106.0 T 268.0,87.0 Q 299.0,87.0  319.0,97.0  L323.0 3.0Q 289.0,-10.0  243.0,-10.0 Q 155.0,-10.0  121.0,35.5 T 87.0,160.0  L87.0 384.0 L3.0 384.0 L3.0 480.0Z">
</path>
</defs>
<use x="2536.0" y="0" xlink:href="#g116/TT0"/>
<defs>
<path id="g105/TT0" d="M133.0 715.0Q 166.0,715.0  188.5,694.5 T 211.0,643.0 Q 211.0,612.0  188.5,591.5 T 133.0,571.0 Q 101.0,571.0  79.0,592.5 T 57.0,643.0 Q 57.0,672.0  79.0,693.5 T 133.0,715.0 Z M74.0 480.0 L194.0 480.0 L194.0 0 L74.0 0 L74.0 480.0Z">
</path>
</defs>
<use x="2876.0" y="0" xlink:href="#g105/TT0"/>
<defs>
<path id="g118/TT0" d="M0 480.0 L131.0 480.0 L257.0 130.0 L259.0 130.0 L386.0 480.0 L513.0 480.0 L322.0 0 L194.0 0 L0 480.0Z">
</path>
</defs>
<use x="3144.0" y="0" xlink:href="#g118/TT0"/>
<use x="3657.0" y="0" xlink:href="#g101/TT0"/>
<use x="4231.0" y="0" xlink:href="#g32/TT0"/>
<defs>
<path id="g67/TT0" d="M428.0 615.0Q 356.0,615.0  300.5,581.0 T 214.0,488.0 T 183.0,356.0 Q 183.0,279.0  212.5,220.0 T 296.5,128.0 T 423.0,95.0 Q 478.0,95.0  522.5,117.0 T 595.0,177.0  L696.0 106.0Q 648.0,46.0  579.0,14.0 T 422.0,-18.0 Q 313.0,-18.0  227.0,29.5 T 92.5,162.0 T 44.0,356.0 Q 44.0,467.0  94.0,551.0 T 231.5,680.5 T 428.0,726.0 Q 502.0,726.0  573.5,698.5 T 685.0,618.0  L589.0 542.0Q 563.0,578.0  518.5,596.5 T 428.0,615.0 Z">
</path>
</defs>
<use x="4481.0" y="0" xlink:href="#g67/TT0"/>
<use x="5177.0" y="0" xlink:href="#g97/TT0"/>
<defs>
<path id="g115/TT0" d="M230.0 404.0Q 198.0,404.0  175.5,391.0 T 153.0,352.0 Q 153.0,327.0  176.0,315.0 T 257.0,289.0 Q 325.0,273.0  368.5,241.0 T 412.0,146.0 Q 412.0,64.0  355.5,25.0 T 212.0,-14.0 Q 155.0,-14.0  102.0,7.0 T 15.0,65.0  L94.0 139.0Q 114.0,112.0  146.5,95.5 T 217.0,79.0 Q 248.0,79.0  271.0,93.0 T 294.0,136.0 Q 294.0,164.0  269.5,177.5 T 184.0,205.0 Q 119.0,221.0  80.5,250.5 T 42.0,341.0 Q 42.0,416.0  98.0,455.0 T 233.0,494.0 Q 287.0,494.0  336.0,475.0 T 413.0,421.0  L335.0 352.0Q 318.0,374.0  290.0,389.0 T 230.0,404.0 Z">
</path>
</defs>
<use x="5727.0" y="0" xlink:href="#g115/TT0"/>
<use x="6171.0" y="0" xlink:href="#g101/TT0"/>
<use x="6745.0" y="0" xlink:href="#g115/TT0"/>
</g>
<text id="Text_6" x="171.0" y="74.94" font-size="23.3pt" font-family="Avenir Next" font-weight="bold" fill="#f9fafb" text-anchor="middle" opacity="0">
 Negative Cases</text>
<g fill="#35a5ff" stroke="#35a5ff" transform="translate(67.0 166.32) scale(0.086 -0.086)">
<defs>
<path id="g49/TT0" d="M279.0 562.0 L139.0 447.0 L69.0 530.0 L290.0 708.0 L399.0 708.0 L399.0 0 L279.0 0 L279.0 562.0Z">
</path>
</defs>
<use x="0" y="0" xlink:href="#g49/TT0"/>
<use x="610.0" y="0" xlink:href="#g49/TT0"/>
<use x="1220.0" y="0" xlink:href="#g49/TT0"/>
<defs>
<path id="g53/TT0" d="M216.0 600.0 L209.0 447.0Q 242.0,456.0  292.0,456.0 Q 362.0,456.0  417.5,429.5 T 504.5,352.5 T 536.0,232.0 Q 536.0,156.0  501.5,99.0 T 408.0,12.0 T 278.0,-18.0 Q 191.0,-18.0  129.0,23.0 T 39.0,137.0  L148.0 177.0Q 163.0,135.0  198.5,109.5 T 281.0,84.0 Q 337.0,84.0  375.0,120.5 T 413.0,219.0 Q 413.0,294.0  367.5,327.0 T 255.0,360.0 Q 215.0,360.0  169.0,349.0 T 90.0,321.0  L102.0 708.0 L505.0 708.0 L505.0 600.0 L216.0 600.0Z">
</path>
</defs>
<use x="1830.0" y="0" xlink:href="#g53/TT0"/>
</g>
<text id="Text_7" x="171.0" y="166.32" font-size="64.5pt" font-family="Avenir Next" font-weight="bold" fill="#35a5ff" text-anchor="middle" opacity="0">
 1115</text>
</g>
</g>
<g transform=" translate(16.0 -16.0)">
</g>
<g transform=" translate(16.0 -16.0)">
</g>
<g transform=" translate(16.0 -16.0)">
</g>
</g>
</svg>
