<svg xmlns="http://www.w3.org/2000/svg" xmlns:xlink="http://www.w3.org/1999/xlink" version="1.1" width="352" height="500" viewBox="0 0 352 500">
<rect x="0" y="0" width="352" height="500" fill="#103052">
</rect>
<g>
<rect x="0" y="0" rx="5" ry="5" width="352.0" height="500.0" fill="#011e33" opacity="0">
</rect>
<g transform=" translate(16.0 -419.0)">
<g fill="#ffffff" stroke="#ffffff" transform="translate(24.32 461.15) scale(0.0263 -0.0263)">
<defs>
<path id="g84/TT0" d="M321.0 0 L249.0 0 L249.0 644.0 L12.0 644.0 L12.0 708.0 L558.0 708.0 L558.0 644.0 L321.0 644.0 L321.0 0Z">
</path>
</defs>
<use x="0" y="0" xlink:href="#g84/TT0"/>
<defs>
<path id="g111/TT0" d="M305.0 -12.0Q 234.0,-12.0  177.0,20.0 T 88.0,108.0 T 56.0,234.0 Q 56.0,304.0  88.0,360.0 T 177.0,448.0 T 305.0,480.0 Q 377.0,480.0  434.0,448.0 T 523.0,360.0 T 555.0,234.0 Q 555.0,164.0  523.0,108.0 T 434.0,20.0 T 377.0,-12.0 Z M305.0 423.0Q 252.0,423.0  212.0,398.0 T 150.0,330.0 T 128.0,234.0 Q 128.0,181.0  150.0,138.5 T 212.0,71.0 T 305.0,46.0 Q 358.0,46.0  398.5,71.0 T 461.0,138.5 T 483.0,234.0 Q 483.0,287.0  461.0,330.0 T 398.5,398.0 T 358.0,423.0 Z">
</path>
</defs>
<use x="570.0" y="0" xlink:href="#g111/TT0"/>
<defs>
<path id="g116/TT0" d="M169.0 411.0 L169.0 138.0Q 169.0,89.0  187.0,70.5 T 239.0,52.0 Q 268.0,52.0  298.0,67.0  L301.0 8.0Q 264.0,-6.0  221.0,-6.0 Q 173.0,-6.0  137.0,22.0 T 101.0,119.0  L101.0 411.0 L4.0 411.0 L4.0 468.0 L101.0 468.0 L101.0 600.0 L169.0 600.0 L169.0 468.0 L301.0 468.0 L301.0 411.0 L169.0 411.0Z">
</path>
</defs>
<use x="1181.0" y="0" xlink:href="#g116/TT0"/>
<defs>
<path id="g97/TT0" d="M260.0 423.0Q 220.0,423.0  183.0,408.0 T 121.0,368.0  L83.0 413.0Q 113.0,443.0  161.0,461.5 T 267.0,480.0 Q 347.0,480.0  398.0,436.0 T 449.0,310.0  L449.0 105.0Q 449.0,42.0  457.0,0  L396.0 0Q 389.0,40.0  389.0,76.0  L387.0 76.0Q 355.0,30.0  314.5,9.0 T 217.0,-12.0 Q 178.0,-12.0  141.0,2.5 T 79.5,49.0 T 55.0,130.0 Q 55.0,198.0  99.0,232.0 T 212.5,276.5 T 385.0,287.0  L385.0 302.0Q 385.0,362.0  353.0,392.5 T 260.0,423.0 Z M125.0 133.0Q 125.0,87.0  157.0,65.5 T 235.0,44.0 Q 304.0,44.0  344.5,89.0 T 385.0,199.0  L385.0 234.0 L365.0 234.0Q 259.0,234.0  192.0,213.5 T 125.0,133.0 Z">
</path>
</defs>
<use x="1498.0" y="0" xlink:href="#g97/TT0"/>
<defs>
<path id="g108/TT0" d="M160.0 0 L92.0 0 L92.0 756.0 L160.0 756.0 L160.0 0Z">
</path>
</defs>
<use x="2032.0" y="0" xlink:href="#g108/TT0"/>
<use x="2284.0" y="0" xlink:href="#g32/TT0"/>
<use x="2534.0" y="0" xlink:href="#g84/TT0"/>
<defs>
<path id="g101/TT0" d="M515.0 216.0 L127.0 216.0Q 128.0,169.0  150.5,130.5 T 212.0,69.0 T 298.0,46.0 Q 347.0,46.0  387.0,69.5 T 448.0,127.0  L499.0 87.0Q 421.0,-12.0  298.0,-12.0 Q 229.0,-12.0  174.0,20.0 T 87.5,108.0 T 56.0,234.0 Q 56.0,303.0  87.0,359.5 T 172.0,448.0 T 292.0,480.0 Q 363.0,480.0  413.5,449.5 T 490.0,366.0 T 516.0,248.0 Q 516.0,228.0  515.0,216.0 Z M292.0 423.0Q 248.0,423.0  211.5,402.0 T 153.0,345.5 T 128.0,270.0  L447.0 270.0Q 444.0,338.0  403.5,380.5 T 292.0,423.0 Z">
</path>
</defs>
<use x="3104.0" y="0" xlink:href="#g101/TT0"/>
<defs>
<path id="g115/TT0" d="M224.0 423.0Q 183.0,423.0  154.0,404.5 T 125.0,350.0 Q 125.0,318.0  151.0,300.0 T 237.0,270.0 Q 320.0,253.0  359.5,220.0 T 399.0,133.0 Q 399.0,59.0  347.5,23.5 T 223.0,-12.0 Q 167.0,-12.0  118.0,11.0 T 38.0,79.0  L92.0 119.0Q 111.0,87.0  146.5,66.5 T 222.0,46.0 Q 270.0,46.0  301.0,65.5 T 332.0,128.0 Q 332.0,163.0  299.5,182.0 T 194.0,218.0 Q 136.0,232.0  98.0,258.5 T 60.0,344.0 Q 60.0,411.0  108.5,445.5 T 227.0,480.0 Q 277.0,480.0  323.0,457.5 T 391.0,396.0  L339.0 357.0Q 324.0,387.0  293.0,405.0 T 224.0,423.0 Z">
</path>
</defs>
<use x="3676.0" y="0" xlink:href="#g115/TT0"/>
<use x="4120.0" y="0" xlink:href="#g116/TT0"/>
<use x="4437.0" y="0" xlink:href="#g115/TT0"/>
<defs>
<path id="g44/TT0" d="M102.0 -140.0 L45.0 -140.0 L112.0 95.0 L183.0 95.0 L102.0 -140.0Z">
</path>
</defs>
<use x="4881.0" y="0" xlink:href="#g44/TT0"/>
<use x="5141.0" y="0" xlink:href="#g32/TT0"/>
<defs>
<path id="g67/TT0" d="M425.0 -18.0Q 319.0,-18.0  235.0,30.0 T 103.5,163.0 T 56.0,354.0 Q 56.0,460.0  104.0,545.0 T 236.5,678.0 T 425.0,726.0 Q 503.0,726.0  571.5,695.5 T 677.0,614.0  L617.0 570.0Q 592.0,608.0  540.5,635.5 T 426.0,663.0 Q 337.0,663.0  270.5,621.0 T 168.0,508.0 T 132.0,354.0 Q 132.0,271.0  168.0,200.0 T 271.0,87.0 T 426.0,45.0 Q 490.0,45.0  544.5,71.0 T 634.0,150.0  L690.0 114.0Q 652.0,56.0  583.5,19.0 T 425.0,-18.0 Z">
</path>
</defs>
<use x="5391.0" y="0" xlink:href="#g67/TT0"/>
<defs>
<path id="g79/TT0" d="M425.0 -18.0Q 321.0,-18.0  236.5,30.0 T 104.0,163.0 T 56.0,354.0 Q 56.0,460.0  104.0,545.0 T 236.5,678.0 T 425.0,726.0 Q 529.0,726.0  613.5,678.0 T 746.0,545.0 T 794.0,354.0 Q 794.0,248.0  746.0,163.0 T 613.5,30.0 T 529.0,-18.0 Z M425.0 663.0Q 337.0,663.0  270.5,621.0 T 168.0,508.0 T 132.0,354.0 Q 132.0,271.0  168.0,200.5 T 270.5,88.0 T 425.0,46.0 Q 513.0,46.0  579.5,88.0 T 682.0,200.5 T 718.0,354.0 Q 718.0,437.0  682.0,508.0 T 579.5,621.0 T 513.0,663.0 Z">
</path>
</defs>
<use x="6111.0" y="0" xlink:href="#g79/TT0"/>
<defs>
<path id="g86/TT0" d="M311.0 93.0 L313.0 93.0 L543.0 708.0 L620.0 708.0 L349.0 0 L273.0 0 L3.0 708.0 L81.0 708.0 L311.0 93.0Z">
</path>
</defs>
<use x="6961.0" y="0" xlink:href="#g86/TT0"/>
<defs>
<path id="g73/TT0" d="M166.0 0 L94.0 0 L94.0 708.0 L166.0 708.0 L166.0 0Z">
</path>
</defs>
<use x="7584.0" y="0" xlink:href="#g73/TT0"/>
<defs>
<path id="g68/TT0" d="M329.0 708.0Q 421.0,708.0  507.0,667.5 T 647.0,546.5 T 701.0,354.0 Q 701.0,242.0  647.0,161.5 T 507.0,40.5 T 329.0,0  L94.0 0 L94.0 708.0 L329.0 708.0Z M309.0 64.0Q 411.0,64.0  482.5,105.0 T 589.5,212.0 T 625.0,354.0 Q 625.0,430.0  589.5,496.0 T 482.5,603.0 T 309.0,644.0  L166.0 644.0 L166.0 64.0 L309.0 64.0Z">
</path>
</defs>
<use x="7844.0" y="0" xlink:href="#g68/TT0"/>
<defs>
<path id="g45/TT0" d="M272.0 214.0 L48.0 214.0 L48.0 271.0 L272.0 271.0 L272.0 214.0Z">
</path>
</defs>
<use x="8601.0" y="0" xlink:href="#g45/TT0"/>
<defs>
<path id="g49/TT0" d="M358.0 0 L286.0 0 L286.0 619.0 L158.0 510.0 L114.0 560.0 L294.0 708.0 L358.0 708.0 L358.0 0Z">
</path>
</defs>
<use x="8921.0" y="0" xlink:href="#g49/TT0"/>
<defs>
<path id="g57/TT0" d="M379.0 311.0Q 364.0,299.0  335.0,292.0 T 278.0,285.0 Q 217.0,285.0  167.5,312.5 T 90.0,390.0 T 62.0,503.0 Q 62.0,568.0  91.5,618.5 T 173.5,697.5 T 292.0,726.0 Q 358.0,726.0  410.5,697.5 T 492.5,618.5 T 522.0,503.0 Q 522.0,453.0  505.0,406.5 T 458.0,311.0  L265.0 0 L182.0 0 L381.0 309.0 L379.0 311.0Z M292.0 665.0Q 246.0,665.0  210.0,644.0 T 154.0,586.0 T 134.0,503.0 Q 134.0,433.0  177.0,388.0 T 292.0,343.0 Q 364.0,343.0  407.0,388.0 T 450.0,503.0 Q 450.0,549.0  430.0,586.0 T 374.0,644.0 T 338.0,665.0 Z">
</path>
</defs>
<use x="9501.0" y="0" xlink:href="#g57/TT0"/>
</g>
<text x="24.32" y="461.15" font-size="19.7pt" font-family="Avenir Next" fill="#ffffff" opacity="0">
 Total Tests, COVID-19</text>
<g fill="#ffffff" stroke="#ffffff" transform="translate(46.11 493.33) scale(0.0263 -0.0263)">
<use x="0" y="0" xlink:href="#g67/TT0"/>
<use x="720.0" y="0" xlink:href="#g97/TT0"/>
<use x="1254.0" y="0" xlink:href="#g115/TT0"/>
<use x="1698.0" y="0" xlink:href="#g101/TT0"/>
<use x="2270.0" y="0" xlink:href="#g115/TT0"/>
<use x="2714.0" y="0" xlink:href="#g32/TT0"/>
<defs>
<path id="g98/TT0" d="M160.0 0 L92.0 0 L92.0 756.0 L160.0 756.0 L160.0 387.0 L162.0 387.0Q 191.0,431.0  239.0,455.5 T 339.0,480.0 Q 410.0,480.0  465.5,447.5 T 551.0,359.0 T 581.0,234.0 Q 581.0,165.0  551.0,109.0 T 465.5,20.5 T 339.0,-12.0 Q 287.0,-12.0  239.0,12.0 T 162.0,79.0  L160.0 79.0 L160.0 0Z M332.0 423.0Q 280.0,423.0  239.0,398.0 T 175.0,330.0 T 152.0,234.0 Q 152.0,181.0  175.0,138.0 T 239.0,70.5 T 332.0,46.0 Q 387.0,46.0  427.0,71.0 T 488.0,138.5 T 509.0,234.0 Q 509.0,287.0  488.0,330.0 T 427.0,398.0 T 387.0,423.0 Z">
</path>
</defs>
<use x="2964.0" y="0" xlink:href="#g98/TT0"/>
<defs>
<path id="g121/TT0" d="M253.0 73.0 L398.0 468.0 L472.0 468.0 L239.0 -121.0Q 216.0,-180.0  182.5,-210.0 T 92.0,-240.0 Q 61.0,-240.0  31.0,-234.0  L38.0 -172.0Q 62.0,-180.0  88.0,-180.0 Q 121.0,-180.0  141.5,-159.5 T 178.0,-97.0  L216.0 1.0 L16.0 468.0 L92.0 468.0 L251.0 73.0 L253.0 73.0Z">
</path>
</defs>
<use x="3601.0" y="0" xlink:href="#g121/TT0"/>
<use x="4089.0" y="0" xlink:href="#g32/TT0"/>
<use x="4339.0" y="0" xlink:href="#g84/TT0"/>
<use x="4909.0" y="0" xlink:href="#g101/TT0"/>
<use x="5481.0" y="0" xlink:href="#g115/TT0"/>
<use x="5925.0" y="0" xlink:href="#g116/TT0"/>
<use x="6242.0" y="0" xlink:href="#g32/TT0"/>
<use x="6492.0" y="0" xlink:href="#g68/TT0"/>
<use x="7249.0" y="0" xlink:href="#g97/TT0"/>
<use x="7783.0" y="0" xlink:href="#g116/TT0"/>
<use x="8100.0" y="0" xlink:href="#g101/TT0"/>
</g>
<text x="46.11" y="493.33" font-size="19.7pt" font-family="Avenir Next" fill="#ffffff" opacity="0">
 Cases by Test Date</text>
</g>
<g transform=" translate(16.0 -16.0)">
<defs>
<clipPath id="ClipPath0">
<rect x="25" y="126" width="297" height="357">
</rect>
</clipPath>
</defs>
<g clip-path="url(#ClipPath0)">
<defs>
<clipPath id="ClipPath1">
<rect x="25" y="129" width="294" height="354">
</rect>
</clipPath>
</defs>
<g clip-path="url(#ClipPath1)">
<defs>
<linearGradient id="gradient0" x1="0%" y1="100%" x2="0%" y2="0%">
<stop offset="0%" stop-color="#dd5757" stop-opacity="0.08">
</stop>
<stop offset="100%" stop-color="#dd5757" stop-opacity="1.0">
</stop>
</linearGradient>
</defs>
<polygon id="Polygon_11" points="31.0,476.24  35.48,475.48  75.76,476.24  80.24,476.24  84.71,476.24  89.19,476.24  142.9,476.24  169.76,476.24  174.24,475.48  183.19,474.72  187.67,475.48  196.62,473.96  201.1,468.64  205.57,462.56  210.05,464.84  214.52,470.92  219.0,467.12  223.48,441.28  227.95,440.52  232.43,422.28  236.9,407.08  241.38,385.8  245.86,416.2  250.33,387.32  254.81,355.4  259.29,389.6  263.76,287.76  268.24,284.72  272.71,278.64  277.19,351.6  281.67,300.68  286.14,175.28  290.62,212.52  295.1,177.56  299.57,157.04  304.05,135.0  304.05,477.0  299.57,477.0  295.1,477.0  290.62,477.0  286.14,477.0  281.67,477.0  277.19,477.0  272.71,477.0  268.24,477.0  263.76,477.0  259.29,477.0  254.81,477.0  250.33,477.0  245.86,477.0  241.38,477.0  236.9,477.0  232.43,477.0  227.95,477.0  223.48,477.0  219.0,477.0  214.52,477.0  210.05,477.0  205.57,477.0  201.1,477.0  196.62,477.0  187.67,477.0  183.19,477.0  174.24,477.0  169.76,477.0  142.9,477.0  89.19,477.0  84.71,477.0  80.24,477.0  75.76,477.0  35.48,477.0  31.0,477.0 " fill="url(#gradient0)">
</polygon>
<polyline points="31.0,476.24  35.48,475.48  75.76,476.24  80.24,476.24  84.71,476.24  89.19,476.24  142.9,476.24  169.76,476.24  174.24,475.48  183.19,474.72  187.67,475.48  196.62,473.96  201.1,468.64  205.57,462.56  210.05,464.84  214.52,470.92  219.0,467.12  223.48,441.28  227.95,440.52  232.43,422.28  236.9,407.08  241.38,385.8  245.86,416.2  250.33,387.32  254.81,355.4  259.29,389.6  263.76,287.76  268.24,284.72  272.71,278.64  277.19,351.6  281.67,300.68  286.14,175.28  290.62,212.52  295.1,177.56  299.57,157.04  304.05,135.0 " fill="none" stroke="#b14c51" stroke-width="3.0">
</polyline>
<defs>
<linearGradient id="gradient1" x1="0%" y1="100%" x2="0%" y2="0%">
<stop offset="0%" stop-color="#7dc3fc" stop-opacity="0.08">
</stop>
<stop offset="100%" stop-color="#7dc3fc" stop-opacity="1.0">
</stop>
</linearGradient>
</defs>
<polygon id="Polygon_11" points="31.0,477.0  35.48,477.0  75.76,477.0  80.24,477.0  84.71,477.0  89.19,477.0  142.9,477.0  169.76,477.0  174.24,477.0  183.19,475.48  187.67,477.0  196.62,475.48  201.1,475.48  205.57,477.0  210.05,476.24  214.52,474.72  219.0,473.2  223.48,470.16  227.95,467.88  232.43,466.36  236.9,454.2  241.38,458.76  245.86,458.76  250.33,442.04  254.81,441.28  259.29,448.88  263.76,407.84  268.24,386.56  272.71,393.4  277.19,420.76  281.67,357.68  286.14,312.84  290.62,357.68  295.1,279.4  299.57,286.24  304.05,193.52  304.05,477.0  299.57,477.0  295.1,477.0  290.62,477.0  286.14,477.0  281.67,477.0  277.19,477.0  272.71,477.0  268.24,477.0  263.76,477.0  259.29,477.0  254.81,477.0  250.33,477.0  245.86,477.0  241.38,477.0  236.9,477.0  232.43,477.0  227.95,477.0  223.48,477.0  219.0,477.0  214.52,477.0  210.05,477.0  205.57,477.0  201.1,477.0  196.62,477.0  187.67,477.0  183.19,477.0  174.24,477.0  169.76,477.0  142.9,477.0  89.19,477.0  84.71,477.0  80.24,477.0  75.76,477.0  35.48,477.0  31.0,477.0 " fill="url(#gradient1)">
</polygon>
<polyline points="31.0,477.0  35.48,477.0  75.76,477.0  80.24,477.0  84.71,477.0  89.19,477.0  142.9,477.0  169.76,477.0  174.24,477.0  183.19,475.48  187.67,477.0  196.62,475.48  201.1,475.48  205.57,477.0  210.05,476.24  214.52,474.72  219.0,473.2  223.48,470.16  227.95,467.88  232.43,466.36  236.9,454.2  241.38,458.76  245.86,458.76  250.33,442.04  254.81,441.28  259.29,448.88  263.76,407.84  268.24,386.56  272.71,393.4  277.19,420.76  281.67,357.68  286.14,312.84  290.62,357.68  295.1,279.4  299.57,286.24  304.05,193.52 " fill="none" stroke="#2470ad" stroke-width="3.0">
</polyline>
</g>
<path d="M25.0 477.0L319.0 477.0" stroke="#f9fafb" stroke-dasharray="1,2" fill="none" opacity="0.4">
</path>
<path d="M25.0 401.0L319.0 401.0" stroke="#f9fafb" stroke-dasharray="1,2" fill="none" opacity="0.4">
</path>
<path d="M25.0 325.0L319.0 325.0" stroke="#f9fafb" stroke-dasharray="1,2" fill="none" opacity="0.4">
</path>
<path d="M25.0 249.0L319.0 249.0" stroke="#f9fafb" stroke-dasharray="1,2" fill="none" opacity="0.4">
</path>
<path d="M25.0 173.0L319.0 173.0" stroke="#f9fafb" stroke-dasharray="1,2" fill="none" opacity="0.4">
</path>
<path d="M31.0 483.0L31.0 129.0" stroke="#f9fafb" stroke-dasharray="1,2" fill="none" opacity="0.4">
</path>
<path d="M156.33 483.0L156.33 129.0" stroke="#f9fafb" stroke-dasharray="1,2" fill="none" opacity="0.4">
</path>
<path d="M281.67 483.0L281.67 129.0" stroke="#f9fafb" stroke-dasharray="1,2" fill="none" opacity="0.4">
</path>
</g>
<defs>
<clipPath id="ClipPath2">
<rect x="0" y="129" width="25" height="354">
</rect>
</clipPath>
</defs>
<g clip-path="url(#ClipPath2)">
<g fill="#b0b8c3" stroke="#b0b8c3" transform="translate(13.04 480.3) scale(0.012 -0.012)">
<defs>
<path id="g48/TT0" d="M522.0 353.0Q 522.0,195.0  467.0,88.5 T 290.0,-18.0 Q 167.0,-18.0  112.5,88.5 T 58.0,353.0 Q 58.0,512.0  112.5,619.0 T 290.0,726.0 Q 412.0,726.0  467.0,618.5 T 522.0,353.0 Z M131.0 353.0Q 131.0,226.0  167.5,135.0 T 290.0,44.0 Q 375.0,44.0  412.0,135.5 T 449.0,353.0 Q 449.0,480.0  412.0,572.5 T 290.0,665.0 Q 204.0,665.0  167.5,573.0 T 131.0,353.0 Z">
</path>
</defs>
<use x="0" y="0" xlink:href="#g48/TT0"/>
</g>
<text id="Text_85" x="20.0" y="480.3" font-size="9.0pt" font-family="Avenir Next" fill="#b0b8c3" text-anchor="end" opacity="0">
 0</text>
<g fill="#b0b8c3" stroke="#b0b8c3" transform="translate(-0.88 405.3) scale(0.012 -0.012)">
<use x="0" y="0" xlink:href="#g49/TT0"/>
<use x="580.0" y="0" xlink:href="#g48/TT0"/>
<use x="1160.0" y="0" xlink:href="#g48/TT0"/>
</g>
<text id="Text_86" x="20.0" y="405.3" font-size="9.0pt" font-family="Avenir Next" fill="#b0b8c3" text-anchor="end" opacity="0">
 100</text>
<g fill="#b0b8c3" stroke="#b0b8c3" transform="translate(-0.88 329.3) scale(0.012 -0.012)">
<defs>
<path id="g50/TT0" d="M51.0 0 L51.0 75.0 L341.0 368.0Q 380.0,408.0  403.0,447.0 T 426.0,530.0 Q 426.0,590.0  385.5,627.5 T 286.0,665.0 Q 230.0,665.0  191.0,630.0 T 140.0,539.0  L69.0 553.0Q 84.0,629.0  144.0,677.5 T 286.0,726.0 Q 344.0,726.0  392.5,703.5 T 470.0,637.0 T 499.0,531.0 Q 499.0,469.0  470.0,421.5 T 384.0,317.0  L129.0 64.0 L504.0 64.0 L504.0 0 L51.0 0Z">
</path>
</defs>
<use x="0" y="0" xlink:href="#g50/TT0"/>
<use x="580.0" y="0" xlink:href="#g48/TT0"/>
<use x="1160.0" y="0" xlink:href="#g48/TT0"/>
</g>
<text id="Text_87" x="20.0" y="329.3" font-size="9.0pt" font-family="Avenir Next" fill="#b0b8c3" text-anchor="end" opacity="0">
 200</text>
<g fill="#b0b8c3" stroke="#b0b8c3" transform="translate(-0.88 253.3) scale(0.012 -0.012)">
<defs>
<path id="g51/TT0" d="M245.0 402.0Q 319.0,402.0  364.5,433.5 T 410.0,532.0 Q 410.0,590.0  369.0,627.5 T 270.0,665.0 Q 226.0,665.0  191.0,643.5 T 135.0,582.0  L74.0 614.0Q 106.0,670.0  157.0,698.0 T 274.0,726.0 Q 331.0,726.0  378.0,703.5 T 453.0,638.0 T 481.0,536.0 Q 481.0,475.0  446.5,432.0 T 358.0,374.0  L358.0 372.0Q 421.0,359.0  461.0,312.0 T 501.0,196.0 Q 501.0,131.0  470.0,82.5 T 387.0,8.0 T 273.0,-18.0 Q 196.0,-18.0  137.5,19.5 T 49.0,127.0  L117.0 152.0Q 135.0,102.0  177.0,73.0 T 273.0,44.0 Q 314.0,44.0  350.0,62.5 T 407.5,115.5 T 429.0,196.0 Q 429.0,271.0  376.0,305.5 T 245.0,340.0  L214.0 340.0 L214.0 402.0 L245.0 402.0Z">
</path>
</defs>
<use x="0" y="0" xlink:href="#g51/TT0"/>
<use x="580.0" y="0" xlink:href="#g48/TT0"/>
<use x="1160.0" y="0" xlink:href="#g48/TT0"/>
</g>
<text id="Text_88" x="20.0" y="253.3" font-size="9.0pt" font-family="Avenir Next" fill="#b0b8c3" text-anchor="end" opacity="0">
 300</text>
<g fill="#b0b8c3" stroke="#b0b8c3" transform="translate(-0.88 177.3) scale(0.012 -0.012)">
<defs>
<path id="g52/TT0" d="M436.0 234.0 L540.0 234.0 L540.0 171.0 L436.0 171.0 L436.0 0 L366.0 0 L366.0 171.0 L42.0 171.0 L42.0 241.0 L342.0 708.0 L436.0 708.0 L436.0 234.0Z M366.0 627.0 L364.0 627.0 L117.0 234.0 L366.0 234.0 L366.0 627.0Z">
</path>
</defs>
<use x="0" y="0" xlink:href="#g52/TT0"/>
<use x="580.0" y="0" xlink:href="#g48/TT0"/>
<use x="1160.0" y="0" xlink:href="#g48/TT0"/>
</g>
<text id="Text_89" x="20.0" y="177.3" font-size="9.0pt" font-family="Avenir Next" fill="#b0b8c3" text-anchor="end" opacity="0">
 400</text>
</g>
<defs>
<clipPath id="ClipPath3">
<rect x="25" y="483" width="294" height="17">
</rect>
</clipPath>
</defs>
<g clip-path="url(#ClipPath3)">
<g fill="#b0b8c3" stroke="#b0b8c3" transform="translate(28.0 497.65) scale(0.012 -0.012)">
<use x="0" y="0" xlink:href="#g50/TT0"/>
<defs>
<path id="g54/TT0" d="M203.0 397.0Q 218.0,409.0  247.0,416.0 T 304.0,423.0 Q 365.0,423.0  414.5,395.5 T 492.0,318.0 T 520.0,205.0 Q 520.0,140.0  490.5,89.5 T 408.5,10.5 T 290.0,-18.0 Q 224.0,-18.0  171.5,10.5 T 89.5,89.5 T 60.0,205.0 Q 60.0,255.0  77.0,301.5 T 124.0,397.0  L317.0 708.0 L400.0 708.0 L201.0 399.0 L203.0 397.0Z M290.0 43.0Q 336.0,43.0  372.0,64.0 T 428.0,122.0 T 448.0,205.0 Q 448.0,275.0  405.0,320.0 T 290.0,365.0 Q 218.0,365.0  175.0,320.0 T 132.0,205.0 Q 132.0,159.0  152.0,122.0 T 208.0,64.0 T 244.0,43.0 Z">
</path>
</defs>
<use x="580.0" y="0" xlink:href="#g54/TT0"/>
<defs>
<path id="g74/TT0" d="M207.0 45.0Q 332.0,45.0  332.0,209.0  L332.0 708.0 L404.0 708.0 L404.0 204.0Q 404.0,116.0  361.5,49.0 T 215.0,-18.0 Q 140.0,-18.0  89.0,22.0 T 25.0,126.0  L92.0 144.0Q 101.0,101.0  131.5,73.0 T 207.0,45.0 Z">
</path>
</defs>
<use x="1160.0" y="0" xlink:href="#g74/TT0"/>
<use x="1652.0" y="0" xlink:href="#g97/TT0"/>
<defs>
<path id="g110/TT0" d="M155.0 388.0 L157.0 388.0Q 176.0,428.0  221.5,454.0 T 317.0,480.0 Q 404.0,480.0  449.5,428.0 T 495.0,287.0  L495.0 0 L427.0 0 L427.0 259.0Q 427.0,338.0  398.5,380.5 T 300.0,423.0 Q 262.0,423.0  230.0,402.5 T 178.0,341.0 T 158.0,240.0  L158.0 0 L90.0 0 L90.0 365.0Q 90.0,425.0  86.0,468.0  L151.0 468.0Q 155.0,418.0  155.0,388.0 Z">
</path>
</defs>
<use x="2186.0" y="0" xlink:href="#g110/TT0"/>
<use x="2767.0" y="0" xlink:href="#g50/TT0"/>
<use x="3347.0" y="0" xlink:href="#g48/TT0"/>
<use x="3927.0" y="0" xlink:href="#g50/TT0"/>
<use x="4507.0" y="0" xlink:href="#g48/TT0"/>
</g>
<text id="Text_91" x="58.0" y="497.65" font-size="9.0pt" font-family="Avenir Next" fill="#b0b8c3" text-anchor="middle" opacity="0">
 26Jan2020</text>
<g fill="#b0b8c3" stroke="#b0b8c3" transform="translate(125.33 497.65) scale(0.012 -0.012)">
<use x="0" y="0" xlink:href="#g50/TT0"/>
<use x="580.0" y="0" xlink:href="#g51/TT0"/>
<defs>
<path id="g70/TT0" d="M166.0 0 L94.0 0 L94.0 708.0 L521.0 708.0 L521.0 644.0 L166.0 644.0 L166.0 398.0 L496.0 398.0 L496.0 335.0 L166.0 335.0 L166.0 0Z">
</path>
</defs>
<use x="1160.0" y="0" xlink:href="#g70/TT0"/>
<use x="1722.0" y="0" xlink:href="#g101/TT0"/>
<use x="2294.0" y="0" xlink:href="#g98/TT0"/>
<use x="2931.0" y="0" xlink:href="#g50/TT0"/>
<use x="3511.0" y="0" xlink:href="#g48/TT0"/>
<use x="4091.0" y="0" xlink:href="#g50/TT0"/>
<use x="4671.0" y="0" xlink:href="#g48/TT0"/>
</g>
<text id="Text_92" x="156.33" y="497.65" font-size="9.0pt" font-family="Avenir Next" fill="#b0b8c3" text-anchor="middle" opacity="0">
 23Feb2020</text>
<g fill="#b0b8c3" stroke="#b0b8c3" transform="translate(250.67 497.65) scale(0.012 -0.012)">
<use x="0" y="0" xlink:href="#g50/TT0"/>
<use x="580.0" y="0" xlink:href="#g50/TT0"/>
<defs>
<path id="g77/TT0" d="M444.0 122.0 L445.0 122.0 L682.0 708.0 L792.0 708.0 L792.0 0 L720.0 0 L720.0 615.0 L718.0 615.0 L462.0 0 L424.0 0 L168.0 615.0 L166.0 615.0 L166.0 0 L94.0 0 L94.0 708.0 L204.0 708.0 L444.0 122.0Z">
</path>
</defs>
<use x="1160.0" y="0" xlink:href="#g77/TT0"/>
<use x="2046.0" y="0" xlink:href="#g97/TT0"/>
<defs>
<path id="g114/TT0" d="M86.0 468.0 L151.0 468.0Q 155.0,418.0  155.0,388.0  L157.0 388.0Q 177.0,429.0  217.5,454.5 T 307.0,480.0 Q 334.0,480.0  352.0,475.0  L343.0 411.0Q 337.0,413.0  322.5,415.0 T 295.0,417.0 Q 236.0,417.0  197.0,372.5 T 158.0,240.0  L158.0 0 L90.0 0 L90.0 365.0Q 90.0,425.0  86.0,468.0 Z">
</path>
</defs>
<use x="2580.0" y="0" xlink:href="#g114/TT0"/>
<use x="2940.0" y="0" xlink:href="#g50/TT0"/>
<use x="3520.0" y="0" xlink:href="#g48/TT0"/>
<use x="4100.0" y="0" xlink:href="#g50/TT0"/>
<use x="4680.0" y="0" xlink:href="#g48/TT0"/>
</g>
<text id="Text_93" x="281.67" y="497.65" font-size="9.0pt" font-family="Avenir Next" fill="#b0b8c3" text-anchor="middle" opacity="0">
 22Mar2020</text>
</g>
</g>
<g transform=" translate(16.0 -16.0)">
</g>
<g transform=" translate(16.0 -16.0)">
</g>
<g transform=" translate(16.0 -16.0)">
<rect x="122.58" y="97.35" rx="5" ry="5" width="196.42" height="26.7" fill="#103052">
</rect>
<defs>
<linearGradient id="gradient2" x1="0%" y1="100%" x2="0%" y2="0%">
<stop offset="0%" stop-color="#dd5757" stop-opacity="1.0">
</stop>
<stop offset="100%" stop-color="#dd5757" stop-opacity="1.0">
</stop>
</linearGradient>
</defs>
<rect x="128.58" y="106.2" width="9.0" height="9.0" fill="url(#gradient2)">
</rect>
<g fill="#b0b8c3" stroke="#b0b8c3" transform="translate(141.58 115.01) scale(0.012 -0.012)">
<use x="0" y="0" xlink:href="#g84/TT0"/>
<use x="570.0" y="0" xlink:href="#g111/TT0"/>
<use x="1181.0" y="0" xlink:href="#g116/TT0"/>
<use x="1498.0" y="0" xlink:href="#g97/TT0"/>
<use x="2032.0" y="0" xlink:href="#g108/TT0"/>
<use x="2284.0" y="0" xlink:href="#g32/TT0"/>
<use x="2534.0" y="0" xlink:href="#g84/TT0"/>
<use x="3104.0" y="0" xlink:href="#g101/TT0"/>
<use x="3676.0" y="0" xlink:href="#g115/TT0"/>
<use x="4120.0" y="0" xlink:href="#g116/TT0"/>
<use x="4437.0" y="0" xlink:href="#g115/TT0"/>
</g>
<text x="141.58" y="115.01" font-size="9.0pt" font-family="Avenir Next" fill="#b0b8c3" text-anchor="start" opacity="0">
 Total Tests</text>
<defs>
<linearGradient id="gradient3" x1="0%" y1="100%" x2="0%" y2="0%">
<stop offset="0%" stop-color="#7dc3fc" stop-opacity="1.0">
</stop>
<stop offset="100%" stop-color="#7dc3fc" stop-opacity="1.0">
</stop>
</linearGradient>
</defs>
<rect x="208.15" y="106.2" width="9.0" height="9.0" fill="url(#gradient3)">
</rect>
<g fill="#b0b8c3" stroke="#b0b8c3" transform="translate(221.15 115.01) scale(0.012 -0.012)">
<use x="0" y="0" xlink:href="#g67/TT0"/>
<use x="720.0" y="0" xlink:href="#g79/TT0"/>
<use x="1570.0" y="0" xlink:href="#g86/TT0"/>
<use x="2193.0" y="0" xlink:href="#g73/TT0"/>
<use x="2453.0" y="0" xlink:href="#g68/TT0"/>
<use x="3210.0" y="0" xlink:href="#g45/TT0"/>
<use x="3530.0" y="0" xlink:href="#g49/TT0"/>
<use x="4110.0" y="0" xlink:href="#g57/TT0"/>
<use x="4690.0" y="0" xlink:href="#g32/TT0"/>
<use x="4940.0" y="0" xlink:href="#g67/TT0"/>
<use x="5660.0" y="0" xlink:href="#g97/TT0"/>
<use x="6194.0" y="0" xlink:href="#g115/TT0"/>
<use x="6638.0" y="0" xlink:href="#g101/TT0"/>
<use x="7210.0" y="0" xlink:href="#g115/TT0"/>
</g>
<text x="221.15" y="115.01" font-size="9.0pt" font-family="Avenir Next" fill="#b0b8c3" text-anchor="start" opacity="0">
 COVID-19 Cases</text>
</g>
</g>
</svg>
