<svg xmlns="http://www.w3.org/2000/svg" xmlns:xlink="http://www.w3.org/1999/xlink" version="1.1" width="180" height="500" viewBox="0 0 180 500">
<rect x="0" y="0" width="180" height="500" fill="#103052">
</rect>
<g>
<rect x="0" y="0" rx="5" ry="5" width="180.0" height="500.0" fill="#011e33" opacity="0">
</rect>
<g transform=" translate(16.0 -397.0)">
<g fill="#ffffff" stroke="#ffffff" transform="translate(0 430.34) scale(0.0177 -0.0177)">
<defs>
<path id="g84/TT0" d="M321.0 0 L249.0 0 L249.0 644.0 L12.0 644.0 L12.0 708.0 L558.0 708.0 L558.0 644.0 L321.0 644.0 L321.0 0Z">
</path>
</defs>
<use x="0" y="0" xlink:href="#g84/TT0"/>
<defs>
<path id="g111/TT0" d="M305.0 -12.0Q 234.0,-12.0  177.0,20.0 T 88.0,108.0 T 56.0,234.0 Q 56.0,304.0  88.0,360.0 T 177.0,448.0 T 305.0,480.0 Q 377.0,480.0  434.0,448.0 T 523.0,360.0 T 555.0,234.0 Q 555.0,164.0  523.0,108.0 T 434.0,20.0 T 377.0,-12.0 Z M305.0 423.0Q 252.0,423.0  212.0,398.0 T 150.0,330.0 T 128.0,234.0 Q 128.0,181.0  150.0,138.5 T 212.0,71.0 T 305.0,46.0 Q 358.0,46.0  398.5,71.0 T 461.0,138.5 T 483.0,234.0 Q 483.0,287.0  461.0,330.0 T 398.5,398.0 T 358.0,423.0 Z">
</path>
</defs>
<use x="570.0" y="0" xlink:href="#g111/TT0"/>
<defs>
<path id="g112/TT0" d="M90.0 -240.0 L90.0 468.0 L158.0 468.0 L158.0 387.0 L161.0 387.0Q 189.0,431.0  237.0,455.5 T 337.0,480.0 Q 408.0,480.0  463.5,447.5 T 549.0,359.0 T 579.0,234.0 Q 579.0,165.0  549.0,109.0 T 463.5,20.5 T 337.0,-12.0 Q 286.0,-12.0  238.0,12.0 T 161.0,79.0  L158.0 79.0 L158.0 -240.0 L90.0 -240.0Z M330.0 423.0Q 278.0,423.0  237.0,398.0 T 173.0,330.0 T 150.0,234.0 Q 150.0,181.0  173.0,138.0 T 237.0,70.5 T 330.0,46.0 Q 385.0,46.0  425.0,71.0 T 486.0,138.5 T 507.0,234.0 Q 507.0,287.0  486.0,330.0 T 425.0,398.0 T 385.0,423.0 Z">
</path>
</defs>
<use x="1181.0" y="0" xlink:href="#g112/TT0"/>
<use x="1816.0" y="0" xlink:href="#g32/TT0"/>
<defs>
<path id="g53/TT0" d="M180.0 644.0 L175.0 425.0Q 219.0,441.0  273.0,441.0 Q 339.0,441.0  391.5,413.0 T 473.5,334.5 T 503.0,219.0 Q 503.0,151.0  473.5,97.0 T 390.5,12.5 T 268.0,-18.0 Q 194.0,-18.0  140.0,16.0 T 56.0,111.0  L121.0 140.0Q 140.0,96.0  179.0,70.0 T 264.0,44.0 Q 311.0,44.0  349.0,66.0 T 408.5,126.5 T 430.0,212.0 Q 430.0,289.0  380.5,335.5 T 254.0,382.0 Q 180.0,382.0  107.0,343.0  L114.0 708.0 L475.0 708.0 L475.0 644.0 L180.0 644.0Z">
</path>
</defs>
<use x="2066.0" y="0" xlink:href="#g53/TT0"/>
<use x="2646.0" y="0" xlink:href="#g32/TT0"/>
<defs>
<path id="g105/TT0" d="M125.0 600.0Q 106.0,600.0  91.5,614.0 T 77.0,648.0 Q 77.0,668.0  91.5,682.0 T 125.0,696.0 Q 144.0,696.0  158.5,682.0 T 173.0,648.0 Q 173.0,628.0  158.5,614.0 T 125.0,600.0 Z M159.0 0 L91.0 0 L91.0 468.0 L159.0 468.0 L159.0 0Z">
</path>
</defs>
<use x="2896.0" y="0" xlink:href="#g105/TT0"/>
<defs>
<path id="g109/TT0" d="M311.0 480.0Q 356.0,480.0  395.0,458.0 T 455.0,381.0 Q 479.0,429.0  521.0,454.5 T 619.0,480.0 Q 706.0,480.0  751.5,428.0 T 797.0,287.0  L797.0 0 L729.0 0 L729.0 259.0Q 729.0,423.0  608.0,423.0 Q 540.0,423.0  507.5,372.5 T 475.0,249.0  L475.0 0 L407.0 0 L407.0 273.0Q 407.0,347.0  382.5,385.0 T 294.0,423.0 Q 260.0,423.0  228.5,402.5 T 177.5,340.5 T 158.0,240.0  L158.0 0 L90.0 0 L90.0 365.0Q 90.0,425.0  86.0,468.0  L151.0 468.0Q 155.0,418.0  155.0,388.0  L157.0 388.0Q 178.0,429.0  219.5,454.5 T 311.0,480.0 Z">
</path>
</defs>
<use x="3146.0" y="0" xlink:href="#g109/TT0"/>
<use x="4029.0" y="0" xlink:href="#g112/TT0"/>
<defs>
<path id="g97/TT0" d="M260.0 423.0Q 220.0,423.0  183.0,408.0 T 121.0,368.0  L83.0 413.0Q 113.0,443.0  161.0,461.5 T 267.0,480.0 Q 347.0,480.0  398.0,436.0 T 449.0,310.0  L449.0 105.0Q 449.0,42.0  457.0,0  L396.0 0Q 389.0,40.0  389.0,76.0  L387.0 76.0Q 355.0,30.0  314.5,9.0 T 217.0,-12.0 Q 178.0,-12.0  141.0,2.5 T 79.5,49.0 T 55.0,130.0 Q 55.0,198.0  99.0,232.0 T 212.5,276.5 T 385.0,287.0  L385.0 302.0Q 385.0,362.0  353.0,392.5 T 260.0,423.0 Z M125.0 133.0Q 125.0,87.0  157.0,65.5 T 235.0,44.0 Q 304.0,44.0  344.5,89.0 T 385.0,199.0  L385.0 234.0 L365.0 234.0Q 259.0,234.0  192.0,213.5 T 125.0,133.0 Z">
</path>
</defs>
<use x="4664.0" y="0" xlink:href="#g97/TT0"/>
<defs>
<path id="g99/TT0" d="M307.0 423.0Q 254.0,423.0  213.0,398.5 T 150.0,330.5 T 128.0,234.0 Q 128.0,181.0  150.0,138.0 T 212.5,70.5 T 306.0,46.0 Q 387.0,46.0  433.0,107.0  L484.0 69.0Q 418.0,-12.0  306.0,-12.0 Q 232.0,-12.0  175.0,20.0 T 87.0,108.0 T 56.0,234.0 Q 56.0,304.0  87.0,360.0 T 175.0,448.0 T 306.0,480.0 Q 356.0,480.0  403.5,459.0 T 480.0,399.0  L427.0 361.0Q 410.0,388.0  377.5,405.5 T 307.0,423.0 Z">
</path>
</defs>
<use x="5198.0" y="0" xlink:href="#g99/TT0"/>
<defs>
<path id="g116/TT0" d="M169.0 411.0 L169.0 138.0Q 169.0,89.0  187.0,70.5 T 239.0,52.0 Q 268.0,52.0  298.0,67.0  L301.0 8.0Q 264.0,-6.0  221.0,-6.0 Q 173.0,-6.0  137.0,22.0 T 101.0,119.0  L101.0 411.0 L4.0 411.0 L4.0 468.0 L101.0 468.0 L101.0 600.0 L169.0 600.0 L169.0 468.0 L301.0 468.0 L301.0 411.0 L169.0 411.0Z">
</path>
</defs>
<use x="5698.0" y="0" xlink:href="#g116/TT0"/>
<defs>
<path id="g101/TT0" d="M515.0 216.0 L127.0 216.0Q 128.0,169.0  150.5,130.5 T 212.0,69.0 T 298.0,46.0 Q 347.0,46.0  387.0,69.5 T 448.0,127.0  L499.0 87.0Q 421.0,-12.0  298.0,-12.0 Q 229.0,-12.0  174.0,20.0 T 87.5,108.0 T 56.0,234.0 Q 56.0,303.0  87.0,359.5 T 172.0,448.0 T 292.0,480.0 Q 363.0,480.0  413.5,449.5 T 490.0,366.0 T 516.0,248.0 Q 516.0,228.0  515.0,216.0 Z M292.0 423.0Q 248.0,423.0  211.5,402.0 T 153.0,345.5 T 128.0,270.0  L447.0 270.0Q 444.0,338.0  403.5,380.5 T 292.0,423.0 Z">
</path>
</defs>
<use x="6015.0" y="0" xlink:href="#g101/TT0"/>
<defs>
<path id="g100/TT0" d="M298.0 -12.0Q 227.0,-12.0  171.5,20.5 T 86.0,109.0 T 56.0,234.0 Q 56.0,303.0  86.0,359.0 T 171.5,447.5 T 298.0,480.0 Q 350.0,480.0  398.0,455.5 T 475.0,387.0  L477.0 387.0 L477.0 756.0 L545.0 756.0 L545.0 0 L477.0 0 L477.0 79.0 L475.0 79.0Q 446.0,36.0  398.0,12.0 T 298.0,-12.0 Z M305.0 46.0Q 357.0,46.0  398.0,70.5 T 462.0,138.0 T 485.0,234.0 Q 485.0,287.0  462.0,330.0 T 398.0,398.0 T 305.0,423.0 Q 250.0,423.0  210.0,398.0 T 149.0,330.0 T 128.0,234.0 Q 128.0,181.0  149.0,138.5 T 210.0,71.0 T 250.0,46.0 Z">
</path>
</defs>
<use x="6587.0" y="0" xlink:href="#g100/TT0"/>
</g>
<text x="0" y="430.34" font-size="13.3pt" font-family="Avenir Next" fill="#ffffff" opacity="0">
 Top 5 impacted</text>
<g fill="#ffffff" stroke="#ffffff" transform="translate(0 452.06) scale(0.0177 -0.0177)">
<use x="0" y="0" xlink:href="#g99/TT0"/>
<use x="500.0" y="0" xlink:href="#g111/TT0"/>
<defs>
<path id="g117/TT0" d="M426.0 80.0 L424.0 80.0Q 405.0,40.0  359.5,14.0 T 264.0,-12.0 Q 177.0,-12.0  131.5,40.0 T 86.0,181.0  L86.0 468.0 L154.0 468.0 L154.0 209.0Q 154.0,130.0  182.5,87.5 T 281.0,45.0 Q 319.0,45.0  351.0,65.5 T 403.0,127.0 T 423.0,228.0  L423.0 468.0 L491.0 468.0 L491.0 103.0Q 491.0,43.0  495.0,0  L430.0 0Q 426.0,50.0  426.0,80.0 Z">
</path>
</defs>
<use x="1111.0" y="0" xlink:href="#g117/TT0"/>
<defs>
<path id="g110/TT0" d="M155.0 388.0 L157.0 388.0Q 176.0,428.0  221.5,454.0 T 317.0,480.0 Q 404.0,480.0  449.5,428.0 T 495.0,287.0  L495.0 0 L427.0 0 L427.0 259.0Q 427.0,338.0  398.5,380.5 T 300.0,423.0 Q 262.0,423.0  230.0,402.5 T 178.0,341.0 T 158.0,240.0  L158.0 0 L90.0 0 L90.0 365.0Q 90.0,425.0  86.0,468.0  L151.0 468.0Q 155.0,418.0  155.0,388.0 Z">
</path>
</defs>
<use x="1692.0" y="0" xlink:href="#g110/TT0"/>
<use x="2273.0" y="0" xlink:href="#g116/TT0"/>
<use x="2590.0" y="0" xlink:href="#g105/TT0"/>
<use x="2840.0" y="0" xlink:href="#g101/TT0"/>
<defs>
<path id="g115/TT0" d="M224.0 423.0Q 183.0,423.0  154.0,404.5 T 125.0,350.0 Q 125.0,318.0  151.0,300.0 T 237.0,270.0 Q 320.0,253.0  359.5,220.0 T 399.0,133.0 Q 399.0,59.0  347.5,23.5 T 223.0,-12.0 Q 167.0,-12.0  118.0,11.0 T 38.0,79.0  L92.0 119.0Q 111.0,87.0  146.5,66.5 T 222.0,46.0 Q 270.0,46.0  301.0,65.5 T 332.0,128.0 Q 332.0,163.0  299.5,182.0 T 194.0,218.0 Q 136.0,232.0  98.0,258.5 T 60.0,344.0 Q 60.0,411.0  108.5,445.5 T 227.0,480.0 Q 277.0,480.0  323.0,457.5 T 391.0,396.0  L339.0 357.0Q 324.0,387.0  293.0,405.0 T 224.0,423.0 Z">
</path>
</defs>
<use x="3412.0" y="0" xlink:href="#g115/TT0"/>
<use x="3856.0" y="0" xlink:href="#g32/TT0"/>
<defs>
<path id="g98/TT0" d="M160.0 0 L92.0 0 L92.0 756.0 L160.0 756.0 L160.0 387.0 L162.0 387.0Q 191.0,431.0  239.0,455.5 T 339.0,480.0 Q 410.0,480.0  465.5,447.5 T 551.0,359.0 T 581.0,234.0 Q 581.0,165.0  551.0,109.0 T 465.5,20.5 T 339.0,-12.0 Q 287.0,-12.0  239.0,12.0 T 162.0,79.0  L160.0 79.0 L160.0 0Z M332.0 423.0Q 280.0,423.0  239.0,398.0 T 175.0,330.0 T 152.0,234.0 Q 152.0,181.0  175.0,138.0 T 239.0,70.5 T 332.0,46.0 Q 387.0,46.0  427.0,71.0 T 488.0,138.5 T 509.0,234.0 Q 509.0,287.0  488.0,330.0 T 427.0,398.0 T 387.0,423.0 Z">
</path>
</defs>
<use x="4106.0" y="0" xlink:href="#g98/TT0"/>
<defs>
<path id="g121/TT0" d="M253.0 73.0 L398.0 468.0 L472.0 468.0 L239.0 -121.0Q 216.0,-180.0  182.5,-210.0 T 92.0,-240.0 Q 61.0,-240.0  31.0,-234.0  L38.0 -172.0Q 62.0,-180.0  88.0,-180.0 Q 121.0,-180.0  141.5,-159.5 T 178.0,-97.0  L216.0 1.0 L16.0 468.0 L92.0 468.0 L251.0 73.0 L253.0 73.0Z">
</path>
</defs>
<use x="4743.0" y="0" xlink:href="#g121/TT0"/>
<use x="5231.0" y="0" xlink:href="#g32/TT0"/>
<use x="5481.0" y="0" xlink:href="#g110/TT0"/>
<use x="6062.0" y="0" xlink:href="#g101/TT0"/>
<defs>
<path id="g119/TT0" d="M99.0 468.0 L212.0 88.0 L214.0 88.0 L340.0 468.0 L406.0 468.0 L534.0 88.0 L536.0 88.0 L648.0 468.0 L720.0 468.0 L572.0 0 L498.0 0 L373.0 379.0 L371.0 379.0 L248.0 0 L174.0 0 L26.0 468.0 L99.0 468.0Z">
</path>
</defs>
<use x="6634.0" y="0" xlink:href="#g119/TT0"/>
</g>
<text x="0" y="452.06" font-size="13.3pt" font-family="Avenir Next" fill="#ffffff" opacity="0">
 counties by new</text>
<g fill="#ffffff" stroke="#ffffff" transform="translate(0 473.78) scale(0.0177 -0.0177)">
<use x="0" y="0" xlink:href="#g99/TT0"/>
<use x="500.0" y="0" xlink:href="#g97/TT0"/>
<use x="1034.0" y="0" xlink:href="#g115/TT0"/>
<use x="1478.0" y="0" xlink:href="#g101/TT0"/>
<use x="2050.0" y="0" xlink:href="#g115/TT0"/>
<use x="2494.0" y="0" xlink:href="#g32/TT0"/>
<defs>
<path id="g40/TT0" d="M230.0 -126.0 L178.0 -159.0Q 112.0,-72.0  72.0,46.0 T 32.0,288.0 Q 32.0,412.0  72.0,530.0 T 178.0,735.0  L230.0 702.0Q 170.0,618.0  134.0,509.0 T 98.0,288.0 Q 98.0,176.0  134.0,67.0 T 230.0,-126.0 Z">
</path>
</defs>
<use x="2744.0" y="0" xlink:href="#g40/TT0"/>
<defs>
<path id="g108/TT0" d="M160.0 0 L92.0 0 L92.0 756.0 L160.0 756.0 L160.0 0Z">
</path>
</defs>
<use x="3044.0" y="0" xlink:href="#g108/TT0"/>
<use x="3296.0" y="0" xlink:href="#g97/TT0"/>
<use x="3830.0" y="0" xlink:href="#g115/TT0"/>
<use x="4274.0" y="0" xlink:href="#g116/TT0"/>
<use x="4591.0" y="0" xlink:href="#g32/TT0"/>
<defs>
<path id="g49/TT0" d="M358.0 0 L286.0 0 L286.0 619.0 L158.0 510.0 L114.0 560.0 L294.0 708.0 L358.0 708.0 L358.0 0Z">
</path>
</defs>
<use x="4841.0" y="0" xlink:href="#g49/TT0"/>
<defs>
<path id="g48/TT0" d="M522.0 353.0Q 522.0,195.0  467.0,88.5 T 290.0,-18.0 Q 167.0,-18.0  112.5,88.5 T 58.0,353.0 Q 58.0,512.0  112.5,619.0 T 290.0,726.0 Q 412.0,726.0  467.0,618.5 T 522.0,353.0 Z M131.0 353.0Q 131.0,226.0  167.5,135.0 T 290.0,44.0 Q 375.0,44.0  412.0,135.5 T 449.0,353.0 Q 449.0,480.0  412.0,572.5 T 290.0,665.0 Q 204.0,665.0  167.5,573.0 T 131.0,353.0 Z">
</path>
</defs>
<use x="5421.0" y="0" xlink:href="#g48/TT0"/>
</g>
<text x="0" y="473.78" font-size="13.3pt" font-family="Avenir Next" fill="#ffffff" opacity="0">
 cases (last 10</text>
<g fill="#ffffff" stroke="#ffffff" transform="translate(0 495.5) scale(0.0177 -0.0177)">
<use x="0" y="0" xlink:href="#g100/TT0"/>
<use x="637.0" y="0" xlink:href="#g97/TT0"/>
<use x="1171.0" y="0" xlink:href="#g121/TT0"/>
<use x="1659.0" y="0" xlink:href="#g115/TT0"/>
<defs>
<path id="g41/TT0" d="M70.0 702.0 L122.0 735.0Q 188.0,648.0  228.0,530.0 T 268.0,288.0 Q 268.0,164.0  228.0,46.0 T 122.0,-159.0  L70.0 -126.0Q 130.0,-42.0  166.0,67.0 T 202.0,288.0 Q 202.0,400.0  166.0,509.0 T 70.0,702.0 Z">
</path>
</defs>
<use x="2103.0" y="0" xlink:href="#g41/TT0"/>
</g>
<text x="0" y="495.5" font-size="13.3pt" font-family="Avenir Next" fill="#ffffff" opacity="0">
 days)</text>
</g>
<g transform=" translate(16.0 -16.0)">
<defs>
<clipPath id="ClipPath0">
<rect x="56" y="224" width="94" height="274">
</rect>
</clipPath>
</defs>
<g clip-path="url(#ClipPath0)">
<defs>
<clipPath id="ClipPath1">
<rect x="56" y="227" width="91" height="271">
</rect>
</clipPath>
</defs>
<g clip-path="url(#ClipPath1)">
<rect id="Rect_15" x="56.0" y="228.85" width="8.16" height="20.94" fill="#2470ad" stroke="#34a4fe" stroke-width="2.0">
</rect>
<rect id="Rect_16" x="64.16" y="228.85" width="17.68" height="20.94" fill="#98863c" stroke="#e9cd5c" stroke-width="2.0">
</rect>
<rect id="Rect_17" x="81.84" y="228.85" width="5.44" height="20.94" fill="#5954ad" stroke="#827bfe" stroke-width="2.0">
</rect>
<rect id="Rect_18" x="87.28" y="228.85" width="28.9" height="20.94" fill="#985b30" stroke="#e98b49" stroke-width="2.0">
</rect>
<rect id="Rect_19" x="116.18" y="228.85" width="7.48" height="20.94" fill="#238a92" stroke="#36d7e3" stroke-width="2.0">
</rect>
<rect id="Rect_20" x="56.0" y="253.48" width="4.76" height="20.94" fill="#2470ad" stroke="#34a4fe" stroke-width="2.0">
</rect>
<rect id="Rect_21" x="60.76" y="253.48" width="4.76" height="20.94" fill="#98863c" stroke="#e9cd5c" stroke-width="2.0">
</rect>
<rect id="Rect_22" x="65.52" y="253.48" width="13.26" height="20.94" fill="#5954ad" stroke="#827bfe" stroke-width="2.0">
</rect>
<rect id="Rect_23" x="78.78" y="253.48" width="11.9" height="20.94" fill="#985b30" stroke="#e98b49" stroke-width="2.0">
</rect>
<rect id="Rect_24" x="90.68" y="253.48" width="5.1" height="20.94" fill="#238a92" stroke="#36d7e3" stroke-width="2.0">
</rect>
<rect id="Rect_25" x="56.0" y="278.12" width="4.42" height="20.94" fill="#2470ad" stroke="#34a4fe" stroke-width="2.0">
</rect>
<rect id="Rect_26" x="60.42" y="278.12" width="12.58" height="20.94" fill="#98863c" stroke="#e9cd5c" stroke-width="2.0">
</rect>
<rect id="Rect_27" x="73.0" y="278.12" width="6.8" height="20.94" fill="#5954ad" stroke="#827bfe" stroke-width="2.0">
</rect>
<rect id="Rect_28" x="79.8" y="278.12" width="8.84" height="20.94" fill="#985b30" stroke="#e98b49" stroke-width="2.0">
</rect>
<rect id="Rect_29" x="88.64" y="278.12" width="8.16" height="20.94" fill="#238a92" stroke="#36d7e3" stroke-width="2.0">
</rect>
<rect id="Rect_30" x="56.0" y="302.76" width="3.74" height="20.94" fill="#2470ad" stroke="#34a4fe" stroke-width="2.0">
</rect>
<rect id="Rect_31" x="59.74" y="302.76" width="5.1" height="20.94" fill="#98863c" stroke="#e9cd5c" stroke-width="2.0">
</rect>
<rect id="Rect_32" x="64.84" y="302.76" width="5.78" height="20.94" fill="#5954ad" stroke="#827bfe" stroke-width="2.0">
</rect>
<rect id="Rect_33" x="70.62" y="302.76" width="4.76" height="20.94" fill="#985b30" stroke="#e98b49" stroke-width="2.0">
</rect>
<rect id="Rect_34" x="75.38" y="302.76" width="2.04" height="20.94" fill="#238a92" stroke="#36d7e3" stroke-width="2.0">
</rect>
<rect id="Rect_35" x="56.0" y="327.39" width="2.38" height="20.94" fill="#2470ad" stroke="#34a4fe" stroke-width="2.0">
</rect>
<rect id="Rect_36" x="58.38" y="327.39" width="5.1" height="20.94" fill="#98863c" stroke="#e9cd5c" stroke-width="2.0">
</rect>
<rect id="Rect_37" x="63.48" y="327.39" width="10.54" height="20.94" fill="#5954ad" stroke="#827bfe" stroke-width="2.0">
</rect>
<rect id="Rect_38" x="74.02" y="327.39" width="10.2" height="20.94" fill="#985b30" stroke="#e98b49" stroke-width="2.0">
</rect>
<rect id="Rect_39" x="84.22" y="327.39" width="2.72" height="20.94" fill="#238a92" stroke="#36d7e3" stroke-width="2.0">
</rect>
<rect id="Rect_40" x="56.0" y="352.03" width="6.8" height="20.94" fill="#2470ad" stroke="#34a4fe" stroke-width="2.0">
</rect>
<rect id="Rect_41" x="62.8" y="352.03" width="7.82" height="20.94" fill="#98863c" stroke="#e9cd5c" stroke-width="2.0">
</rect>
<rect id="Rect_42" x="70.62" y="352.03" width="3.4" height="20.94" fill="#5954ad" stroke="#827bfe" stroke-width="2.0">
</rect>
<rect id="Rect_43" x="74.02" y="352.03" width="11.56" height="20.94" fill="#985b30" stroke="#e98b49" stroke-width="2.0">
</rect>
<rect id="Rect_44" x="85.58" y="352.03" width="2.04" height="20.94" fill="#238a92" stroke="#36d7e3" stroke-width="2.0">
</rect>
<rect id="Rect_45" x="56.0" y="376.67" width="2.04" height="20.94" fill="#2470ad" stroke="#34a4fe" stroke-width="2.0">
</rect>
<rect id="Rect_46" x="58.04" y="376.67" width="3.74" height="20.94" fill="#98863c" stroke="#e9cd5c" stroke-width="2.0">
</rect>
<rect id="Rect_47" x="61.78" y="376.67" width="5.1" height="20.94" fill="#985b30" stroke="#e98b49" stroke-width="2.0">
</rect>
<rect id="Rect_48" x="66.88" y="376.67" width="1.0" height="20.94" fill="#238a92" stroke="#36d7e3" stroke-width="2.0">
</rect>
<rect id="Rect_49" x="56.0" y="401.3" width="2.04" height="20.94" fill="#2470ad" stroke="#34a4fe" stroke-width="2.0">
</rect>
<rect id="Rect_50" x="58.04" y="401.3" width="2.04" height="20.94" fill="#98863c" stroke="#e9cd5c" stroke-width="2.0">
</rect>
<rect id="Rect_51" x="60.08" y="401.3" width="2.04" height="20.94" fill="#5954ad" stroke="#827bfe" stroke-width="2.0">
</rect>
<rect id="Rect_52" x="62.12" y="401.3" width="5.1" height="20.94" fill="#985b30" stroke="#e98b49" stroke-width="2.0">
</rect>
<rect id="Rect_53" x="67.22" y="401.3" width="1.7" height="20.94" fill="#238a92" stroke="#36d7e3" stroke-width="2.0">
</rect>
<rect id="Rect_54" x="56.0" y="425.94" width="3.4" height="20.94" fill="#2470ad" stroke="#34a4fe" stroke-width="2.0">
</rect>
<rect id="Rect_55" x="59.4" y="425.94" width="3.06" height="20.94" fill="#98863c" stroke="#e9cd5c" stroke-width="2.0">
</rect>
<rect id="Rect_56" x="62.46" y="425.94" width="5.44" height="20.94" fill="#5954ad" stroke="#827bfe" stroke-width="2.0">
</rect>
<rect id="Rect_57" x="67.9" y="425.94" width="7.14" height="20.94" fill="#985b30" stroke="#e98b49" stroke-width="2.0">
</rect>
<rect id="Rect_58" x="75.04" y="425.94" width="3.4" height="20.94" fill="#238a92" stroke="#36d7e3" stroke-width="2.0">
</rect>
<rect id="Rect_59" x="56.0" y="450.57" width="1.02" height="20.94" fill="#2470ad" stroke="#34a4fe" stroke-width="2.0">
</rect>
<rect id="Rect_60" x="57.02" y="450.57" width="2.72" height="20.94" fill="#98863c" stroke="#e9cd5c" stroke-width="2.0">
</rect>
<rect id="Rect_61" x="59.74" y="450.57" width="6.46" height="20.94" fill="#5954ad" stroke="#827bfe" stroke-width="2.0">
</rect>
<rect id="Rect_62" x="66.2" y="450.57" width="6.46" height="20.94" fill="#985b30" stroke="#e98b49" stroke-width="2.0">
</rect>
<rect id="Rect_63" x="72.66" y="450.57" width="1.7" height="20.94" fill="#238a92" stroke="#36d7e3" stroke-width="2.0">
</rect>
<rect id="Rect_64" x="56.0" y="475.21" width="1.02" height="20.94" fill="#2470ad" stroke="#34a4fe" stroke-width="2.0">
</rect>
<rect id="Rect_65" x="57.02" y="475.21" width="1.0" height="20.94" fill="#98863c" stroke="#e9cd5c" stroke-width="2.0">
</rect>
<rect id="Rect_66" x="57.7" y="475.21" width="1.02" height="20.94" fill="#5954ad" stroke="#827bfe" stroke-width="2.0">
</rect>
<rect id="Rect_67" x="58.72" y="475.21" width="2.04" height="20.94" fill="#985b30" stroke="#e98b49" stroke-width="2.0">
</rect>
<g fill="#f9fafb" stroke="#f9fafb" transform="translate(61.76 489.27) scale(0.01 -0.01)">
<use x="0" y="0" xlink:href="#g49/TT0"/>
<defs>
<path id="g52/TT0" d="M436.0 234.0 L540.0 234.0 L540.0 171.0 L436.0 171.0 L436.0 0 L366.0 0 L366.0 171.0 L42.0 171.0 L42.0 241.0 L342.0 708.0 L436.0 708.0 L436.0 234.0Z M366.0 627.0 L364.0 627.0 L117.0 234.0 L366.0 234.0 L366.0 627.0Z">
</path>
</defs>
<use x="580.0" y="0" xlink:href="#g52/TT0"/>
</g>
<text x="61.76" y="489.27" font-size="7.5pt" font-family="Avenir Next" fill="#f9fafb" text-anchor="start" opacity="0">
 14</text>
<g fill="#f9fafb" stroke="#f9fafb" transform="translate(75.36 464.63) scale(0.01 -0.01)">
<use x="0" y="0" xlink:href="#g53/TT0"/>
<use x="580.0" y="0" xlink:href="#g52/TT0"/>
</g>
<text x="75.36" y="464.63" font-size="7.5pt" font-family="Avenir Next" fill="#f9fafb" text-anchor="start" opacity="0">
 54</text>
<g fill="#f9fafb" stroke="#f9fafb" transform="translate(79.44 439.99) scale(0.01 -0.01)">
<defs>
<path id="g54/TT0" d="M203.0 397.0Q 218.0,409.0  247.0,416.0 T 304.0,423.0 Q 365.0,423.0  414.5,395.5 T 492.0,318.0 T 520.0,205.0 Q 520.0,140.0  490.5,89.5 T 408.5,10.5 T 290.0,-18.0 Q 224.0,-18.0  171.5,10.5 T 89.5,89.5 T 60.0,205.0 Q 60.0,255.0  77.0,301.5 T 124.0,397.0  L317.0 708.0 L400.0 708.0 L201.0 399.0 L203.0 397.0Z M290.0 43.0Q 336.0,43.0  372.0,64.0 T 428.0,122.0 T 448.0,205.0 Q 448.0,275.0  405.0,320.0 T 290.0,365.0 Q 218.0,365.0  175.0,320.0 T 132.0,205.0 Q 132.0,159.0  152.0,122.0 T 208.0,64.0 T 244.0,43.0 Z">
</path>
</defs>
<use x="0" y="0" xlink:href="#g54/TT0"/>
<use x="580.0" y="0" xlink:href="#g54/TT0"/>
</g>
<text x="79.44" y="439.99" font-size="7.5pt" font-family="Avenir Next" fill="#f9fafb" text-anchor="start" opacity="0">
 66</text>
<g fill="#f9fafb" stroke="#f9fafb" transform="translate(69.92 415.36) scale(0.01 -0.01)">
<defs>
<path id="g51/TT0" d="M245.0 402.0Q 319.0,402.0  364.5,433.5 T 410.0,532.0 Q 410.0,590.0  369.0,627.5 T 270.0,665.0 Q 226.0,665.0  191.0,643.5 T 135.0,582.0  L74.0 614.0Q 106.0,670.0  157.0,698.0 T 274.0,726.0 Q 331.0,726.0  378.0,703.5 T 453.0,638.0 T 481.0,536.0 Q 481.0,475.0  446.5,432.0 T 358.0,374.0  L358.0 372.0Q 421.0,359.0  461.0,312.0 T 501.0,196.0 Q 501.0,131.0  470.0,82.5 T 387.0,8.0 T 273.0,-18.0 Q 196.0,-18.0  137.5,19.5 T 49.0,127.0  L117.0 152.0Q 135.0,102.0  177.0,73.0 T 273.0,44.0 Q 314.0,44.0  350.0,62.5 T 407.5,115.5 T 429.0,196.0 Q 429.0,271.0  376.0,305.5 T 245.0,340.0  L214.0 340.0 L214.0 402.0 L245.0 402.0Z">
</path>
</defs>
<use x="0" y="0" xlink:href="#g51/TT0"/>
<defs>
<path id="g56/TT0" d="M517.0 186.0Q 517.0,126.0  486.0,79.5 T 403.0,7.5 T 290.0,-18.0 Q 229.0,-18.0  177.0,7.5 T 94.0,79.5 T 63.0,186.0 Q 63.0,256.0  100.5,306.5 T 197.0,375.0  L197.0 377.0Q 150.0,393.0  120.0,437.5 T 90.0,537.0 Q 90.0,593.0  117.0,636.0 T 190.0,702.5 T 290.0,726.0 Q 344.0,726.0  390.0,702.5 T 463.0,636.0 T 490.0,537.0 Q 490.0,482.0  460.0,437.5 T 383.0,377.0  L383.0 375.0Q 442.0,358.0  479.5,307.0 T 517.0,186.0 Z M290.0 406.0Q 345.0,406.0  382.5,442.0 T 420.0,533.0 Q 420.0,590.0  383.0,627.5 T 290.0,665.0 Q 234.0,665.0  197.0,627.5 T 160.0,533.0 Q 160.0,478.0  197.5,442.0 T 290.0,406.0 Z M290.0 43.0Q 359.0,43.0  402.0,86.0 T 445.0,194.0 Q 445.0,258.0  402.0,300.0 T 290.0,342.0 Q 221.0,342.0  178.0,300.0 T 135.0,194.0 Q 135.0,129.0  178.0,86.0 T 290.0,43.0 Z">
</path>
</defs>
<use x="580.0" y="0" xlink:href="#g56/TT0"/>
</g>
<text x="69.92" y="415.36" font-size="7.5pt" font-family="Avenir Next" fill="#f9fafb" text-anchor="start" opacity="0">
 38</text>
<g fill="#f9fafb" stroke="#f9fafb" transform="translate(68.22 390.72) scale(0.01 -0.01)">
<use x="0" y="0" xlink:href="#g51/TT0"/>
<use x="580.0" y="0" xlink:href="#g51/TT0"/>
</g>
<text x="68.22" y="390.72" font-size="7.5pt" font-family="Avenir Next" fill="#f9fafb" text-anchor="start" opacity="0">
 33</text>
<g fill="#f9fafb" stroke="#f9fafb" transform="translate(88.62 366.08) scale(0.01 -0.01)">
<defs>
<path id="g57/TT0" d="M379.0 311.0Q 364.0,299.0  335.0,292.0 T 278.0,285.0 Q 217.0,285.0  167.5,312.5 T 90.0,390.0 T 62.0,503.0 Q 62.0,568.0  91.5,618.5 T 173.5,697.5 T 292.0,726.0 Q 358.0,726.0  410.5,697.5 T 492.5,618.5 T 522.0,503.0 Q 522.0,453.0  505.0,406.5 T 458.0,311.0  L265.0 0 L182.0 0 L381.0 309.0 L379.0 311.0Z M292.0 665.0Q 246.0,665.0  210.0,644.0 T 154.0,586.0 T 134.0,503.0 Q 134.0,433.0  177.0,388.0 T 292.0,343.0 Q 364.0,343.0  407.0,388.0 T 450.0,503.0 Q 450.0,549.0  430.0,586.0 T 374.0,644.0 T 338.0,665.0 Z">
</path>
</defs>
<use x="0" y="0" xlink:href="#g57/TT0"/>
<use x="580.0" y="0" xlink:href="#g51/TT0"/>
</g>
<text x="88.62" y="366.08" font-size="7.5pt" font-family="Avenir Next" fill="#f9fafb" text-anchor="start" opacity="0">
 93</text>
<g fill="#f9fafb" stroke="#f9fafb" transform="translate(87.94 341.45) scale(0.01 -0.01)">
<use x="0" y="0" xlink:href="#g57/TT0"/>
<use x="580.0" y="0" xlink:href="#g49/TT0"/>
</g>
<text x="87.94" y="341.45" font-size="7.5pt" font-family="Avenir Next" fill="#f9fafb" text-anchor="start" opacity="0">
 91</text>
<g fill="#f9fafb" stroke="#f9fafb" transform="translate(78.42 316.81) scale(0.01 -0.01)">
<use x="0" y="0" xlink:href="#g54/TT0"/>
<use x="580.0" y="0" xlink:href="#g51/TT0"/>
</g>
<text x="78.42" y="316.81" font-size="7.5pt" font-family="Avenir Next" fill="#f9fafb" text-anchor="start" opacity="0">
 63</text>
<g fill="#f9fafb" stroke="#f9fafb" transform="translate(97.8 292.18) scale(0.01 -0.01)">
<use x="0" y="0" xlink:href="#g49/TT0"/>
<defs>
<path id="g50/TT0" d="M51.0 0 L51.0 75.0 L341.0 368.0Q 380.0,408.0  403.0,447.0 T 426.0,530.0 Q 426.0,590.0  385.5,627.5 T 286.0,665.0 Q 230.0,665.0  191.0,630.0 T 140.0,539.0  L69.0 553.0Q 84.0,629.0  144.0,677.5 T 286.0,726.0 Q 344.0,726.0  392.5,703.5 T 470.0,637.0 T 499.0,531.0 Q 499.0,469.0  470.0,421.5 T 384.0,317.0  L129.0 64.0 L504.0 64.0 L504.0 0 L51.0 0Z">
</path>
</defs>
<use x="580.0" y="0" xlink:href="#g50/TT0"/>
<use x="1160.0" y="0" xlink:href="#g48/TT0"/>
</g>
<text x="97.8" y="292.18" font-size="7.5pt" font-family="Avenir Next" fill="#f9fafb" text-anchor="start" opacity="0">
 120</text>
<g fill="#f9fafb" stroke="#f9fafb" transform="translate(96.78 267.54) scale(0.01 -0.01)">
<use x="0" y="0" xlink:href="#g49/TT0"/>
<use x="580.0" y="0" xlink:href="#g49/TT0"/>
<defs>
<path id="g55/TT0" d="M498.0 642.0 L213.0 0 L132.0 0 L425.0 644.0 L78.0 644.0 L78.0 708.0 L498.0 708.0 L498.0 642.0Z">
</path>
</defs>
<use x="1160.0" y="0" xlink:href="#g55/TT0"/>
</g>
<text x="96.78" y="267.54" font-size="7.5pt" font-family="Avenir Next" fill="#f9fafb" text-anchor="start" opacity="0">
 117</text>
<g fill="#f9fafb" stroke="#f9fafb" transform="translate(124.66 242.9) scale(0.01 -0.01)">
<use x="0" y="0" xlink:href="#g49/TT0"/>
<use x="580.0" y="0" xlink:href="#g57/TT0"/>
<use x="1160.0" y="0" xlink:href="#g57/TT0"/>
</g>
<text x="124.66" y="242.9" font-size="7.5pt" font-family="Avenir Next" fill="#f9fafb" text-anchor="start" opacity="0">
 199</text>
<g fill="#f9fafb" stroke="#f9fafb" transform="translate(67.2 242.9) scale(0.01 -0.01)">
<use x="0" y="0" xlink:href="#g53/TT0"/>
<use x="580.0" y="0" xlink:href="#g50/TT0"/>
</g>
<text x="67.2" y="242.9" font-size="7.5pt" font-family="Avenir Next" fill="#f9fafb" text-anchor="start" opacity="0">
 52</text>
<g fill="#f9fafb" stroke="#f9fafb" transform="translate(95.93 242.9) scale(0.01 -0.01)">
<use x="0" y="0" xlink:href="#g56/TT0"/>
<use x="580.0" y="0" xlink:href="#g53/TT0"/>
</g>
<text x="95.93" y="242.9" font-size="7.5pt" font-family="Avenir Next" fill="#f9fafb" text-anchor="start" opacity="0">
 85</text>
<g fill="#f9fafb" stroke="#f9fafb" transform="translate(66.35 267.54) scale(0.01 -0.01)">
<use x="0" y="0" xlink:href="#g51/TT0"/>
<use x="580.0" y="0" xlink:href="#g57/TT0"/>
</g>
<text x="66.35" y="267.54" font-size="7.5pt" font-family="Avenir Next" fill="#f9fafb" text-anchor="start" opacity="0">
 39</text>
<g fill="#f9fafb" stroke="#f9fafb" transform="translate(78.93 267.54) scale(0.01 -0.01)">
<use x="0" y="0" xlink:href="#g51/TT0"/>
<use x="580.0" y="0" xlink:href="#g53/TT0"/>
</g>
<text x="78.93" y="267.54" font-size="7.5pt" font-family="Avenir Next" fill="#f9fafb" text-anchor="start" opacity="0">
 35</text>
<g fill="#f9fafb" stroke="#f9fafb" transform="translate(60.91 292.18) scale(0.01 -0.01)">
<use x="0" y="0" xlink:href="#g51/TT0"/>
<use x="580.0" y="0" xlink:href="#g55/TT0"/>
</g>
<text x="60.91" y="292.18" font-size="7.5pt" font-family="Avenir Next" fill="#f9fafb" text-anchor="start" opacity="0">
 37</text>
<path d="M56.0 498.0L56.0 227.0Z" stroke="#f9fafb" fill="none">
</path>
</g>
<path d="M56.0 498.0L56.0 227.0" stroke="#f9fafb" stroke-dasharray="1,2" fill="none" opacity="0.4">
</path>
<path d="M73.0 498.0L73.0 227.0" stroke="#f9fafb" stroke-dasharray="1,2" fill="none" opacity="0.4">
</path>
<path d="M90.0 498.0L90.0 227.0" stroke="#f9fafb" stroke-dasharray="1,2" fill="none" opacity="0.4">
</path>
<path d="M107.0 498.0L107.0 227.0" stroke="#f9fafb" stroke-dasharray="1,2" fill="none" opacity="0.4">
</path>
<path d="M124.0 498.0L124.0 227.0" stroke="#f9fafb" stroke-dasharray="1,2" fill="none" opacity="0.4">
</path>
</g>
<path d="M56.0 498.0L56.0 227.0Z" stroke="#f9fafb" fill="none">
</path>
<defs>
<clipPath id="ClipPath2">
<rect x="0" y="227" width="56" height="271">
</rect>
</clipPath>
</defs>
<g clip-path="url(#ClipPath2)">
<g fill="#b0b8c3" stroke="#b0b8c3" transform="translate(0.36 243.62) scale(0.012 -0.012)">
<use x="0" y="0" xlink:href="#g50/TT0"/>
<use x="580.0" y="0" xlink:href="#g55/TT0"/>
<defs>
<path id="g77/TT0" d="M444.0 122.0 L445.0 122.0 L682.0 708.0 L792.0 708.0 L792.0 0 L720.0 0 L720.0 615.0 L718.0 615.0 L462.0 0 L424.0 0 L168.0 615.0 L166.0 615.0 L166.0 0 L94.0 0 L94.0 708.0 L204.0 708.0 L444.0 122.0Z">
</path>
</defs>
<use x="1160.0" y="0" xlink:href="#g77/TT0"/>
<use x="2046.0" y="0" xlink:href="#g97/TT0"/>
<defs>
<path id="g114/TT0" d="M86.0 468.0 L151.0 468.0Q 155.0,418.0  155.0,388.0  L157.0 388.0Q 177.0,429.0  217.5,454.5 T 307.0,480.0 Q 334.0,480.0  352.0,475.0  L343.0 411.0Q 337.0,413.0  322.5,415.0 T 295.0,417.0 Q 236.0,417.0  197.0,372.5 T 158.0,240.0  L158.0 0 L90.0 0 L90.0 365.0Q 90.0,425.0  86.0,468.0 Z">
</path>
</defs>
<use x="2580.0" y="0" xlink:href="#g114/TT0"/>
<defs>
<path id="g46/TT0" d="M130.0 -6.0Q 107.0,-6.0  91.5,10.0 T 76.0,48.0 Q 76.0,70.0  91.5,86.0 T 130.0,102.0 Q 153.0,102.0  168.5,86.0 T 184.0,48.0 Q 184.0,26.0  168.5,10.0 T 130.0,-6.0 Z">
</path>
</defs>
<use x="2940.0" y="0" xlink:href="#g46/TT0"/>
<use x="3200.0" y="0" xlink:href="#g46/TT0"/>
<use x="3460.0" y="0" xlink:href="#g46/TT0"/>
</g>
<text id="Text_71" x="45.0" y="243.62" font-size="9.0pt" font-family="Avenir Next" fill="#b0b8c3" text-anchor="end" opacity="0">
 27Mar...</text>
<g fill="#b0b8c3" stroke="#b0b8c3" transform="translate(0.36 268.26) scale(0.012 -0.012)">
<use x="0" y="0" xlink:href="#g50/TT0"/>
<use x="580.0" y="0" xlink:href="#g54/TT0"/>
<use x="1160.0" y="0" xlink:href="#g77/TT0"/>
<use x="2046.0" y="0" xlink:href="#g97/TT0"/>
<use x="2580.0" y="0" xlink:href="#g114/TT0"/>
<use x="2940.0" y="0" xlink:href="#g46/TT0"/>
<use x="3200.0" y="0" xlink:href="#g46/TT0"/>
<use x="3460.0" y="0" xlink:href="#g46/TT0"/>
</g>
<text id="Text_72" x="45.0" y="268.26" font-size="9.0pt" font-family="Avenir Next" fill="#b0b8c3" text-anchor="end" opacity="0">
 26Mar...</text>
<g fill="#b0b8c3" stroke="#b0b8c3" transform="translate(0.36 292.89) scale(0.012 -0.012)">
<use x="0" y="0" xlink:href="#g50/TT0"/>
<use x="580.0" y="0" xlink:href="#g53/TT0"/>
<use x="1160.0" y="0" xlink:href="#g77/TT0"/>
<use x="2046.0" y="0" xlink:href="#g97/TT0"/>
<use x="2580.0" y="0" xlink:href="#g114/TT0"/>
<use x="2940.0" y="0" xlink:href="#g46/TT0"/>
<use x="3200.0" y="0" xlink:href="#g46/TT0"/>
<use x="3460.0" y="0" xlink:href="#g46/TT0"/>
</g>
<text id="Text_73" x="45.0" y="292.89" font-size="9.0pt" font-family="Avenir Next" fill="#b0b8c3" text-anchor="end" opacity="0">
 25Mar...</text>
<g fill="#b0b8c3" stroke="#b0b8c3" transform="translate(0.36 317.53) scale(0.012 -0.012)">
<use x="0" y="0" xlink:href="#g50/TT0"/>
<use x="580.0" y="0" xlink:href="#g52/TT0"/>
<use x="1160.0" y="0" xlink:href="#g77/TT0"/>
<use x="2046.0" y="0" xlink:href="#g97/TT0"/>
<use x="2580.0" y="0" xlink:href="#g114/TT0"/>
<use x="2940.0" y="0" xlink:href="#g46/TT0"/>
<use x="3200.0" y="0" xlink:href="#g46/TT0"/>
<use x="3460.0" y="0" xlink:href="#g46/TT0"/>
</g>
<text id="Text_74" x="45.0" y="317.53" font-size="9.0pt" font-family="Avenir Next" fill="#b0b8c3" text-anchor="end" opacity="0">
 24Mar...</text>
<g fill="#b0b8c3" stroke="#b0b8c3" transform="translate(0.36 342.17) scale(0.012 -0.012)">
<use x="0" y="0" xlink:href="#g50/TT0"/>
<use x="580.0" y="0" xlink:href="#g51/TT0"/>
<use x="1160.0" y="0" xlink:href="#g77/TT0"/>
<use x="2046.0" y="0" xlink:href="#g97/TT0"/>
<use x="2580.0" y="0" xlink:href="#g114/TT0"/>
<use x="2940.0" y="0" xlink:href="#g46/TT0"/>
<use x="3200.0" y="0" xlink:href="#g46/TT0"/>
<use x="3460.0" y="0" xlink:href="#g46/TT0"/>
</g>
<text id="Text_75" x="45.0" y="342.17" font-size="9.0pt" font-family="Avenir Next" fill="#b0b8c3" text-anchor="end" opacity="0">
 23Mar...</text>
<g fill="#b0b8c3" stroke="#b0b8c3" transform="translate(0.36 366.8) scale(0.012 -0.012)">
<use x="0" y="0" xlink:href="#g50/TT0"/>
<use x="580.0" y="0" xlink:href="#g50/TT0"/>
<use x="1160.0" y="0" xlink:href="#g77/TT0"/>
<use x="2046.0" y="0" xlink:href="#g97/TT0"/>
<use x="2580.0" y="0" xlink:href="#g114/TT0"/>
<use x="2940.0" y="0" xlink:href="#g46/TT0"/>
<use x="3200.0" y="0" xlink:href="#g46/TT0"/>
<use x="3460.0" y="0" xlink:href="#g46/TT0"/>
</g>
<text id="Text_76" x="45.0" y="366.8" font-size="9.0pt" font-family="Avenir Next" fill="#b0b8c3" text-anchor="end" opacity="0">
 22Mar...</text>
<g fill="#b0b8c3" stroke="#b0b8c3" transform="translate(0.36 391.44) scale(0.012 -0.012)">
<use x="0" y="0" xlink:href="#g50/TT0"/>
<use x="580.0" y="0" xlink:href="#g49/TT0"/>
<use x="1160.0" y="0" xlink:href="#g77/TT0"/>
<use x="2046.0" y="0" xlink:href="#g97/TT0"/>
<use x="2580.0" y="0" xlink:href="#g114/TT0"/>
<use x="2940.0" y="0" xlink:href="#g46/TT0"/>
<use x="3200.0" y="0" xlink:href="#g46/TT0"/>
<use x="3460.0" y="0" xlink:href="#g46/TT0"/>
</g>
<text id="Text_77" x="45.0" y="391.44" font-size="9.0pt" font-family="Avenir Next" fill="#b0b8c3" text-anchor="end" opacity="0">
 21Mar...</text>
<g fill="#b0b8c3" stroke="#b0b8c3" transform="translate(0.36 416.07) scale(0.012 -0.012)">
<use x="0" y="0" xlink:href="#g50/TT0"/>
<use x="580.0" y="0" xlink:href="#g48/TT0"/>
<use x="1160.0" y="0" xlink:href="#g77/TT0"/>
<use x="2046.0" y="0" xlink:href="#g97/TT0"/>
<use x="2580.0" y="0" xlink:href="#g114/TT0"/>
<use x="2940.0" y="0" xlink:href="#g46/TT0"/>
<use x="3200.0" y="0" xlink:href="#g46/TT0"/>
<use x="3460.0" y="0" xlink:href="#g46/TT0"/>
</g>
<text id="Text_78" x="45.0" y="416.07" font-size="9.0pt" font-family="Avenir Next" fill="#b0b8c3" text-anchor="end" opacity="0">
 20Mar...</text>
<g fill="#b0b8c3" stroke="#b0b8c3" transform="translate(0.36 440.71) scale(0.012 -0.012)">
<use x="0" y="0" xlink:href="#g49/TT0"/>
<use x="580.0" y="0" xlink:href="#g57/TT0"/>
<use x="1160.0" y="0" xlink:href="#g77/TT0"/>
<use x="2046.0" y="0" xlink:href="#g97/TT0"/>
<use x="2580.0" y="0" xlink:href="#g114/TT0"/>
<use x="2940.0" y="0" xlink:href="#g46/TT0"/>
<use x="3200.0" y="0" xlink:href="#g46/TT0"/>
<use x="3460.0" y="0" xlink:href="#g46/TT0"/>
</g>
<text id="Text_79" x="45.0" y="440.71" font-size="9.0pt" font-family="Avenir Next" fill="#b0b8c3" text-anchor="end" opacity="0">
 19Mar...</text>
<g fill="#b0b8c3" stroke="#b0b8c3" transform="translate(0.36 465.35) scale(0.012 -0.012)">
<use x="0" y="0" xlink:href="#g49/TT0"/>
<use x="580.0" y="0" xlink:href="#g56/TT0"/>
<use x="1160.0" y="0" xlink:href="#g77/TT0"/>
<use x="2046.0" y="0" xlink:href="#g97/TT0"/>
<use x="2580.0" y="0" xlink:href="#g114/TT0"/>
<use x="2940.0" y="0" xlink:href="#g46/TT0"/>
<use x="3200.0" y="0" xlink:href="#g46/TT0"/>
<use x="3460.0" y="0" xlink:href="#g46/TT0"/>
</g>
<text id="Text_80" x="45.0" y="465.35" font-size="9.0pt" font-family="Avenir Next" fill="#b0b8c3" text-anchor="end" opacity="0">
 18Mar...</text>
<g fill="#b0b8c3" stroke="#b0b8c3" transform="translate(0.36 489.98) scale(0.012 -0.012)">
<use x="0" y="0" xlink:href="#g49/TT0"/>
<use x="580.0" y="0" xlink:href="#g55/TT0"/>
<use x="1160.0" y="0" xlink:href="#g77/TT0"/>
<use x="2046.0" y="0" xlink:href="#g97/TT0"/>
<use x="2580.0" y="0" xlink:href="#g114/TT0"/>
<use x="2940.0" y="0" xlink:href="#g46/TT0"/>
<use x="3200.0" y="0" xlink:href="#g46/TT0"/>
<use x="3460.0" y="0" xlink:href="#g46/TT0"/>
</g>
<text id="Text_81" x="45.0" y="489.98" font-size="9.0pt" font-family="Avenir Next" fill="#b0b8c3" text-anchor="end" opacity="0">
 17Mar...</text>
</g>
<path d="M56.0 239.32L50.0 239.32Z" stroke="#f9fafb" fill="none">
</path>
<path d="M56.0 263.95L50.0 263.95Z" stroke="#f9fafb" fill="none">
</path>
<path d="M56.0 288.59L50.0 288.59Z" stroke="#f9fafb" fill="none">
</path>
<path d="M56.0 313.23L50.0 313.23Z" stroke="#f9fafb" fill="none">
</path>
<path d="M56.0 337.86L50.0 337.86Z" stroke="#f9fafb" fill="none">
</path>
<path d="M56.0 362.5L50.0 362.5Z" stroke="#f9fafb" fill="none">
</path>
<path d="M56.0 387.14L50.0 387.14Z" stroke="#f9fafb" fill="none">
</path>
<path d="M56.0 411.77L50.0 411.77Z" stroke="#f9fafb" fill="none">
</path>
<path d="M56.0 436.41L50.0 436.41Z" stroke="#f9fafb" fill="none">
</path>
<path d="M56.0 461.05L50.0 461.05Z" stroke="#f9fafb" fill="none">
</path>
<path d="M56.0 485.68L50.0 485.68Z" stroke="#f9fafb" fill="none">
</path>
<path d="M56.0 498.0L56.0 227.0Z" stroke="#f9fafb" fill="none">
</path>
</g>
<g transform=" translate(16.0 -16.0)">
</g>
<g transform=" translate(16.0 -16.0)">
</g>
<g transform=" translate(16.0 -16.0)">
<rect x="47.88" y="119.88" rx="5" ry="5" width="99.12" height="102.65" fill="#103052">
</rect>
<g fill="#f9fafb" stroke="#f9fafb" transform="translate(74.44 139.47) scale(0.014 -0.014)">
<defs>
<path id="g67/TT1" d="M428.0 615.0Q 356.0,615.0  300.5,581.0 T 214.0,488.0 T 183.0,356.0 Q 183.0,279.0  212.5,220.0 T 296.5,128.0 T 423.0,95.0 Q 478.0,95.0  522.5,117.0 T 595.0,177.0  L696.0 106.0Q 648.0,46.0  579.0,14.0 T 422.0,-18.0 Q 313.0,-18.0  227.0,29.5 T 92.5,162.0 T 44.0,356.0 Q 44.0,467.0  94.0,551.0 T 231.5,680.5 T 428.0,726.0 Q 502.0,726.0  573.5,698.5 T 685.0,618.0  L589.0 542.0Q 563.0,578.0  518.5,596.5 T 428.0,615.0 Z">
</path>
</defs>
<use x="0" y="0" xlink:href="#g67/TT1"/>
<defs>
<path id="g111/TT1" d="M305.0 494.0Q 377.0,494.0  437.0,462.5 T 531.5,373.5 T 566.0,242.0 Q 566.0,168.0  531.5,109.5 T 437.0,18.5 T 305.0,-14.0 Q 233.0,-14.0  173.0,18.5 T 78.5,109.5 T 44.0,242.0 Q 44.0,316.0  78.5,373.5 T 173.0,462.5 T 233.0,494.0 Z M305.0 86.0Q 350.0,86.0  381.5,108.5 T 428.5,167.0 T 444.0,242.0 Q 444.0,281.0  428.5,316.5 T 381.5,374.0 T 305.0,396.0 Q 260.0,396.0  228.5,374.0 T 181.5,316.5 T 166.0,242.0 Q 166.0,203.0  181.5,167.0 T 228.5,108.5 T 260.0,86.0 Z">
</path>
</defs>
<use x="696.0" y="0" xlink:href="#g111/TT1"/>
<defs>
<path id="g117/TT1" d="M396.0 0 L396.0 77.0 L394.0 77.0Q 377.0,39.0  336.5,12.5 T 245.0,-14.0 Q 157.0,-14.0  112.5,42.5 T 68.0,180.0  L68.0 480.0 L188.0 480.0 L188.0 214.0Q 188.0,86.0  278.0,86.0 Q 332.0,86.0  361.0,124.5 T 390.0,216.0  L390.0 480.0 L510.0 480.0 L510.0 0 L396.0 0Z">
</path>
</defs>
<use x="1306.0" y="0" xlink:href="#g117/TT1"/>
<defs>
<path id="g110/TT1" d="M186.0 480.0 L186.0 403.0 L188.0 403.0Q 205.0,441.0  245.5,467.5 T 337.0,494.0 Q 425.0,494.0  469.5,437.5 T 514.0,300.0  L514.0 0 L394.0 0 L394.0 266.0Q 394.0,394.0  304.0,394.0 Q 250.0,394.0  221.0,355.5 T 192.0,264.0  L192.0 0 L72.0 0 L72.0 480.0 L186.0 480.0Z">
</path>
</defs>
<use x="1888.0" y="0" xlink:href="#g110/TT1"/>
<defs>
<path id="g116/TT1" d="M3.0 480.0 L87.0 480.0 L87.0 619.0 L205.0 619.0 L205.0 480.0 L325.0 480.0 L325.0 384.0 L205.0 384.0 L205.0 161.0Q 205.0,125.0  218.0,106.0 T 268.0,87.0 Q 299.0,87.0  319.0,97.0  L323.0 3.0Q 289.0,-10.0  243.0,-10.0 Q 155.0,-10.0  121.0,35.5 T 87.0,160.0  L87.0 384.0 L3.0 384.0 L3.0 480.0Z">
</path>
</defs>
<use x="2470.0" y="0" xlink:href="#g116/TT1"/>
<defs>
<path id="g121/TT1" d="M133.0 480.0 L267.0 131.0 L269.0 131.0 L388.0 480.0 L513.0 480.0 L286.0 -103.0Q 258.0,-174.0  218.5,-207.0 T 104.0,-240.0 Q 71.0,-240.0  42.0,-233.0  L52.0 -129.0Q 74.0,-136.0  97.0,-136.0 Q 133.0,-136.0  149.0,-119.5 T 182.0,-61.0  L206.0 0 L0 480.0 L133.0 480.0Z">
</path>
</defs>
<use x="2810.0" y="0" xlink:href="#g121/TT1"/>
</g>
<text id="Text_7" x="97.44" y="139.47" font-size="10.5pt" font-family="Avenir Next" font-weight="bold" fill="#f9fafb" text-anchor="middle" opacity="0">
 County</text>
<defs>
<linearGradient id="gradient0" x1="0%" y1="100%" x2="0%" y2="0%">
<stop offset="0%" stop-color="#2470ad" stop-opacity="1.0">
</stop>
<stop offset="100%" stop-color="#2470ad" stop-opacity="1.0">
</stop>
</linearGradient>
</defs>
<rect x="53.88" y="145.88" width="9.0" height="9.0" fill="url(#gradient0)">
</rect>
<g fill="#b0b8c3" stroke="#b0b8c3" transform="translate(66.88 154.68) scale(0.012 -0.012)">
<defs>
<path id="g67/TT0" d="M425.0 -18.0Q 319.0,-18.0  235.0,30.0 T 103.5,163.0 T 56.0,354.0 Q 56.0,460.0  104.0,545.0 T 236.5,678.0 T 425.0,726.0 Q 503.0,726.0  571.5,695.5 T 677.0,614.0  L617.0 570.0Q 592.0,608.0  540.5,635.5 T 426.0,663.0 Q 337.0,663.0  270.5,621.0 T 168.0,508.0 T 132.0,354.0 Q 132.0,271.0  168.0,200.0 T 271.0,87.0 T 426.0,45.0 Q 490.0,45.0  544.5,71.0 T 634.0,150.0  L690.0 114.0Q 652.0,56.0  583.5,19.0 T 425.0,-18.0 Z">
</path>
</defs>
<use x="0" y="0" xlink:href="#g67/TT0"/>
<defs>
<path id="g79/TT0" d="M425.0 -18.0Q 321.0,-18.0  236.5,30.0 T 104.0,163.0 T 56.0,354.0 Q 56.0,460.0  104.0,545.0 T 236.5,678.0 T 425.0,726.0 Q 529.0,726.0  613.5,678.0 T 746.0,545.0 T 794.0,354.0 Q 794.0,248.0  746.0,163.0 T 613.5,30.0 T 529.0,-18.0 Z M425.0 663.0Q 337.0,663.0  270.5,621.0 T 168.0,508.0 T 132.0,354.0 Q 132.0,271.0  168.0,200.5 T 270.5,88.0 T 425.0,46.0 Q 513.0,46.0  579.5,88.0 T 682.0,200.5 T 718.0,354.0 Q 718.0,437.0  682.0,508.0 T 579.5,621.0 T 513.0,663.0 Z">
</path>
</defs>
<use x="720.0" y="0" xlink:href="#g79/TT0"/>
<defs>
<path id="g66/TT0" d="M305.0 708.0Q 401.0,708.0  467.0,666.0 T 533.0,527.0 Q 533.0,471.0  498.5,429.5 T 408.0,375.0  L408.0 373.0Q 479.0,365.0  523.5,318.0 T 568.0,196.0 Q 568.0,137.0  536.0,93.0 T 444.0,24.5 T 304.0,0  L94.0 0 L94.0 708.0 L305.0 708.0Z M311.0 398.0Q 372.0,398.0  416.5,428.0 T 461.0,522.0 Q 461.0,586.0  414.0,616.0 T 291.0,646.0  L166.0 646.0 L166.0 398.0 L311.0 398.0Z M300.0 62.0Q 385.0,62.0  440.0,96.0 T 495.0,200.0 Q 495.0,269.0  448.0,304.0 T 313.0,339.0  L166.0 339.0 L166.0 62.0 L300.0 62.0Z">
</path>
</defs>
<use x="1570.0" y="0" xlink:href="#g66/TT0"/>
<use x="2206.0" y="0" xlink:href="#g66/TT0"/>
</g>
<text x="66.88" y="154.68" font-size="9.0pt" font-family="Avenir Next" fill="#b0b8c3" text-anchor="start" opacity="0">
 COBB</text>
<defs>
<linearGradient id="gradient1" x1="0%" y1="100%" x2="0%" y2="0%">
<stop offset="0%" stop-color="#98863c" stop-opacity="1.0">
</stop>
<stop offset="100%" stop-color="#98863c" stop-opacity="1.0">
</stop>
</linearGradient>
</defs>
<rect x="53.88" y="160.58" width="9.0" height="9.0" fill="url(#gradient1)">
</rect>
<g fill="#b0b8c3" stroke="#b0b8c3" transform="translate(66.88 169.38) scale(0.012 -0.012)">
<defs>
<path id="g68/TT0" d="M329.0 708.0Q 421.0,708.0  507.0,667.5 T 647.0,546.5 T 701.0,354.0 Q 701.0,242.0  647.0,161.5 T 507.0,40.5 T 329.0,0  L94.0 0 L94.0 708.0 L329.0 708.0Z M309.0 64.0Q 411.0,64.0  482.5,105.0 T 589.5,212.0 T 625.0,354.0 Q 625.0,430.0  589.5,496.0 T 482.5,603.0 T 309.0,644.0  L166.0 644.0 L166.0 64.0 L309.0 64.0Z">
</path>
</defs>
<use x="0" y="0" xlink:href="#g68/TT0"/>
<defs>
<path id="g69/TT0" d="M166.0 64.0 L545.0 64.0 L545.0 0 L94.0 0 L94.0 708.0 L533.0 708.0 L533.0 644.0 L166.0 644.0 L166.0 400.0 L509.0 400.0 L509.0 337.0 L166.0 337.0 L166.0 64.0Z">
</path>
</defs>
<use x="757.0" y="0" xlink:href="#g69/TT0"/>
<defs>
<path id="g75/TT0" d="M166.0 390.0 L167.0 390.0 L504.0 708.0 L607.0 708.0 L250.0 387.0 L627.0 0 L521.0 0 L167.0 377.0 L166.0 377.0 L166.0 0 L94.0 0 L94.0 708.0 L166.0 708.0 L166.0 390.0Z">
</path>
</defs>
<use x="1349.0" y="0" xlink:href="#g75/TT0"/>
<defs>
<path id="g65/TT0" d="M89.0 0 L10.0 0 L316.0 708.0 L386.0 708.0 L690.0 0 L610.0 0 L532.0 186.0 L166.0 186.0 L89.0 0Z M193.0 252.0 L505.0 252.0 L349.0 628.0 L193.0 252.0Z">
</path>
</defs>
<use x="1977.0" y="0" xlink:href="#g65/TT0"/>
<defs>
<path id="g76/TT0" d="M166.0 64.0 L496.0 64.0 L496.0 0 L94.0 0 L94.0 708.0 L166.0 708.0 L166.0 64.0Z">
</path>
</defs>
<use x="2677.0" y="0" xlink:href="#g76/TT0"/>
<use x="3187.0" y="0" xlink:href="#g66/TT0"/>
</g>
<text x="66.88" y="169.38" font-size="9.0pt" font-family="Avenir Next" fill="#b0b8c3" text-anchor="start" opacity="0">
 DEKALB</text>
<defs>
<linearGradient id="gradient2" x1="0%" y1="100%" x2="0%" y2="0%">
<stop offset="0%" stop-color="#5954ad" stop-opacity="1.0">
</stop>
<stop offset="100%" stop-color="#5954ad" stop-opacity="1.0">
</stop>
</linearGradient>
</defs>
<rect x="53.88" y="175.28" width="9.0" height="9.0" fill="url(#gradient2)">
</rect>
<g fill="#b0b8c3" stroke="#b0b8c3" transform="translate(66.88 184.08) scale(0.012 -0.012)">
<use x="0" y="0" xlink:href="#g68/TT0"/>
<use x="757.0" y="0" xlink:href="#g79/TT0"/>
<defs>
<path id="g85/TT0" d="M90.0 264.0 L90.0 708.0 L162.0 708.0 L162.0 272.0Q 162.0,176.0  208.5,111.0 T 355.0,46.0 Q 455.0,46.0  501.5,111.0 T 548.0,272.0  L548.0 708.0 L620.0 708.0 L620.0 264.0Q 620.0,196.0  596.0,132.0 T 513.0,25.0 T 355.0,-18.0 Q 256.0,-18.0  197.0,25.0 T 114.0,132.0 T 90.0,196.0 Z">
</path>
</defs>
<use x="1607.0" y="0" xlink:href="#g85/TT0"/>
<defs>
<path id="g71/TT0" d="M426.0 663.0Q 338.0,663.0  271.0,621.0 T 168.0,508.0 T 132.0,354.0 Q 132.0,271.0  168.0,200.5 T 271.0,88.0 T 426.0,46.0 Q 484.0,46.0  534.5,58.5 T 617.0,92.0  L617.0 307.0 L452.0 307.0 L452.0 370.0 L689.0 370.0 L689.0 51.0Q 574.0,-18.0  425.0,-18.0 Q 319.0,-18.0  235.0,30.0 T 103.5,163.0 T 56.0,354.0 Q 56.0,460.0  104.0,545.0 T 236.5,678.0 T 425.0,726.0 Q 584.0,726.0  681.0,631.0  L631.0 581.0Q 554.0,663.0  426.0,663.0 Z">
</path>
</defs>
<use x="2317.0" y="0" xlink:href="#g71/TT0"/>
<defs>
<path id="g72/TT0" d="M94.0 708.0 L166.0 708.0 L166.0 401.0 L552.0 401.0 L552.0 708.0 L624.0 708.0 L624.0 0 L552.0 0 L552.0 335.0 L166.0 335.0 L166.0 0 L94.0 0 L94.0 708.0Z">
</path>
</defs>
<use x="3096.0" y="0" xlink:href="#g72/TT0"/>
<use x="3814.0" y="0" xlink:href="#g69/TT0"/>
<defs>
<path id="g82/TT0" d="M94.0 0 L94.0 708.0 L302.0 708.0Q 414.0,708.0  479.0,662.5 T 544.0,519.0 Q 544.0,442.0  493.5,394.0 T 363.0,337.0  L570.0 0 L482.0 0 L286.0 331.0 L166.0 331.0 L166.0 0 L94.0 0Z M291.0 393.0Q 378.0,393.0  425.0,425.0 T 472.0,519.0 Q 472.0,646.0  294.0,646.0  L166.0 646.0 L166.0 393.0 L291.0 393.0Z">
</path>
</defs>
<use x="4406.0" y="0" xlink:href="#g82/TT0"/>
<use x="5005.0" y="0" xlink:href="#g84/TT0"/>
<defs>
<path id="g89/TT0" d="M337.0 0 L265.0 0 L265.0 305.0 L0 708.0 L90.0 708.0 L303.0 365.0 L518.0 708.0 L602.0 708.0 L337.0 305.0 L337.0 0Z">
</path>
</defs>
<use x="5575.0" y="0" xlink:href="#g89/TT0"/>
</g>
<text x="66.88" y="184.08" font-size="9.0pt" font-family="Avenir Next" fill="#b0b8c3" text-anchor="start" opacity="0">
 DOUGHERTY</text>
<defs>
<linearGradient id="gradient3" x1="0%" y1="100%" x2="0%" y2="0%">
<stop offset="0%" stop-color="#985b30" stop-opacity="1.0">
</stop>
<stop offset="100%" stop-color="#985b30" stop-opacity="1.0">
</stop>
</linearGradient>
</defs>
<rect x="53.88" y="189.98" width="9.0" height="9.0" fill="url(#gradient3)">
</rect>
<g fill="#b0b8c3" stroke="#b0b8c3" transform="translate(66.88 198.78) scale(0.012 -0.012)">
<defs>
<path id="g70/TT0" d="M166.0 0 L94.0 0 L94.0 708.0 L521.0 708.0 L521.0 644.0 L166.0 644.0 L166.0 398.0 L496.0 398.0 L496.0 335.0 L166.0 335.0 L166.0 0Z">
</path>
</defs>
<use x="0" y="0" xlink:href="#g70/TT0"/>
<use x="562.0" y="0" xlink:href="#g85/TT0"/>
<use x="1272.0" y="0" xlink:href="#g76/TT0"/>
<use x="1782.0" y="0" xlink:href="#g84/TT0"/>
<use x="2352.0" y="0" xlink:href="#g79/TT0"/>
<defs>
<path id="g78/TT0" d="M596.0 105.0 L598.0 105.0 L598.0 708.0 L670.0 708.0 L670.0 0 L580.0 0 L168.0 609.0 L166.0 609.0 L166.0 0 L94.0 0 L94.0 708.0 L184.0 708.0 L596.0 105.0Z">
</path>
</defs>
<use x="3202.0" y="0" xlink:href="#g78/TT0"/>
</g>
<text x="66.88" y="198.78" font-size="9.0pt" font-family="Avenir Next" fill="#b0b8c3" text-anchor="start" opacity="0">
 FULTON</text>
<defs>
<linearGradient id="gradient4" x1="0%" y1="100%" x2="0%" y2="0%">
<stop offset="0%" stop-color="#238a92" stop-opacity="1.0">
</stop>
<stop offset="100%" stop-color="#238a92" stop-opacity="1.0">
</stop>
</linearGradient>
</defs>
<rect x="53.88" y="204.68" width="9.0" height="9.0" fill="url(#gradient4)">
</rect>
<g fill="#b0b8c3" stroke="#b0b8c3" transform="translate(66.88 213.48) scale(0.012 -0.012)">
<use x="0" y="0" xlink:href="#g71/TT0"/>
<defs>
<path id="g87/TT0" d="M265.0 99.0 L267.0 99.0 L444.0 708.0 L530.0 708.0 L707.0 99.0 L709.0 99.0 L882.0 708.0 L958.0 708.0 L749.0 0 L665.0 0 L487.0 608.0 L485.0 608.0 L307.0 0 L223.0 0 L14.0 708.0 L90.0 708.0 L265.0 99.0Z">
</path>
</defs>
<use x="779.0" y="0" xlink:href="#g87/TT0"/>
<defs>
<path id="g73/TT0" d="M166.0 0 L94.0 0 L94.0 708.0 L166.0 708.0 L166.0 0Z">
</path>
</defs>
<use x="1751.0" y="0" xlink:href="#g73/TT0"/>
<use x="2011.0" y="0" xlink:href="#g78/TT0"/>
<use x="2775.0" y="0" xlink:href="#g78/TT0"/>
<use x="3539.0" y="0" xlink:href="#g69/TT0"/>
<use x="4131.0" y="0" xlink:href="#g84/TT0"/>
<use x="4701.0" y="0" xlink:href="#g84/TT0"/>
</g>
<text x="66.88" y="213.48" font-size="9.0pt" font-family="Avenir Next" fill="#b0b8c3" text-anchor="start" opacity="0">
 GWINNETT</text>
</g>
</g>
</svg>
