<svg xmlns="http://www.w3.org/2000/svg" xmlns:xlink="http://www.w3.org/1999/xlink" version="1.1" width="375" height="200" viewBox="0 0 375 200">
<rect x="0" y="0" width="375" height="200" fill="#103052">
</rect>
<g>
<rect x="0" y="0" rx="5" ry="5" width="375.0" height="200.0" fill="#011e33" opacity="0">
</rect>
<g transform=" translate(16.0 -16.0)">
<defs>
<clipPath id="ClipPath0">
<rect x="0" y="33" width="342" height="167">
</rect>
</clipPath>
</defs>
<g clip-path="url(#ClipPath0)">
<g fill="#f9fafb" stroke="#f9fafb" transform="translate(51.0 74.94) scale(0.031 -0.031)">
<defs>
<path id="g67/TT0" d="M428.0 615.0Q 356.0,615.0  300.5,581.0 T 214.0,488.0 T 183.0,356.0 Q 183.0,279.0  212.5,220.0 T 296.5,128.0 T 423.0,95.0 Q 478.0,95.0  522.5,117.0 T 595.0,177.0  L696.0 106.0Q 648.0,46.0  579.0,14.0 T 422.0,-18.0 Q 313.0,-18.0  227.0,29.5 T 92.5,162.0 T 44.0,356.0 Q 44.0,467.0  94.0,551.0 T 231.5,680.5 T 428.0,726.0 Q 502.0,726.0  573.5,698.5 T 685.0,618.0  L589.0 542.0Q 563.0,578.0  518.5,596.5 T 428.0,615.0 Z">
</path>
</defs>
<use x="0" y="0" xlink:href="#g67/TT0"/>
<defs>
<path id="g79/TT0" d="M423.0 726.0Q 533.0,726.0  620.0,680.5 T 756.0,551.0 T 805.0,356.0 Q 805.0,247.0  756.0,162.0 T 619.5,29.5 T 423.0,-18.0 Q 315.0,-18.0  228.5,29.5 T 93.0,162.0 T 44.0,356.0 Q 44.0,467.0  93.0,551.0 T 228.0,680.5 T 314.0,726.0 Z M424.0 95.0Q 495.0,95.0  550.5,128.5 T 637.0,221.5 T 668.0,356.0 Q 668.0,429.0  637.5,488.0 T 551.5,581.0 T 424.0,615.0 Q 353.0,615.0  297.5,581.0 T 211.5,488.0 T 181.0,356.0 Q 181.0,281.0  212.0,221.5 T 298.0,128.5 T 353.0,95.0 Z">
</path>
</defs>
<use x="696.0" y="0" xlink:href="#g79/TT0"/>
<defs>
<path id="g86/TT0" d="M-10.0 708.0 L131.0 708.0 L326.0 163.0 L330.0 163.0 L527.0 708.0 L663.0 708.0 L379.0 0 L270.0 0 L-10.0 708.0Z">
</path>
</defs>
<use x="1545.0" y="0" xlink:href="#g86/TT0"/>
<defs>
<path id="g73/TT0" d="M78.0 708.0 L204.0 708.0 L204.0 0 L78.0 0 L78.0 708.0Z">
</path>
</defs>
<use x="2198.0" y="0" xlink:href="#g73/TT0"/>
<defs>
<path id="g68/TT0" d="M329.0 708.0Q 430.0,708.0  518.5,673.0 T 663.5,558.5 T 720.0,354.0 Q 720.0,237.0  663.0,157.0 T 516.5,38.5 T 329.0,0  L78.0 0 L78.0 708.0 L329.0 708.0Z M585.0 354.0Q 585.0,492.0  506.0,546.0 T 309.0,600.0  L204.0 600.0 L204.0 110.0 L309.0 110.0Q 424.0,110.0  504.5,166.5 T 585.0,354.0 Z">
</path>
</defs>
<use x="2480.0" y="0" xlink:href="#g68/TT0"/>
<defs>
<path id="g45/TT0" d="M280.0 195.0 L40.0 195.0 L40.0 297.0 L280.0 297.0 L280.0 195.0Z">
</path>
</defs>
<use x="3244.0" y="0" xlink:href="#g45/TT0"/>
<defs>
<path id="g49/TT0" d="M279.0 562.0 L139.0 447.0 L69.0 530.0 L290.0 708.0 L399.0 708.0 L399.0 0 L279.0 0 L279.0 562.0Z">
</path>
</defs>
<use x="3564.0" y="0" xlink:href="#g49/TT0"/>
<defs>
<path id="g57/TT0" d="M350.0 263.0 L349.0 264.0Q 335.0,258.0  314.0,254.5 T 273.0,251.0 Q 211.0,251.0  159.5,281.0 T 77.5,363.0 T 47.0,478.0 Q 47.0,551.0  81.0,607.5 T 174.0,695.0 T 305.0,726.0 Q 378.0,726.0  437.0,694.0 T 530.0,606.5 T 564.0,483.0 Q 564.0,426.0  546.5,380.5 T 491.0,274.0  L314.0 0 L168.0 0 L350.0 263.0Z M306.0 626.0Q 245.0,626.0  207.5,586.5 T 170.0,484.0 Q 170.0,424.0  207.0,385.0 T 304.0,346.0 Q 365.0,346.0  403.5,385.0 T 442.0,486.0 Q 442.0,523.0  425.0,555.0 T 377.0,606.5 T 346.0,626.0 Z">
</path>
</defs>
<use x="4174.0" y="0" xlink:href="#g57/TT0"/>
<use x="4784.0" y="0" xlink:href="#g32/TT0"/>
<use x="5034.0" y="0" xlink:href="#g67/TT0"/>
<defs>
<path id="g97/TT0" d="M367.0 61.0Q 349.0,29.0  308.5,8.5 T 218.0,-12.0 Q 175.0,-12.0  134.0,3.0 T 65.5,51.5 T 38.0,137.0 Q 38.0,233.0  131.0,266.5 T 368.0,300.0  L368.0 312.0Q 368.0,354.0  337.0,377.0 T 258.0,400.0 Q 221.0,400.0  186.0,384.5 T 127.0,345.0  L65.0 418.0Q 105.0,455.0  158.5,474.5 T 268.0,494.0 Q 385.0,494.0  433.5,436.0 T 482.0,292.0  L482.0 0 L370.0 0 L370.0 61.0 L367.0 61.0Z M341.0 219.0Q 158.0,219.0  158.0,139.0 Q 158.0,107.0  182.5,93.0 T 242.0,79.0 Q 303.0,79.0  335.5,111.5 T 368.0,202.0  L368.0 219.0 L341.0 219.0Z">
</path>
</defs>
<use x="5730.0" y="0" xlink:href="#g97/TT0"/>
<defs>
<path id="g115/TT0" d="M230.0 404.0Q 198.0,404.0  175.5,391.0 T 153.0,352.0 Q 153.0,327.0  176.0,315.0 T 257.0,289.0 Q 325.0,273.0  368.5,241.0 T 412.0,146.0 Q 412.0,64.0  355.5,25.0 T 212.0,-14.0 Q 155.0,-14.0  102.0,7.0 T 15.0,65.0  L94.0 139.0Q 114.0,112.0  146.5,95.5 T 217.0,79.0 Q 248.0,79.0  271.0,93.0 T 294.0,136.0 Q 294.0,164.0  269.5,177.5 T 184.0,205.0 Q 119.0,221.0  80.5,250.5 T 42.0,341.0 Q 42.0,416.0  98.0,455.0 T 233.0,494.0 Q 287.0,494.0  336.0,475.0 T 413.0,421.0  L335.0 352.0Q 318.0,374.0  290.0,389.0 T 230.0,404.0 Z">
</path>
</defs>
<use x="6280.0" y="0" xlink:href="#g115/TT0"/>
<defs>
<path id="g101/TT0" d="M529.0 202.0 L164.0 202.0Q 168.0,152.0  208.0,118.0 T 301.0,84.0 Q 384.0,84.0  428.0,146.0  L508.0 82.0Q 437.0,-14.0  302.0,-14.0 Q 228.0,-14.0  169.5,16.5 T 77.5,104.0 T 44.0,237.0 Q 44.0,313.0  77.0,371.5 T 168.0,462.0 T 298.0,494.0 Q 402.0,494.0  466.0,427.0 T 530.0,234.0 Q 530.0,213.0  529.0,202.0 Z M297.0 404.0Q 244.0,404.0  206.0,371.0 T 164.0,288.0  L410.0 288.0Q 410.0,338.0  381.0,371.0 T 297.0,404.0 Z">
</path>
</defs>
<use x="6724.0" y="0" xlink:href="#g101/TT0"/>
<use x="7298.0" y="0" xlink:href="#g115/TT0"/>
</g>
<text id="Text_6" x="171.0" y="74.94" font-size="23.3pt" font-family="Avenir Next" font-weight="bold" fill="#f9fafb" text-anchor="middle" opacity="0">
 COVID-19 Cases</text>
<g fill="#b14c51" stroke="#b14c51" transform="translate(67.0 166.32) scale(0.086 -0.086)">
<defs>
<path id="g50/TT0" d="M342.0 378.0Q 378.0,413.0  396.0,445.5 T 414.0,517.0 Q 414.0,566.0  382.0,596.0 T 301.0,626.0 Q 251.0,626.0  219.5,592.5 T 181.0,505.0  L64.0 523.0Q 71.0,581.0  103.0,627.5 T 187.0,700.0 T 303.0,726.0 Q 366.0,726.0  420.0,702.0 T 506.5,631.0 T 539.0,519.0 Q 539.0,456.0  509.5,406.5 T 425.0,305.0  L221.0 110.0 L540.0 110.0 L540.0 0 L69.0 0 L69.0 110.0 L342.0 378.0Z">
</path>
</defs>
<use x="0" y="0" xlink:href="#g50/TT0"/>
<use x="610.0" y="0" xlink:href="#g49/TT0"/>
<defs>
<path id="g48/TT0" d="M306.0 -18.0Q 186.0,-18.0  120.5,81.0 T 55.0,354.0 Q 55.0,528.0  120.5,627.0 T 306.0,726.0 Q 425.0,726.0  490.0,627.0 T 555.0,354.0 Q 555.0,180.0  490.0,81.0 T 306.0,-18.0 Z M306.0 626.0Q 234.0,626.0  206.0,541.0 T 178.0,354.0 Q 178.0,252.0  206.0,168.0 T 306.0,84.0 Q 377.0,84.0  404.5,167.5 T 432.0,354.0 Q 432.0,457.0  404.5,541.5 T 306.0,626.0 Z">
</path>
</defs>
<use x="1220.0" y="0" xlink:href="#g48/TT0"/>
<use x="1830.0" y="0" xlink:href="#g50/TT0"/>
</g>
<text id="Text_7" x="171.0" y="166.32" font-size="64.5pt" font-family="Avenir Next" font-weight="bold" fill="#b14c51" text-anchor="middle" opacity="0">
 2102</text>
</g>
</g>
<g transform=" translate(16.0 -16.0)">
</g>
<g transform=" translate(16.0 -16.0)">
</g>
<g transform=" translate(16.0 -16.0)">
</g>
</g>
</svg>
