<svg xmlns="http://www.w3.org/2000/svg" xmlns:xlink="http://www.w3.org/1999/xlink" version="1.1" width="375" height="200" viewBox="0 0 375 200">
<rect x="0" y="0" width="375" height="200" fill="#103052">
</rect>
<g>
<rect x="0" y="0" rx="5" ry="5" width="375.0" height="200.0" fill="#011e33" opacity="0">
</rect>
<g transform=" translate(16.0 -16.0)">
<defs>
<clipPath id="ClipPath0">
<rect x="0" y="33" width="342" height="167">
</rect>
</clipPath>
</defs>
<g clip-path="url(#ClipPath0)">
<g fill="#f9fafb" stroke="#f9fafb" transform="translate(81.0 74.94) scale(0.031 -0.031)">
<defs>
<path id="g72/TT0" d="M78.0 708.0 L204.0 708.0 L204.0 422.0 L535.0 422.0 L535.0 708.0 L661.0 708.0 L661.0 0 L535.0 0 L535.0 314.0 L204.0 314.0 L204.0 0 L78.0 0 L78.0 708.0Z">
</path>
</defs>
<use x="0" y="0" xlink:href="#g72/TT0"/>
<defs>
<path id="g111/TT0" d="M305.0 494.0Q 377.0,494.0  437.0,462.5 T 531.5,373.5 T 566.0,242.0 Q 566.0,168.0  531.5,109.5 T 437.0,18.5 T 305.0,-14.0 Q 233.0,-14.0  173.0,18.5 T 78.5,109.5 T 44.0,242.0 Q 44.0,316.0  78.5,373.5 T 173.0,462.5 T 233.0,494.0 Z M305.0 86.0Q 350.0,86.0  381.5,108.5 T 428.5,167.0 T 444.0,242.0 Q 444.0,281.0  428.5,316.5 T 381.5,374.0 T 305.0,396.0 Q 260.0,396.0  228.5,374.0 T 181.5,316.5 T 166.0,242.0 Q 166.0,203.0  181.5,167.0 T 228.5,108.5 T 260.0,86.0 Z">
</path>
</defs>
<use x="739.0" y="0" xlink:href="#g111/TT0"/>
<defs>
<path id="g115/TT0" d="M230.0 404.0Q 198.0,404.0  175.5,391.0 T 153.0,352.0 Q 153.0,327.0  176.0,315.0 T 257.0,289.0 Q 325.0,273.0  368.5,241.0 T 412.0,146.0 Q 412.0,64.0  355.5,25.0 T 212.0,-14.0 Q 155.0,-14.0  102.0,7.0 T 15.0,65.0  L94.0 139.0Q 114.0,112.0  146.5,95.5 T 217.0,79.0 Q 248.0,79.0  271.0,93.0 T 294.0,136.0 Q 294.0,164.0  269.5,177.5 T 184.0,205.0 Q 119.0,221.0  80.5,250.5 T 42.0,341.0 Q 42.0,416.0  98.0,455.0 T 233.0,494.0 Q 287.0,494.0  336.0,475.0 T 413.0,421.0  L335.0 352.0Q 318.0,374.0  290.0,389.0 T 230.0,404.0 Z">
</path>
</defs>
<use x="1349.0" y="0" xlink:href="#g115/TT0"/>
<defs>
<path id="g112/TT0" d="M187.0 413.0 L190.0 413.0Q 211.0,446.0  253.5,470.0 T 356.0,494.0 Q 423.0,494.0  476.0,461.0 T 559.0,370.0 T 589.0,242.0 Q 589.0,172.0  560.0,113.5 T 477.5,20.5 T 353.0,-14.0 Q 303.0,-14.0  260.0,7.0 T 194.0,64.0  L192.0 64.0 L192.0 -240.0 L72.0 -240.0 L72.0 480.0 L187.0 480.0 L187.0 413.0Z M329.0 396.0Q 287.0,396.0  255.0,373.5 T 205.5,314.5 T 188.0,240.0 Q 188.0,202.0  205.5,166.5 T 255.0,108.5 T 329.0,86.0 Q 373.0,86.0  404.5,108.5 T 451.5,167.0 T 467.0,242.0 Q 467.0,281.0  451.5,316.5 T 404.5,374.0 T 373.0,396.0 Z">
</path>
</defs>
<use x="1793.0" y="0" xlink:href="#g112/TT0"/>
<defs>
<path id="g105/TT0" d="M133.0 715.0Q 166.0,715.0  188.5,694.5 T 211.0,643.0 Q 211.0,612.0  188.5,591.5 T 133.0,571.0 Q 101.0,571.0  79.0,592.5 T 57.0,643.0 Q 57.0,672.0  79.0,693.5 T 133.0,715.0 Z M74.0 480.0 L194.0 480.0 L194.0 0 L74.0 0 L74.0 480.0Z">
</path>
</defs>
<use x="2426.0" y="0" xlink:href="#g105/TT0"/>
<defs>
<path id="g116/TT0" d="M3.0 480.0 L87.0 480.0 L87.0 619.0 L205.0 619.0 L205.0 480.0 L325.0 480.0 L325.0 384.0 L205.0 384.0 L205.0 161.0Q 205.0,125.0  218.0,106.0 T 268.0,87.0 Q 299.0,87.0  319.0,97.0  L323.0 3.0Q 289.0,-10.0  243.0,-10.0 Q 155.0,-10.0  121.0,35.5 T 87.0,160.0  L87.0 384.0 L3.0 384.0 L3.0 480.0Z">
</path>
</defs>
<use x="2694.0" y="0" xlink:href="#g116/TT0"/>
<defs>
<path id="g97/TT0" d="M367.0 61.0Q 349.0,29.0  308.5,8.5 T 218.0,-12.0 Q 175.0,-12.0  134.0,3.0 T 65.5,51.5 T 38.0,137.0 Q 38.0,233.0  131.0,266.5 T 368.0,300.0  L368.0 312.0Q 368.0,354.0  337.0,377.0 T 258.0,400.0 Q 221.0,400.0  186.0,384.5 T 127.0,345.0  L65.0 418.0Q 105.0,455.0  158.5,474.5 T 268.0,494.0 Q 385.0,494.0  433.5,436.0 T 482.0,292.0  L482.0 0 L370.0 0 L370.0 61.0 L367.0 61.0Z M341.0 219.0Q 158.0,219.0  158.0,139.0 Q 158.0,107.0  182.5,93.0 T 242.0,79.0 Q 303.0,79.0  335.5,111.5 T 368.0,202.0  L368.0 219.0 L341.0 219.0Z">
</path>
</defs>
<use x="3034.0" y="0" xlink:href="#g97/TT0"/>
<defs>
<path id="g108/TT0" d="M74.0 756.0 L194.0 756.0 L194.0 0 L74.0 0 L74.0 756.0Z">
</path>
</defs>
<use x="3584.0" y="0" xlink:href="#g108/TT0"/>
<use x="3852.0" y="0" xlink:href="#g105/TT0"/>
<defs>
<path id="g122/TT0" d="M34.0 106.0 L293.0 384.0 L46.0 384.0 L46.0 480.0 L436.0 480.0 L436.0 374.0 L176.0 98.0 L448.0 98.0 L448.0 0 L34.0 0 L34.0 106.0Z">
</path>
</defs>
<use x="4120.0" y="0" xlink:href="#g122/TT0"/>
<defs>
<path id="g101/TT0" d="M529.0 202.0 L164.0 202.0Q 168.0,152.0  208.0,118.0 T 301.0,84.0 Q 384.0,84.0  428.0,146.0  L508.0 82.0Q 437.0,-14.0  302.0,-14.0 Q 228.0,-14.0  169.5,16.5 T 77.5,104.0 T 44.0,237.0 Q 44.0,313.0  77.0,371.5 T 168.0,462.0 T 298.0,494.0 Q 402.0,494.0  466.0,427.0 T 530.0,234.0 Q 530.0,213.0  529.0,202.0 Z M297.0 404.0Q 244.0,404.0  206.0,371.0 T 164.0,288.0  L410.0 288.0Q 410.0,338.0  381.0,371.0 T 297.0,404.0 Z">
</path>
</defs>
<use x="4602.0" y="0" xlink:href="#g101/TT0"/>
<defs>
<path id="g100/TT0" d="M446.0 0 L446.0 72.0 L444.0 72.0Q 420.0,31.0  375.0,8.5 T 279.0,-14.0 Q 208.0,-14.0  154.5,20.5 T 72.0,113.5 T 43.0,242.0 Q 43.0,312.0  73.0,370.0 T 156.0,461.0 T 276.0,494.0 Q 377.0,494.0  437.0,419.0  L440.0 419.0 L440.0 756.0 L560.0 756.0 L560.0 0 L446.0 0Z M303.0 86.0Q 345.0,86.0  377.0,108.5 T 426.5,166.5 T 444.0,240.0 Q 444.0,278.0  426.5,314.5 T 377.0,373.5 T 303.0,396.0 Q 259.0,396.0  227.5,374.0 T 180.5,316.5 T 165.0,242.0 Q 165.0,203.0  180.5,167.0 T 227.5,108.5 T 259.0,86.0 Z">
</path>
</defs>
<use x="5176.0" y="0" xlink:href="#g100/TT0"/>
</g>
<text id="Text_6" x="171.0" y="74.94" font-size="23.3pt" font-family="Avenir Next" font-weight="bold" fill="#f9fafb" text-anchor="middle" opacity="0">
 Hospitalized</text>
<g fill="#35a5ff" stroke="#35a5ff" transform="translate(93.0 166.32) scale(0.086 -0.086)">
<defs>
<path id="g53/TT0" d="M216.0 600.0 L209.0 447.0Q 242.0,456.0  292.0,456.0 Q 362.0,456.0  417.5,429.5 T 504.5,352.5 T 536.0,232.0 Q 536.0,156.0  501.5,99.0 T 408.0,12.0 T 278.0,-18.0 Q 191.0,-18.0  129.0,23.0 T 39.0,137.0  L148.0 177.0Q 163.0,135.0  198.5,109.5 T 281.0,84.0 Q 337.0,84.0  375.0,120.5 T 413.0,219.0 Q 413.0,294.0  367.5,327.0 T 255.0,360.0 Q 215.0,360.0  169.0,349.0 T 90.0,321.0  L102.0 708.0 L505.0 708.0 L505.0 600.0 L216.0 600.0Z">
</path>
</defs>
<use x="0" y="0" xlink:href="#g53/TT0"/>
<defs>
<path id="g56/TT0" d="M529.0 534.0Q 529.0,474.0  499.0,432.0 T 419.0,374.0  L419.0 372.0Q 476.0,358.0  514.0,311.0 T 552.0,200.0 Q 552.0,132.0  519.0,82.5 T 430.0,7.5 T 305.0,-18.0 Q 236.0,-18.0  180.0,7.5 T 91.0,82.5 T 58.0,200.0 Q 58.0,265.0  96.5,311.5 T 191.0,372.0  L191.0 374.0Q 141.0,392.0  111.0,431.0 T 81.0,529.0 Q 81.0,588.0  111.0,632.5 T 192.0,701.5 T 305.0,726.0 Q 367.0,726.0  418.5,702.5 T 499.5,635.5 T 529.0,592.0 Z M203.0 527.0Q 203.0,483.0  231.0,453.5 T 305.0,424.0 Q 348.0,424.0  378.0,454.0 T 408.0,527.0 Q 408.0,571.0  377.5,599.0 T 305.0,627.0 Q 260.0,627.0  231.5,599.5 T 203.0,527.0 Z M182.0 201.0Q 182.0,147.0  216.5,115.0 T 305.0,83.0 Q 358.0,83.0  392.5,115.0 T 427.0,201.0 Q 427.0,253.0  391.5,287.5 T 305.0,322.0 Q 253.0,322.0  217.5,288.0 T 182.0,201.0 Z">
</path>
</defs>
<use x="610.0" y="0" xlink:href="#g56/TT0"/>
<defs>
<path id="g55/TT0" d="M51.0 708.0 L532.0 708.0 L532.0 598.0 L249.0 0 L108.0 0 L406.0 600.0 L51.0 600.0 L51.0 708.0Z">
</path>
</defs>
<use x="1220.0" y="0" xlink:href="#g55/TT0"/>
</g>
<text id="Text_7" x="171.0" y="166.32" font-size="64.5pt" font-family="Avenir Next" font-weight="bold" fill="#35a5ff" text-anchor="middle" opacity="0">
 587</text>
</g>
</g>
<g transform=" translate(16.0 -16.0)">
</g>
<g transform=" translate(16.0 -16.0)">
</g>
<g transform=" translate(16.0 -16.0)">
</g>
</g>
</svg>
