<svg xmlns="http://www.w3.org/2000/svg" xmlns:xlink="http://www.w3.org/1999/xlink" version="1.1" width="440" height="500" viewBox="0 0 440 500">
<rect x="0" y="0" width="440" height="500" fill="#103052">
</rect>
<g>
<rect x="0" y="0" rx="5" ry="5" width="440.0" height="500.0" fill="#011e33" opacity="0">
</rect>
<g transform=" translate(16.0 -455.0)">
<g fill="#ffffff" stroke="#ffffff" transform="translate(8.15 494.0) scale(0.0236 -0.0236)">
<defs>
<path id="g65/TT0" d="M89.0 0 L10.0 0 L316.0 708.0 L386.0 708.0 L690.0 0 L610.0 0 L532.0 186.0 L166.0 186.0 L89.0 0Z M193.0 252.0 L505.0 252.0 L349.0 628.0 L193.0 252.0Z">
</path>
</defs>
<use x="0" y="0" xlink:href="#g65/TT0"/>
<defs>
<path id="g103/TT0" d="M294.0 -180.0Q 389.0,-180.0  433.0,-129.0 T 477.0,4.0  L477.0 92.0 L475.0 92.0Q 449.0,50.0  399.5,25.0 T 298.0,0 Q 226.0,0  171.0,30.5 T 86.0,115.5 T 56.0,238.0 Q 56.0,305.0  86.5,360.0 T 172.0,447.5 T 298.0,480.0 Q 351.0,480.0  399.5,455.5 T 475.0,387.0  L477.0 387.0 L477.0 468.0 L545.0 468.0 L545.0 4.0Q 545.0,-56.0  523.0,-110.5 T 444.0,-202.5 T 291.0,-240.0 Q 227.0,-240.0  167.5,-215.0 T 66.0,-146.0  L115.0 -94.0Q 144.0,-131.0  193.0,-155.5 T 294.0,-180.0 Z M305.0 58.0Q 357.0,58.0  398.0,81.0 T 462.0,145.5 T 485.0,240.0 Q 485.0,289.0  461.5,331.0 T 397.0,398.0 T 305.0,423.0 Q 250.0,423.0  210.0,398.0 T 149.0,331.5 T 128.0,240.0 Q 128.0,190.0  149.0,148.5 T 210.0,82.5 T 250.0,58.0 Z">
</path>
</defs>
<use x="700.0" y="0" xlink:href="#g103/TT0"/>
<defs>
<path id="g101/TT0" d="M515.0 216.0 L127.0 216.0Q 128.0,169.0  150.5,130.5 T 212.0,69.0 T 298.0,46.0 Q 347.0,46.0  387.0,69.5 T 448.0,127.0  L499.0 87.0Q 421.0,-12.0  298.0,-12.0 Q 229.0,-12.0  174.0,20.0 T 87.5,108.0 T 56.0,234.0 Q 56.0,303.0  87.0,359.5 T 172.0,448.0 T 292.0,480.0 Q 363.0,480.0  413.5,449.5 T 490.0,366.0 T 516.0,248.0 Q 516.0,228.0  515.0,216.0 Z M292.0 423.0Q 248.0,423.0  211.5,402.0 T 153.0,345.5 T 128.0,270.0  L447.0 270.0Q 444.0,338.0  403.5,380.5 T 292.0,423.0 Z">
</path>
</defs>
<use x="1332.0" y="0" xlink:href="#g101/TT0"/>
<use x="1904.0" y="0" xlink:href="#g32/TT0"/>
<defs>
<path id="g68/TT0" d="M329.0 708.0Q 421.0,708.0  507.0,667.5 T 647.0,546.5 T 701.0,354.0 Q 701.0,242.0  647.0,161.5 T 507.0,40.5 T 329.0,0  L94.0 0 L94.0 708.0 L329.0 708.0Z M309.0 64.0Q 411.0,64.0  482.5,105.0 T 589.5,212.0 T 625.0,354.0 Q 625.0,430.0  589.5,496.0 T 482.5,603.0 T 309.0,644.0  L166.0 644.0 L166.0 64.0 L309.0 64.0Z">
</path>
</defs>
<use x="2154.0" y="0" xlink:href="#g68/TT0"/>
<defs>
<path id="g105/TT0" d="M125.0 600.0Q 106.0,600.0  91.5,614.0 T 77.0,648.0 Q 77.0,668.0  91.5,682.0 T 125.0,696.0 Q 144.0,696.0  158.5,682.0 T 173.0,648.0 Q 173.0,628.0  158.5,614.0 T 125.0,600.0 Z M159.0 0 L91.0 0 L91.0 468.0 L159.0 468.0 L159.0 0Z">
</path>
</defs>
<use x="2911.0" y="0" xlink:href="#g105/TT0"/>
<defs>
<path id="g115/TT0" d="M224.0 423.0Q 183.0,423.0  154.0,404.5 T 125.0,350.0 Q 125.0,318.0  151.0,300.0 T 237.0,270.0 Q 320.0,253.0  359.5,220.0 T 399.0,133.0 Q 399.0,59.0  347.5,23.5 T 223.0,-12.0 Q 167.0,-12.0  118.0,11.0 T 38.0,79.0  L92.0 119.0Q 111.0,87.0  146.5,66.5 T 222.0,46.0 Q 270.0,46.0  301.0,65.5 T 332.0,128.0 Q 332.0,163.0  299.5,182.0 T 194.0,218.0 Q 136.0,232.0  98.0,258.5 T 60.0,344.0 Q 60.0,411.0  108.5,445.5 T 227.0,480.0 Q 277.0,480.0  323.0,457.5 T 391.0,396.0  L339.0 357.0Q 324.0,387.0  293.0,405.0 T 224.0,423.0 Z">
</path>
</defs>
<use x="3161.0" y="0" xlink:href="#g115/TT0"/>
<defs>
<path id="g116/TT0" d="M169.0 411.0 L169.0 138.0Q 169.0,89.0  187.0,70.5 T 239.0,52.0 Q 268.0,52.0  298.0,67.0  L301.0 8.0Q 264.0,-6.0  221.0,-6.0 Q 173.0,-6.0  137.0,22.0 T 101.0,119.0  L101.0 411.0 L4.0 411.0 L4.0 468.0 L101.0 468.0 L101.0 600.0 L169.0 600.0 L169.0 468.0 L301.0 468.0 L301.0 411.0 L169.0 411.0Z">
</path>
</defs>
<use x="3605.0" y="0" xlink:href="#g116/TT0"/>
<defs>
<path id="g114/TT0" d="M86.0 468.0 L151.0 468.0Q 155.0,418.0  155.0,388.0  L157.0 388.0Q 177.0,429.0  217.5,454.5 T 307.0,480.0 Q 334.0,480.0  352.0,475.0  L343.0 411.0Q 337.0,413.0  322.5,415.0 T 295.0,417.0 Q 236.0,417.0  197.0,372.5 T 158.0,240.0  L158.0 0 L90.0 0 L90.0 365.0Q 90.0,425.0  86.0,468.0 Z">
</path>
</defs>
<use x="3922.0" y="0" xlink:href="#g114/TT0"/>
<use x="4282.0" y="0" xlink:href="#g105/TT0"/>
<defs>
<path id="g98/TT0" d="M160.0 0 L92.0 0 L92.0 756.0 L160.0 756.0 L160.0 387.0 L162.0 387.0Q 191.0,431.0  239.0,455.5 T 339.0,480.0 Q 410.0,480.0  465.5,447.5 T 551.0,359.0 T 581.0,234.0 Q 581.0,165.0  551.0,109.0 T 465.5,20.5 T 339.0,-12.0 Q 287.0,-12.0  239.0,12.0 T 162.0,79.0  L160.0 79.0 L160.0 0Z M332.0 423.0Q 280.0,423.0  239.0,398.0 T 175.0,330.0 T 152.0,234.0 Q 152.0,181.0  175.0,138.0 T 239.0,70.5 T 332.0,46.0 Q 387.0,46.0  427.0,71.0 T 488.0,138.5 T 509.0,234.0 Q 509.0,287.0  488.0,330.0 T 427.0,398.0 T 387.0,423.0 Z">
</path>
</defs>
<use x="4532.0" y="0" xlink:href="#g98/TT0"/>
<defs>
<path id="g117/TT0" d="M426.0 80.0 L424.0 80.0Q 405.0,40.0  359.5,14.0 T 264.0,-12.0 Q 177.0,-12.0  131.5,40.0 T 86.0,181.0  L86.0 468.0 L154.0 468.0 L154.0 209.0Q 154.0,130.0  182.5,87.5 T 281.0,45.0 Q 319.0,45.0  351.0,65.5 T 403.0,127.0 T 423.0,228.0  L423.0 468.0 L491.0 468.0 L491.0 103.0Q 491.0,43.0  495.0,0  L430.0 0Q 426.0,50.0  426.0,80.0 Z">
</path>
</defs>
<use x="5169.0" y="0" xlink:href="#g117/TT0"/>
<use x="5750.0" y="0" xlink:href="#g116/TT0"/>
<use x="6067.0" y="0" xlink:href="#g105/TT0"/>
<defs>
<path id="g111/TT0" d="M305.0 -12.0Q 234.0,-12.0  177.0,20.0 T 88.0,108.0 T 56.0,234.0 Q 56.0,304.0  88.0,360.0 T 177.0,448.0 T 305.0,480.0 Q 377.0,480.0  434.0,448.0 T 523.0,360.0 T 555.0,234.0 Q 555.0,164.0  523.0,108.0 T 434.0,20.0 T 377.0,-12.0 Z M305.0 423.0Q 252.0,423.0  212.0,398.0 T 150.0,330.0 T 128.0,234.0 Q 128.0,181.0  150.0,138.5 T 212.0,71.0 T 305.0,46.0 Q 358.0,46.0  398.5,71.0 T 461.0,138.5 T 483.0,234.0 Q 483.0,287.0  461.0,330.0 T 398.5,398.0 T 358.0,423.0 Z">
</path>
</defs>
<use x="6317.0" y="0" xlink:href="#g111/TT0"/>
<defs>
<path id="g110/TT0" d="M155.0 388.0 L157.0 388.0Q 176.0,428.0  221.5,454.0 T 317.0,480.0 Q 404.0,480.0  449.5,428.0 T 495.0,287.0  L495.0 0 L427.0 0 L427.0 259.0Q 427.0,338.0  398.5,380.5 T 300.0,423.0 Q 262.0,423.0  230.0,402.5 T 178.0,341.0 T 158.0,240.0  L158.0 0 L90.0 0 L90.0 365.0Q 90.0,425.0  86.0,468.0  L151.0 468.0Q 155.0,418.0  155.0,388.0 Z">
</path>
</defs>
<use x="6928.0" y="0" xlink:href="#g110/TT0"/>
<use x="7509.0" y="0" xlink:href="#g32/TT0"/>
<use x="7759.0" y="0" xlink:href="#g111/TT0"/>
<defs>
<path id="g102/TT0" d="M178.0 411.0 L178.0 0 L110.0 0 L110.0 411.0 L12.0 411.0 L12.0 468.0 L110.0 468.0 L110.0 596.0Q 110.0,677.0  150.0,722.5 T 269.0,768.0 Q 301.0,768.0  325.0,761.0  L313.0 701.0Q 289.0,708.0  266.0,708.0 Q 215.0,708.0  196.5,677.0 T 178.0,588.0  L178.0 468.0 L288.0 468.0 L288.0 411.0 L178.0 411.0Z">
</path>
</defs>
<use x="8370.0" y="0" xlink:href="#g102/TT0"/>
<use x="8665.0" y="0" xlink:href="#g32/TT0"/>
<defs>
<path id="g67/TT0" d="M425.0 -18.0Q 319.0,-18.0  235.0,30.0 T 103.5,163.0 T 56.0,354.0 Q 56.0,460.0  104.0,545.0 T 236.5,678.0 T 425.0,726.0 Q 503.0,726.0  571.5,695.5 T 677.0,614.0  L617.0 570.0Q 592.0,608.0  540.5,635.5 T 426.0,663.0 Q 337.0,663.0  270.5,621.0 T 168.0,508.0 T 132.0,354.0 Q 132.0,271.0  168.0,200.0 T 271.0,87.0 T 426.0,45.0 Q 490.0,45.0  544.5,71.0 T 634.0,150.0  L690.0 114.0Q 652.0,56.0  583.5,19.0 T 425.0,-18.0 Z">
</path>
</defs>
<use x="8915.0" y="0" xlink:href="#g67/TT0"/>
<defs>
<path id="g79/TT0" d="M425.0 -18.0Q 321.0,-18.0  236.5,30.0 T 104.0,163.0 T 56.0,354.0 Q 56.0,460.0  104.0,545.0 T 236.5,678.0 T 425.0,726.0 Q 529.0,726.0  613.5,678.0 T 746.0,545.0 T 794.0,354.0 Q 794.0,248.0  746.0,163.0 T 613.5,30.0 T 529.0,-18.0 Z M425.0 663.0Q 337.0,663.0  270.5,621.0 T 168.0,508.0 T 132.0,354.0 Q 132.0,271.0  168.0,200.5 T 270.5,88.0 T 425.0,46.0 Q 513.0,46.0  579.5,88.0 T 682.0,200.5 T 718.0,354.0 Q 718.0,437.0  682.0,508.0 T 579.5,621.0 T 513.0,663.0 Z">
</path>
</defs>
<use x="9635.0" y="0" xlink:href="#g79/TT0"/>
<defs>
<path id="g86/TT0" d="M311.0 93.0 L313.0 93.0 L543.0 708.0 L620.0 708.0 L349.0 0 L273.0 0 L3.0 708.0 L81.0 708.0 L311.0 93.0Z">
</path>
</defs>
<use x="10485.0" y="0" xlink:href="#g86/TT0"/>
<defs>
<path id="g73/TT0" d="M166.0 0 L94.0 0 L94.0 708.0 L166.0 708.0 L166.0 0Z">
</path>
</defs>
<use x="11108.0" y="0" xlink:href="#g73/TT0"/>
<use x="11368.0" y="0" xlink:href="#g68/TT0"/>
<defs>
<path id="g45/TT0" d="M272.0 214.0 L48.0 214.0 L48.0 271.0 L272.0 271.0 L272.0 214.0Z">
</path>
</defs>
<use x="12125.0" y="0" xlink:href="#g45/TT0"/>
<defs>
<path id="g49/TT0" d="M358.0 0 L286.0 0 L286.0 619.0 L158.0 510.0 L114.0 560.0 L294.0 708.0 L358.0 708.0 L358.0 0Z">
</path>
</defs>
<use x="12445.0" y="0" xlink:href="#g49/TT0"/>
<defs>
<path id="g57/TT0" d="M379.0 311.0Q 364.0,299.0  335.0,292.0 T 278.0,285.0 Q 217.0,285.0  167.5,312.5 T 90.0,390.0 T 62.0,503.0 Q 62.0,568.0  91.5,618.5 T 173.5,697.5 T 292.0,726.0 Q 358.0,726.0  410.5,697.5 T 492.5,618.5 T 522.0,503.0 Q 522.0,453.0  505.0,406.5 T 458.0,311.0  L265.0 0 L182.0 0 L381.0 309.0 L379.0 311.0Z M292.0 665.0Q 246.0,665.0  210.0,644.0 T 154.0,586.0 T 134.0,503.0 Q 134.0,433.0  177.0,388.0 T 292.0,343.0 Q 364.0,343.0  407.0,388.0 T 450.0,503.0 Q 450.0,549.0  430.0,586.0 T 374.0,644.0 T 338.0,665.0 Z">
</path>
</defs>
<use x="13025.0" y="0" xlink:href="#g57/TT0"/>
<use x="13605.0" y="0" xlink:href="#g32/TT0"/>
<use x="13855.0" y="0" xlink:href="#g67/TT0"/>
<defs>
<path id="g97/TT0" d="M260.0 423.0Q 220.0,423.0  183.0,408.0 T 121.0,368.0  L83.0 413.0Q 113.0,443.0  161.0,461.5 T 267.0,480.0 Q 347.0,480.0  398.0,436.0 T 449.0,310.0  L449.0 105.0Q 449.0,42.0  457.0,0  L396.0 0Q 389.0,40.0  389.0,76.0  L387.0 76.0Q 355.0,30.0  314.5,9.0 T 217.0,-12.0 Q 178.0,-12.0  141.0,2.5 T 79.5,49.0 T 55.0,130.0 Q 55.0,198.0  99.0,232.0 T 212.5,276.5 T 385.0,287.0  L385.0 302.0Q 385.0,362.0  353.0,392.5 T 260.0,423.0 Z M125.0 133.0Q 125.0,87.0  157.0,65.5 T 235.0,44.0 Q 304.0,44.0  344.5,89.0 T 385.0,199.0  L385.0 234.0 L365.0 234.0Q 259.0,234.0  192.0,213.5 T 125.0,133.0 Z">
</path>
</defs>
<use x="14575.0" y="0" xlink:href="#g97/TT0"/>
<use x="15109.0" y="0" xlink:href="#g115/TT0"/>
<use x="15553.0" y="0" xlink:href="#g101/TT0"/>
<use x="16125.0" y="0" xlink:href="#g115/TT0"/>
</g>
<text x="8.15" y="494.0" font-size="17.7pt" font-family="Avenir Next" fill="#ffffff" opacity="0">
 Age Distribution of COVID-19 Cases</text>
</g>
<g transform=" translate(16.0 -16.0)">
<defs>
<clipPath id="ClipPath0">
<rect x="25" y="85" width="375" height="373">
</rect>
</clipPath>
</defs>
<g clip-path="url(#ClipPath0)">
<rect id="Rect_6" x="29.0" y="453.57" width="17.2" height="4.43" fill="#dd5757" stroke="#ff6464" stroke-width="2.0" stroke-opacity="0.85" opacity="0.85">
</rect>
<rect id="Rect_7" x="46.2" y="455.05" width="17.2" height="2.95" fill="#dd5757" stroke="#ff6464" stroke-width="2.0" stroke-opacity="0.85" opacity="0.85">
</rect>
<rect id="Rect_8" x="63.41" y="443.24" width="17.2" height="14.76" fill="#dd5757" stroke="#ff6464" stroke-width="2.0" stroke-opacity="0.85" opacity="0.85">
</rect>
<rect id="Rect_9" x="80.61" y="416.67" width="17.2" height="41.33" fill="#dd5757" stroke="#ff6464" stroke-width="2.0" stroke-opacity="0.85" opacity="0.85">
</rect>
<rect id="Rect_10" x="97.81" y="329.59" width="17.2" height="128.41" fill="#dd5757" stroke="#ff6464" stroke-width="2.0" stroke-opacity="0.85" opacity="0.85">
</rect>
<rect id="Rect_11" x="115.02" y="254.31" width="17.2" height="203.69" fill="#dd5757" stroke="#ff6464" stroke-width="2.0" stroke-opacity="0.85" opacity="0.85">
</rect>
<rect id="Rect_12" x="132.22" y="192.32" width="17.2" height="265.68" fill="#dd5757" stroke="#ff6464" stroke-width="2.0" stroke-opacity="0.85" opacity="0.85">
</rect>
<rect id="Rect_13" x="149.42" y="168.7" width="17.2" height="289.3" fill="#dd5757" stroke="#ff6464" stroke-width="2.0" stroke-opacity="0.85" opacity="0.85">
</rect>
<rect id="Rect_14" x="166.63" y="146.56" width="17.2" height="311.44" fill="#dd5757" stroke="#ff6464" stroke-width="2.0" stroke-opacity="0.85" opacity="0.85">
</rect>
<rect id="Rect_15" x="183.83" y="96.38" width="17.2" height="361.62" fill="#dd5757" stroke="#ff6464" stroke-width="2.0" stroke-opacity="0.85" opacity="0.85">
</rect>
<rect id="Rect_16" x="201.03" y="91.95" width="17.2" height="366.05" fill="#dd5757" stroke="#ff6464" stroke-width="2.0" stroke-opacity="0.85" opacity="0.85">
</rect>
<rect id="Rect_17" x="218.23" y="112.62" width="17.2" height="345.38" fill="#dd5757" stroke="#ff6464" stroke-width="2.0" stroke-opacity="0.85" opacity="0.85">
</rect>
<rect id="Rect_18" x="235.44" y="248.41" width="17.2" height="209.59" fill="#dd5757" stroke="#ff6464" stroke-width="2.0" stroke-opacity="0.85" opacity="0.85">
</rect>
<rect id="Rect_19" x="252.64" y="291.21" width="17.2" height="166.79" fill="#dd5757" stroke="#ff6464" stroke-width="2.0" stroke-opacity="0.85" opacity="0.85">
</rect>
<rect id="Rect_20" x="269.84" y="381.25" width="17.2" height="76.75" fill="#dd5757" stroke="#ff6464" stroke-width="2.0" stroke-opacity="0.85" opacity="0.85">
</rect>
<rect id="Rect_21" x="287.05" y="406.34" width="17.2" height="51.66" fill="#dd5757" stroke="#ff6464" stroke-width="2.0" stroke-opacity="0.85" opacity="0.85">
</rect>
<rect id="Rect_22" x="304.25" y="441.76" width="17.2" height="16.24" fill="#dd5757" stroke="#ff6464" stroke-width="2.0" stroke-opacity="0.85" opacity="0.85">
</rect>
<rect id="Rect_23" x="321.45" y="455.05" width="17.2" height="2.95" fill="#dd5757" stroke="#ff6464" stroke-width="2.0" stroke-opacity="0.85" opacity="0.85">
</rect>
<rect id="Rect_24" x="338.66" y="457.0" width="17.2" height="1.0" fill="#dd5757" stroke="#ff6464" stroke-width="2.0" stroke-opacity="0.85" opacity="0.85">
</rect>
<rect id="Rect_25" x="355.86" y="457.0" width="17.2" height="1.0" fill="#dd5757" stroke="#ff6464" stroke-width="2.0" stroke-opacity="0.85" opacity="0.85">
</rect>
<rect id="Rect_26" x="373.06" y="455.05" width="17.2" height="2.95" fill="#dd5757" stroke="#ff6464" stroke-width="2.0" stroke-opacity="0.85" opacity="0.85">
</rect>
</g>
<g fill="#b0b8c3" stroke="#b0b8c3" transform="translate(34.6 472.65) scale(0.012 -0.012)">
<defs>
<path id="g48/TT0" d="M522.0 353.0Q 522.0,195.0  467.0,88.5 T 290.0,-18.0 Q 167.0,-18.0  112.5,88.5 T 58.0,353.0 Q 58.0,512.0  112.5,619.0 T 290.0,726.0 Q 412.0,726.0  467.0,618.5 T 522.0,353.0 Z M131.0 353.0Q 131.0,226.0  167.5,135.0 T 290.0,44.0 Q 375.0,44.0  412.0,135.5 T 449.0,353.0 Q 449.0,480.0  412.0,572.5 T 290.0,665.0 Q 204.0,665.0  167.5,573.0 T 131.0,353.0 Z">
</path>
</defs>
<use x="0" y="0" xlink:href="#g48/TT0"/>
</g>
<text id="Text_28" x="37.6" y="472.65" font-size="9.0pt" font-family="Avenir Next" fill="#b0b8c3" text-anchor="middle" opacity="0">
 0</text>
<g fill="#b0b8c3" stroke="#b0b8c3" transform="translate(103.28 472.65) scale(0.012 -0.012)">
<defs>
<path id="g50/TT0" d="M51.0 0 L51.0 75.0 L341.0 368.0Q 380.0,408.0  403.0,447.0 T 426.0,530.0 Q 426.0,590.0  385.5,627.5 T 286.0,665.0 Q 230.0,665.0  191.0,630.0 T 140.0,539.0  L69.0 553.0Q 84.0,629.0  144.0,677.5 T 286.0,726.0 Q 344.0,726.0  392.5,703.5 T 470.0,637.0 T 499.0,531.0 Q 499.0,469.0  470.0,421.5 T 384.0,317.0  L129.0 64.0 L504.0 64.0 L504.0 0 L51.0 0Z">
</path>
</defs>
<use x="0" y="0" xlink:href="#g50/TT0"/>
<defs>
<path id="g53/TT0" d="M180.0 644.0 L175.0 425.0Q 219.0,441.0  273.0,441.0 Q 339.0,441.0  391.5,413.0 T 473.5,334.5 T 503.0,219.0 Q 503.0,151.0  473.5,97.0 T 390.5,12.5 T 268.0,-18.0 Q 194.0,-18.0  140.0,16.0 T 56.0,111.0  L121.0 140.0Q 140.0,96.0  179.0,70.0 T 264.0,44.0 Q 311.0,44.0  349.0,66.0 T 408.5,126.5 T 430.0,212.0 Q 430.0,289.0  380.5,335.5 T 254.0,382.0 Q 180.0,382.0  107.0,343.0  L114.0 708.0 L475.0 708.0 L475.0 644.0 L180.0 644.0Z">
</path>
</defs>
<use x="580.0" y="0" xlink:href="#g53/TT0"/>
</g>
<text id="Text_29" x="109.28" y="472.65" font-size="9.0pt" font-family="Avenir Next" fill="#b0b8c3" text-anchor="middle" opacity="0">
 25</text>
<g fill="#b0b8c3" stroke="#b0b8c3" transform="translate(174.96 472.65) scale(0.012 -0.012)">
<use x="0" y="0" xlink:href="#g53/TT0"/>
<use x="580.0" y="0" xlink:href="#g48/TT0"/>
</g>
<text id="Text_30" x="180.96" y="472.65" font-size="9.0pt" font-family="Avenir Next" fill="#b0b8c3" text-anchor="middle" opacity="0">
 50</text>
<g fill="#b0b8c3" stroke="#b0b8c3" transform="translate(246.64 472.65) scale(0.012 -0.012)">
<defs>
<path id="g55/TT0" d="M498.0 642.0 L213.0 0 L132.0 0 L425.0 644.0 L78.0 644.0 L78.0 708.0 L498.0 708.0 L498.0 642.0Z">
</path>
</defs>
<use x="0" y="0" xlink:href="#g55/TT0"/>
<use x="580.0" y="0" xlink:href="#g53/TT0"/>
</g>
<text id="Text_31" x="252.64" y="472.65" font-size="9.0pt" font-family="Avenir Next" fill="#b0b8c3" text-anchor="middle" opacity="0">
 75</text>
<g fill="#b0b8c3" stroke="#b0b8c3" transform="translate(314.32 472.65) scale(0.012 -0.012)">
<use x="0" y="0" xlink:href="#g49/TT0"/>
<use x="580.0" y="0" xlink:href="#g48/TT0"/>
<use x="1160.0" y="0" xlink:href="#g48/TT0"/>
</g>
<text id="Text_32" x="324.32" y="472.65" font-size="9.0pt" font-family="Avenir Next" fill="#b0b8c3" text-anchor="middle" opacity="0">
 100</text>
<g fill="#b0b8c3" stroke="#b0b8c3" transform="translate(386.0 472.65) scale(0.012 -0.012)">
<use x="0" y="0" xlink:href="#g49/TT0"/>
<use x="580.0" y="0" xlink:href="#g50/TT0"/>
<use x="1160.0" y="0" xlink:href="#g53/TT0"/>
</g>
<text id="Text_33" x="396.0" y="472.65" font-size="9.0pt" font-family="Avenir Next" fill="#b0b8c3" text-anchor="middle" opacity="0">
 125</text>
<g fill="#f9fafb" stroke="#f9fafb" transform="translate(200.5 496.44) scale(0.014 -0.014)">
<defs>
<path id="g97/TT1" d="M367.0 61.0Q 349.0,29.0  308.5,8.5 T 218.0,-12.0 Q 175.0,-12.0  134.0,3.0 T 65.5,51.5 T 38.0,137.0 Q 38.0,233.0  131.0,266.5 T 368.0,300.0  L368.0 312.0Q 368.0,354.0  337.0,377.0 T 258.0,400.0 Q 221.0,400.0  186.0,384.5 T 127.0,345.0  L65.0 418.0Q 105.0,455.0  158.5,474.5 T 268.0,494.0 Q 385.0,494.0  433.5,436.0 T 482.0,292.0  L482.0 0 L370.0 0 L370.0 61.0 L367.0 61.0Z M341.0 219.0Q 158.0,219.0  158.0,139.0 Q 158.0,107.0  182.5,93.0 T 242.0,79.0 Q 303.0,79.0  335.5,111.5 T 368.0,202.0  L368.0 219.0 L341.0 219.0Z">
</path>
</defs>
<use x="0" y="0" xlink:href="#g97/TT1"/>
<defs>
<path id="g103/TT1" d="M560.0 43.0Q 560.0,-91.0  492.5,-165.5 T 289.0,-240.0 Q 228.0,-240.0  162.0,-219.0 T 51.0,-161.0  L120.0 -68.0Q 154.0,-101.0  198.5,-118.5 T 288.0,-136.0 Q 370.0,-136.0  405.0,-92.5 T 440.0,29.0  L440.0 64.0 L438.0 64.0Q 412.0,29.0  371.5,10.5 T 281.0,-8.0 Q 211.0,-8.0  157.0,25.5 T 73.5,116.5 T 44.0,242.0 Q 44.0,312.0  73.0,369.5 T 155.0,460.5 T 279.0,494.0 Q 331.0,494.0  375.0,472.0 T 444.0,408.0  L446.0 408.0 L446.0 480.0 L560.0 480.0 L560.0 43.0Z M166.0 243.0Q 166.0,204.0  182.5,169.0 T 230.5,112.5 T 303.0,91.0 Q 346.0,91.0  378.5,112.0 T 428.5,168.0 T 446.0,243.0 Q 446.0,285.0  428.5,320.0 T 378.5,375.5 T 304.0,396.0 Q 241.0,396.0  203.5,352.5 T 166.0,243.0 Z">
</path>
</defs>
<use x="550.0" y="0" xlink:href="#g103/TT1"/>
<defs>
<path id="g101/TT1" d="M529.0 202.0 L164.0 202.0Q 168.0,152.0  208.0,118.0 T 301.0,84.0 Q 384.0,84.0  428.0,146.0  L508.0 82.0Q 437.0,-14.0  302.0,-14.0 Q 228.0,-14.0  169.5,16.5 T 77.5,104.0 T 44.0,237.0 Q 44.0,313.0  77.0,371.5 T 168.0,462.0 T 298.0,494.0 Q 402.0,494.0  466.0,427.0 T 530.0,234.0 Q 530.0,213.0  529.0,202.0 Z M297.0 404.0Q 244.0,404.0  206.0,371.0 T 164.0,288.0  L410.0 288.0Q 410.0,338.0  381.0,371.0 T 297.0,404.0 Z">
</path>
</defs>
<use x="1182.0" y="0" xlink:href="#g101/TT1"/>
</g>
<text id="Text_34" x="212.5" y="496.44" font-size="10.5pt" font-family="Avenir Next" font-weight="bold" fill="#f9fafb" text-anchor="middle" opacity="0">
 age</text>
<g fill="#b0b8c3" stroke="#b0b8c3" transform="translate(13.04 462.3) scale(0.012 -0.012)">
<use x="0" y="0" xlink:href="#g48/TT0"/>
</g>
<text id="Text_36" x="20.0" y="462.3" font-size="9.0pt" font-family="Avenir Next" fill="#b0b8c3" text-anchor="end" opacity="0">
 0</text>
<g fill="#b0b8c3" stroke="#b0b8c3" transform="translate(6.08 388.5) scale(0.012 -0.012)">
<use x="0" y="0" xlink:href="#g53/TT0"/>
<use x="580.0" y="0" xlink:href="#g48/TT0"/>
</g>
<text id="Text_37" x="20.0" y="388.5" font-size="9.0pt" font-family="Avenir Next" fill="#b0b8c3" text-anchor="end" opacity="0">
 50</text>
<g fill="#b0b8c3" stroke="#b0b8c3" transform="translate(-0.88 314.7) scale(0.012 -0.012)">
<use x="0" y="0" xlink:href="#g49/TT0"/>
<use x="580.0" y="0" xlink:href="#g48/TT0"/>
<use x="1160.0" y="0" xlink:href="#g48/TT0"/>
</g>
<text id="Text_38" x="20.0" y="314.7" font-size="9.0pt" font-family="Avenir Next" fill="#b0b8c3" text-anchor="end" opacity="0">
 100</text>
<g fill="#b0b8c3" stroke="#b0b8c3" transform="translate(-0.88 240.9) scale(0.012 -0.012)">
<use x="0" y="0" xlink:href="#g49/TT0"/>
<use x="580.0" y="0" xlink:href="#g53/TT0"/>
<use x="1160.0" y="0" xlink:href="#g48/TT0"/>
</g>
<text id="Text_39" x="20.0" y="240.9" font-size="9.0pt" font-family="Avenir Next" fill="#b0b8c3" text-anchor="end" opacity="0">
 150</text>
<g fill="#b0b8c3" stroke="#b0b8c3" transform="translate(-0.88 167.1) scale(0.012 -0.012)">
<use x="0" y="0" xlink:href="#g50/TT0"/>
<use x="580.0" y="0" xlink:href="#g48/TT0"/>
<use x="1160.0" y="0" xlink:href="#g48/TT0"/>
</g>
<text id="Text_40" x="20.0" y="167.1" font-size="9.0pt" font-family="Avenir Next" fill="#b0b8c3" text-anchor="end" opacity="0">
 200</text>
<g fill="#b0b8c3" stroke="#b0b8c3" transform="translate(-0.88 93.3) scale(0.012 -0.012)">
<use x="0" y="0" xlink:href="#g50/TT0"/>
<use x="580.0" y="0" xlink:href="#g53/TT0"/>
<use x="1160.0" y="0" xlink:href="#g48/TT0"/>
</g>
<text id="Text_41" x="20.0" y="93.3" font-size="9.0pt" font-family="Avenir Next" fill="#b0b8c3" text-anchor="end" opacity="0">
 250</text>
<g fill="#f9fafb" stroke="#f9fafb" transform="translate(0 76.59) scale(0.014 -0.014)">
<defs>
<path id="g70/TT1" d="M78.0 708.0 L535.0 708.0 L535.0 598.0 L204.0 598.0 L204.0 404.0 L516.0 404.0 L516.0 298.0 L204.0 298.0 L204.0 0 L78.0 0 L78.0 708.0Z">
</path>
</defs>
<use x="0" y="0" xlink:href="#g70/TT1"/>
<defs>
<path id="g114/TT1" d="M187.0 480.0 L187.0 400.0 L189.0 400.0Q 209.0,443.0  246.0,468.5 T 329.0,494.0 Q 346.0,494.0  358.0,491.0  L358.0 381.0Q 338.0,386.0  321.0,386.0 Q 272.0,386.0  243.0,363.0 T 203.0,310.5 T 192.0,257.0  L192.0 0 L72.0 0 L72.0 480.0 L187.0 480.0Z">
</path>
</defs>
<use x="573.0" y="0" xlink:href="#g114/TT1"/>
<use x="937.0" y="0" xlink:href="#g101/TT1"/>
<defs>
<path id="g113/TT1" d="M440.0 -240.0 L440.0 64.0 L438.0 64.0Q 415.0,28.0  372.0,7.0 T 279.0,-14.0 Q 208.0,-14.0  154.5,20.5 T 72.0,113.5 T 43.0,242.0 Q 43.0,312.0  73.0,370.0 T 156.0,461.0 T 276.0,494.0 Q 336.0,494.0  378.5,470.0 T 442.0,413.0  L445.0 413.0 L445.0 480.0 L560.0 480.0 L560.0 -240.0 L440.0 -240.0Z M303.0 86.0Q 345.0,86.0  377.0,108.5 T 426.5,166.5 T 444.0,240.0 Q 444.0,278.0  426.5,314.5 T 377.0,373.5 T 303.0,396.0 Q 259.0,396.0  227.5,374.0 T 180.5,316.5 T 165.0,242.0 Q 165.0,203.0  180.5,167.0 T 227.5,108.5 T 259.0,86.0 Z">
</path>
</defs>
<use x="1511.0" y="0" xlink:href="#g113/TT1"/>
<defs>
<path id="g117/TT1" d="M396.0 0 L396.0 77.0 L394.0 77.0Q 377.0,39.0  336.5,12.5 T 245.0,-14.0 Q 157.0,-14.0  112.5,42.5 T 68.0,180.0  L68.0 480.0 L188.0 480.0 L188.0 214.0Q 188.0,86.0  278.0,86.0 Q 332.0,86.0  361.0,124.5 T 390.0,216.0  L390.0 480.0 L510.0 480.0 L510.0 0 L396.0 0Z">
</path>
</defs>
<use x="2143.0" y="0" xlink:href="#g117/TT1"/>
<use x="2725.0" y="0" xlink:href="#g101/TT1"/>
<defs>
<path id="g110/TT1" d="M186.0 480.0 L186.0 403.0 L188.0 403.0Q 205.0,441.0  245.5,467.5 T 337.0,494.0 Q 425.0,494.0  469.5,437.5 T 514.0,300.0  L514.0 0 L394.0 0 L394.0 266.0Q 394.0,394.0  304.0,394.0 Q 250.0,394.0  221.0,355.5 T 192.0,264.0  L192.0 0 L72.0 0 L72.0 480.0 L186.0 480.0Z">
</path>
</defs>
<use x="3299.0" y="0" xlink:href="#g110/TT1"/>
<defs>
<path id="g99/TT1" d="M301.0 394.0Q 259.0,394.0  229.0,372.0 T 184.0,314.5 T 169.0,240.0 Q 169.0,201.0  184.5,165.5 T 231.0,108.0 T 305.0,86.0 Q 334.0,86.0  361.5,97.5 T 406.0,129.0  L481.0 53.0Q 451.0,21.0  404.5,3.5 T 304.0,-14.0 Q 232.0,-14.0  173.0,16.5 T 79.0,104.5 T 44.0,240.0 Q 44.0,316.0  78.5,373.5 T 171.5,462.5 T 301.0,494.0 Q 354.0,494.0  404.0,474.0 T 482.0,419.0  L400.0 347.0Q 386.0,367.0  358.0,380.5 T 301.0,394.0 Z">
</path>
</defs>
<use x="3881.0" y="0" xlink:href="#g99/TT1"/>
<defs>
<path id="g121/TT1" d="M133.0 480.0 L267.0 131.0 L269.0 131.0 L388.0 480.0 L513.0 480.0 L286.0 -103.0Q 258.0,-174.0  218.5,-207.0 T 104.0,-240.0 Q 71.0,-240.0  42.0,-233.0  L52.0 -129.0Q 74.0,-136.0  97.0,-136.0 Q 133.0,-136.0  149.0,-119.5 T 182.0,-61.0  L206.0 0 L0 480.0 L133.0 480.0Z">
</path>
</defs>
<use x="4369.0" y="0" xlink:href="#g121/TT1"/>
</g>
<text id="Text_42" x="0" y="76.59" font-size="10.5pt" font-family="Avenir Next" font-weight="bold" fill="#f9fafb" text-anchor="start" opacity="0">
 Frequency</text>
</g>
<g transform=" translate(16.0 -16.0)">
</g>
<g transform=" translate(16.0 -16.0)">
</g>
<g transform=" translate(16.0 -16.0)">
</g>
</g>
</svg>
