<svg xmlns="http://www.w3.org/2000/svg" xmlns:xlink="http://www.w3.org/1999/xlink" version="1.1" width="280" height="500" viewBox="0 0 280 500">
<rect x="0" y="0" width="280" height="500" fill="#103052">
</rect>
<g>
<rect x="0" y="0" rx="5" ry="5" width="280.0" height="500.0" fill="#011e33" opacity="0">
</rect>
<g transform=" translate(16.0 -440.0)">
<text x="22.65" y="473.78" font-size="13.3pt" font-family="Avenir Next" fill="#ffffff">
 COVID-19 Cases by Age</text>
<g fill="#ffffff" stroke="#ffffff" transform="translate(24.08 495.5) scale(0.0177 -0.0177)">
<defs>
<path id="g71/TT0" d="M426.0 663.0Q 338.0,663.0  271.0,621.0 T 168.0,508.0 T 132.0,354.0 Q 132.0,271.0  168.0,200.5 T 271.0,88.0 T 426.0,46.0 Q 484.0,46.0  534.5,58.5 T 617.0,92.0  L617.0 307.0 L452.0 307.0 L452.0 370.0 L689.0 370.0 L689.0 51.0Q 574.0,-18.0  425.0,-18.0 Q 319.0,-18.0  235.0,30.0 T 103.5,163.0 T 56.0,354.0 Q 56.0,460.0  104.0,545.0 T 236.5,678.0 T 425.0,726.0 Q 584.0,726.0  681.0,631.0  L631.0 581.0Q 554.0,663.0  426.0,663.0 Z">
</path>
</defs>
<use x="0" y="0" xlink:href="#g71/TT0"/>
<defs>
<path id="g114/TT0" d="M86.0 468.0 L151.0 468.0Q 155.0,418.0  155.0,388.0  L157.0 388.0Q 177.0,429.0  217.5,454.5 T 307.0,480.0 Q 334.0,480.0  352.0,475.0  L343.0 411.0Q 337.0,413.0  322.5,415.0 T 295.0,417.0 Q 236.0,417.0  197.0,372.5 T 158.0,240.0  L158.0 0 L90.0 0 L90.0 365.0Q 90.0,425.0  86.0,468.0 Z">
</path>
</defs>
<use x="779.0" y="0" xlink:href="#g114/TT0"/>
<defs>
<path id="g111/TT0" d="M305.0 -12.0Q 234.0,-12.0  177.0,20.0 T 88.0,108.0 T 56.0,234.0 Q 56.0,304.0  88.0,360.0 T 177.0,448.0 T 305.0,480.0 Q 377.0,480.0  434.0,448.0 T 523.0,360.0 T 555.0,234.0 Q 555.0,164.0  523.0,108.0 T 434.0,20.0 T 377.0,-12.0 Z M305.0 423.0Q 252.0,423.0  212.0,398.0 T 150.0,330.0 T 128.0,234.0 Q 128.0,181.0  150.0,138.5 T 212.0,71.0 T 305.0,46.0 Q 358.0,46.0  398.5,71.0 T 461.0,138.5 T 483.0,234.0 Q 483.0,287.0  461.0,330.0 T 398.5,398.0 T 358.0,423.0 Z">
</path>
</defs>
<use x="1139.0" y="0" xlink:href="#g111/TT0"/>
<defs>
<path id="g117/TT0" d="M426.0 80.0 L424.0 80.0Q 405.0,40.0  359.5,14.0 T 264.0,-12.0 Q 177.0,-12.0  131.5,40.0 T 86.0,181.0  L86.0 468.0 L154.0 468.0 L154.0 209.0Q 154.0,130.0  182.5,87.5 T 281.0,45.0 Q 319.0,45.0  351.0,65.5 T 403.0,127.0 T 423.0,228.0  L423.0 468.0 L491.0 468.0 L491.0 103.0Q 491.0,43.0  495.0,0  L430.0 0Q 426.0,50.0  426.0,80.0 Z">
</path>
</defs>
<use x="1750.0" y="0" xlink:href="#g117/TT0"/>
<defs>
<path id="g112/TT0" d="M90.0 -240.0 L90.0 468.0 L158.0 468.0 L158.0 387.0 L161.0 387.0Q 189.0,431.0  237.0,455.5 T 337.0,480.0 Q 408.0,480.0  463.5,447.5 T 549.0,359.0 T 579.0,234.0 Q 579.0,165.0  549.0,109.0 T 463.5,20.5 T 337.0,-12.0 Q 286.0,-12.0  238.0,12.0 T 161.0,79.0  L158.0 79.0 L158.0 -240.0 L90.0 -240.0Z M330.0 423.0Q 278.0,423.0  237.0,398.0 T 173.0,330.0 T 150.0,234.0 Q 150.0,181.0  173.0,138.0 T 237.0,70.5 T 330.0,46.0 Q 385.0,46.0  425.0,71.0 T 486.0,138.5 T 507.0,234.0 Q 507.0,287.0  486.0,330.0 T 425.0,398.0 T 385.0,423.0 Z">
</path>
</defs>
<use x="2331.0" y="0" xlink:href="#g112/TT0"/>
<use x="2966.0" y="0" xlink:href="#g32/TT0"/>
<defs>
<path id="g98/TT0" d="M160.0 0 L92.0 0 L92.0 756.0 L160.0 756.0 L160.0 387.0 L162.0 387.0Q 191.0,431.0  239.0,455.5 T 339.0,480.0 Q 410.0,480.0  465.5,447.5 T 551.0,359.0 T 581.0,234.0 Q 581.0,165.0  551.0,109.0 T 465.5,20.5 T 339.0,-12.0 Q 287.0,-12.0  239.0,12.0 T 162.0,79.0  L160.0 79.0 L160.0 0Z M332.0 423.0Q 280.0,423.0  239.0,398.0 T 175.0,330.0 T 152.0,234.0 Q 152.0,181.0  175.0,138.0 T 239.0,70.5 T 332.0,46.0 Q 387.0,46.0  427.0,71.0 T 488.0,138.5 T 509.0,234.0 Q 509.0,287.0  488.0,330.0 T 427.0,398.0 T 387.0,423.0 Z">
</path>
</defs>
<use x="3216.0" y="0" xlink:href="#g98/TT0"/>
<defs>
<path id="g121/TT0" d="M253.0 73.0 L398.0 468.0 L472.0 468.0 L239.0 -121.0Q 216.0,-180.0  182.5,-210.0 T 92.0,-240.0 Q 61.0,-240.0  31.0,-234.0  L38.0 -172.0Q 62.0,-180.0  88.0,-180.0 Q 121.0,-180.0  141.5,-159.5 T 178.0,-97.0  L216.0 1.0 L16.0 468.0 L92.0 468.0 L251.0 73.0 L253.0 73.0Z">
</path>
</defs>
<use x="3853.0" y="0" xlink:href="#g121/TT0"/>
<use x="4341.0" y="0" xlink:href="#g32/TT0"/>
<defs>
<path id="g68/TT0" d="M329.0 708.0Q 421.0,708.0  507.0,667.5 T 647.0,546.5 T 701.0,354.0 Q 701.0,242.0  647.0,161.5 T 507.0,40.5 T 329.0,0  L94.0 0 L94.0 708.0 L329.0 708.0Z M309.0 64.0Q 411.0,64.0  482.5,105.0 T 589.5,212.0 T 625.0,354.0 Q 625.0,430.0  589.5,496.0 T 482.5,603.0 T 309.0,644.0  L166.0 644.0 L166.0 64.0 L309.0 64.0Z">
</path>
</defs>
<use x="4591.0" y="0" xlink:href="#g68/TT0"/>
<defs>
<path id="g97/TT0" d="M260.0 423.0Q 220.0,423.0  183.0,408.0 T 121.0,368.0  L83.0 413.0Q 113.0,443.0  161.0,461.5 T 267.0,480.0 Q 347.0,480.0  398.0,436.0 T 449.0,310.0  L449.0 105.0Q 449.0,42.0  457.0,0  L396.0 0Q 389.0,40.0  389.0,76.0  L387.0 76.0Q 355.0,30.0  314.5,9.0 T 217.0,-12.0 Q 178.0,-12.0  141.0,2.5 T 79.5,49.0 T 55.0,130.0 Q 55.0,198.0  99.0,232.0 T 212.5,276.5 T 385.0,287.0  L385.0 302.0Q 385.0,362.0  353.0,392.5 T 260.0,423.0 Z M125.0 133.0Q 125.0,87.0  157.0,65.5 T 235.0,44.0 Q 304.0,44.0  344.5,89.0 T 385.0,199.0  L385.0 234.0 L365.0 234.0Q 259.0,234.0  192.0,213.5 T 125.0,133.0 Z">
</path>
</defs>
<use x="5348.0" y="0" xlink:href="#g97/TT0"/>
<defs>
<path id="g116/TT0" d="M169.0 411.0 L169.0 138.0Q 169.0,89.0  187.0,70.5 T 239.0,52.0 Q 268.0,52.0  298.0,67.0  L301.0 8.0Q 264.0,-6.0  221.0,-6.0 Q 173.0,-6.0  137.0,22.0 T 101.0,119.0  L101.0 411.0 L4.0 411.0 L4.0 468.0 L101.0 468.0 L101.0 600.0 L169.0 600.0 L169.0 468.0 L301.0 468.0 L301.0 411.0 L169.0 411.0Z">
</path>
</defs>
<use x="5882.0" y="0" xlink:href="#g116/TT0"/>
<defs>
<path id="g101/TT0" d="M515.0 216.0 L127.0 216.0Q 128.0,169.0  150.5,130.5 T 212.0,69.0 T 298.0,46.0 Q 347.0,46.0  387.0,69.5 T 448.0,127.0  L499.0 87.0Q 421.0,-12.0  298.0,-12.0 Q 229.0,-12.0  174.0,20.0 T 87.5,108.0 T 56.0,234.0 Q 56.0,303.0  87.0,359.5 T 172.0,448.0 T 292.0,480.0 Q 363.0,480.0  413.5,449.5 T 490.0,366.0 T 516.0,248.0 Q 516.0,228.0  515.0,216.0 Z M292.0 423.0Q 248.0,423.0  211.5,402.0 T 153.0,345.5 T 128.0,270.0  L447.0 270.0Q 444.0,338.0  403.5,380.5 T 292.0,423.0 Z">
</path>
</defs>
<use x="6199.0" y="0" xlink:href="#g101/TT0"/>
<use x="6771.0" y="0" xlink:href="#g32/TT0"/>
<use x="7021.0" y="0" xlink:href="#g111/TT0"/>
<defs>
<path id="g102/TT0" d="M178.0 411.0 L178.0 0 L110.0 0 L110.0 411.0 L12.0 411.0 L12.0 468.0 L110.0 468.0 L110.0 596.0Q 110.0,677.0  150.0,722.5 T 269.0,768.0 Q 301.0,768.0  325.0,761.0  L313.0 701.0Q 289.0,708.0  266.0,708.0 Q 215.0,708.0  196.5,677.0 T 178.0,588.0  L178.0 468.0 L288.0 468.0 L288.0 411.0 L178.0 411.0Z">
</path>
</defs>
<use x="7632.0" y="0" xlink:href="#g102/TT0"/>
<use x="7927.0" y="0" xlink:href="#g32/TT0"/>
<defs>
<path id="g82/TT0" d="M94.0 0 L94.0 708.0 L302.0 708.0Q 414.0,708.0  479.0,662.5 T 544.0,519.0 Q 544.0,442.0  493.5,394.0 T 363.0,337.0  L570.0 0 L482.0 0 L286.0 331.0 L166.0 331.0 L166.0 0 L94.0 0Z M291.0 393.0Q 378.0,393.0  425.0,425.0 T 472.0,519.0 Q 472.0,646.0  294.0,646.0  L166.0 646.0 L166.0 393.0 L291.0 393.0Z">
</path>
</defs>
<use x="8177.0" y="0" xlink:href="#g82/TT0"/>
<use x="8776.0" y="0" xlink:href="#g101/TT0"/>
<use x="9348.0" y="0" xlink:href="#g112/TT0"/>
<use x="9983.0" y="0" xlink:href="#g111/TT0"/>
<use x="10594.0" y="0" xlink:href="#g114/TT0"/>
<use x="10954.0" y="0" xlink:href="#g116/TT0"/>
</g>
<text x="24.08" y="495.5" font-size="13.3pt" font-family="Avenir Next" fill="#ffffff" opacity="0">
 Group by Date of Report</text>
</g>
<g transform=" translate(16.0 -16.0)">
<defs>
<clipPath id="ClipPath0">
<rect x="25" y="166" width="225" height="310">
</rect>
</clipPath>
</defs>
<g clip-path="url(#ClipPath0)">
<defs>
<clipPath id="ClipPath1">
<rect x="25" y="169" width="222" height="307">
</rect>
</clipPath>
</defs>
<g clip-path="url(#ClipPath1)">
<polyline points="144.33,467.54  147.67,470.0  157.67,470.0  161.0,470.0  164.33,470.0  174.33,470.0  177.67,470.0  181.0,470.0  184.33,470.0  187.67,470.0  191.0,470.0  194.33,467.54  197.67,470.0  201.0,467.54  204.33,470.0  207.67,467.54  211.0,470.0  214.33,465.08  217.67,465.08  221.0,457.71  224.33,465.08  227.67,460.17  231.0,467.54  234.33,460.17 " fill="none" stroke="#35a5ff" stroke-width="3.0">
</polyline>
<polyline points="31.0,470.0  64.33,470.0  137.67,470.0  154.33,470.0  157.67,467.54  161.0,470.0  164.33,470.0  167.67,467.54  171.0,467.54  174.33,465.08  177.67,460.17  181.0,467.54  184.33,460.17  187.67,465.08  191.0,455.25  194.33,435.58  197.67,433.13  201.0,435.58  204.33,391.33  207.67,364.29  211.0,393.79  214.33,398.71  217.67,349.54  221.0,324.96  224.33,339.71  227.67,268.42  231.0,339.71  234.33,182.38 " fill="none" stroke="#eace5c" stroke-width="3.0">
</polyline>
<polyline points="67.67,470.0  114.33,470.0  137.67,470.0  154.33,465.08  157.67,470.0  161.0,470.0  164.33,470.0  171.0,470.0  174.33,467.54  177.67,465.08  181.0,462.63  184.33,452.79  187.67,457.71  191.0,457.71  194.33,450.33  197.67,450.33  201.0,455.25  204.33,411.0  207.67,420.83  211.0,420.83  214.33,438.04  217.67,386.42  221.0,356.92  224.33,408.54  227.67,359.38  231.0,413.46  234.33,305.29 " fill="none" stroke="#837cff" stroke-width="3.0">
</polyline>
<polyline points="34.33,470.0  74.33,470.0  144.33,467.54  161.0,470.0  167.67,467.54  171.0,467.54  174.33,462.63  177.67,460.17  181.0,455.25  184.33,455.25  187.67,460.17  191.0,450.33  194.33,445.42  197.67,433.13  201.0,452.79  204.33,435.58  207.67,413.46  211.0,396.25  214.33,435.58  217.67,396.25  221.0,352.0  224.33,411.0  227.67,322.5  231.0,388.88  234.33,310.21 " fill="none" stroke="#ea8c4a" stroke-width="3.0">
</polyline>
<polyline points="157.67,470.0  161.0,470.0  164.33,467.54  167.67,467.54  171.0,465.08  174.33,467.54  177.67,467.54  181.0,462.63  184.33,450.33  187.67,452.79  191.0,457.71  194.33,442.96  197.67,457.71  201.0,460.17  204.33,440.5  207.67,433.13  211.0,418.38  214.33,447.88  217.67,406.08  221.0,393.79  224.33,401.17  227.67,388.88  231.0,430.67  234.33,339.71 " fill="none" stroke="#37d7e4" stroke-width="3.0">
</polyline>
<polyline points="157.67,467.54  164.33,470.0  171.0,467.54  174.33,465.08  177.67,467.54  181.0,467.54  184.33,462.63  187.67,460.17  191.0,470.0  194.33,465.08  197.67,462.63  201.0,465.08  204.33,455.25  207.67,438.04  211.0,460.17  214.33,457.71  217.67,435.58  221.0,428.21  224.33,428.21  227.67,423.29  231.0,447.88  234.33,401.17 " fill="none" stroke="#d66979" stroke-width="3.0">
</polyline>
<polyline points="161.0,470.0  164.33,470.0  174.33,470.0  177.67,470.0  181.0,470.0  184.33,465.08  187.67,465.08  191.0,470.0  194.33,470.0  197.67,467.54  201.0,462.63  204.33,462.63  207.67,460.17  211.0,462.63  214.33,465.08  217.67,467.54  221.0,445.42  224.33,450.33  227.67,460.17  231.0,445.42  234.33,455.25 " fill="none" stroke="#27caa0" stroke-width="3.0">
</polyline>
</g>
</g>
<defs>
<clipPath id="ClipPath2">
<rect x="0" y="169" width="25" height="307">
</rect>
</clipPath>
</defs>
<g clip-path="url(#ClipPath2)">
<g fill="#b0b8c3" stroke="#b0b8c3" transform="translate(13.04 473.3) scale(0.012 -0.012)">
<defs>
<path id="g48/TT0" d="M522.0 353.0Q 522.0,195.0  467.0,88.5 T 290.0,-18.0 Q 167.0,-18.0  112.5,88.5 T 58.0,353.0 Q 58.0,512.0  112.5,619.0 T 290.0,726.0 Q 412.0,726.0  467.0,618.5 T 522.0,353.0 Z M131.0 353.0Q 131.0,226.0  167.5,135.0 T 290.0,44.0 Q 375.0,44.0  412.0,135.5 T 449.0,353.0 Q 449.0,480.0  412.0,572.5 T 290.0,665.0 Q 204.0,665.0  167.5,573.0 T 131.0,353.0 Z">
</path>
</defs>
<use x="0" y="0" xlink:href="#g48/TT0"/>
</g>
<text id="Text_190" x="20.0" y="473.3" font-size="9.0pt" font-family="Avenir Next" fill="#b0b8c3" text-anchor="end" opacity="0">
 0</text>
<g fill="#b0b8c3" stroke="#b0b8c3" transform="translate(6.08 425.14) scale(0.012 -0.012)">
<defs>
<path id="g50/TT0" d="M51.0 0 L51.0 75.0 L341.0 368.0Q 380.0,408.0  403.0,447.0 T 426.0,530.0 Q 426.0,590.0  385.5,627.5 T 286.0,665.0 Q 230.0,665.0  191.0,630.0 T 140.0,539.0  L69.0 553.0Q 84.0,629.0  144.0,677.5 T 286.0,726.0 Q 344.0,726.0  392.5,703.5 T 470.0,637.0 T 499.0,531.0 Q 499.0,469.0  470.0,421.5 T 384.0,317.0  L129.0 64.0 L504.0 64.0 L504.0 0 L51.0 0Z">
</path>
</defs>
<use x="0" y="0" xlink:href="#g50/TT0"/>
<use x="580.0" y="0" xlink:href="#g48/TT0"/>
</g>
<text id="Text_191" x="20.0" y="425.14" font-size="9.0pt" font-family="Avenir Next" fill="#b0b8c3" text-anchor="end" opacity="0">
 20</text>
<g fill="#b0b8c3" stroke="#b0b8c3" transform="translate(6.08 375.97) scale(0.012 -0.012)">
<defs>
<path id="g52/TT0" d="M436.0 234.0 L540.0 234.0 L540.0 171.0 L436.0 171.0 L436.0 0 L366.0 0 L366.0 171.0 L42.0 171.0 L42.0 241.0 L342.0 708.0 L436.0 708.0 L436.0 234.0Z M366.0 627.0 L364.0 627.0 L117.0 234.0 L366.0 234.0 L366.0 627.0Z">
</path>
</defs>
<use x="0" y="0" xlink:href="#g52/TT0"/>
<use x="580.0" y="0" xlink:href="#g48/TT0"/>
</g>
<text id="Text_192" x="20.0" y="375.97" font-size="9.0pt" font-family="Avenir Next" fill="#b0b8c3" text-anchor="end" opacity="0">
 40</text>
<g fill="#b0b8c3" stroke="#b0b8c3" transform="translate(6.08 326.8) scale(0.012 -0.012)">
<defs>
<path id="g54/TT0" d="M203.0 397.0Q 218.0,409.0  247.0,416.0 T 304.0,423.0 Q 365.0,423.0  414.5,395.5 T 492.0,318.0 T 520.0,205.0 Q 520.0,140.0  490.5,89.5 T 408.5,10.5 T 290.0,-18.0 Q 224.0,-18.0  171.5,10.5 T 89.5,89.5 T 60.0,205.0 Q 60.0,255.0  77.0,301.5 T 124.0,397.0  L317.0 708.0 L400.0 708.0 L201.0 399.0 L203.0 397.0Z M290.0 43.0Q 336.0,43.0  372.0,64.0 T 428.0,122.0 T 448.0,205.0 Q 448.0,275.0  405.0,320.0 T 290.0,365.0 Q 218.0,365.0  175.0,320.0 T 132.0,205.0 Q 132.0,159.0  152.0,122.0 T 208.0,64.0 T 244.0,43.0 Z">
</path>
</defs>
<use x="0" y="0" xlink:href="#g54/TT0"/>
<use x="580.0" y="0" xlink:href="#g48/TT0"/>
</g>
<text id="Text_193" x="20.0" y="326.8" font-size="9.0pt" font-family="Avenir Next" fill="#b0b8c3" text-anchor="end" opacity="0">
 60</text>
<g fill="#b0b8c3" stroke="#b0b8c3" transform="translate(6.08 277.64) scale(0.012 -0.012)">
<defs>
<path id="g56/TT0" d="M517.0 186.0Q 517.0,126.0  486.0,79.5 T 403.0,7.5 T 290.0,-18.0 Q 229.0,-18.0  177.0,7.5 T 94.0,79.5 T 63.0,186.0 Q 63.0,256.0  100.5,306.5 T 197.0,375.0  L197.0 377.0Q 150.0,393.0  120.0,437.5 T 90.0,537.0 Q 90.0,593.0  117.0,636.0 T 190.0,702.5 T 290.0,726.0 Q 344.0,726.0  390.0,702.5 T 463.0,636.0 T 490.0,537.0 Q 490.0,482.0  460.0,437.5 T 383.0,377.0  L383.0 375.0Q 442.0,358.0  479.5,307.0 T 517.0,186.0 Z M290.0 406.0Q 345.0,406.0  382.5,442.0 T 420.0,533.0 Q 420.0,590.0  383.0,627.5 T 290.0,665.0 Q 234.0,665.0  197.0,627.5 T 160.0,533.0 Q 160.0,478.0  197.5,442.0 T 290.0,406.0 Z M290.0 43.0Q 359.0,43.0  402.0,86.0 T 445.0,194.0 Q 445.0,258.0  402.0,300.0 T 290.0,342.0 Q 221.0,342.0  178.0,300.0 T 135.0,194.0 Q 135.0,129.0  178.0,86.0 T 290.0,43.0 Z">
</path>
</defs>
<use x="0" y="0" xlink:href="#g56/TT0"/>
<use x="580.0" y="0" xlink:href="#g48/TT0"/>
</g>
<text id="Text_194" x="20.0" y="277.64" font-size="9.0pt" font-family="Avenir Next" fill="#b0b8c3" text-anchor="end" opacity="0">
 80</text>
<g fill="#b0b8c3" stroke="#b0b8c3" transform="translate(-0.88 228.47) scale(0.012 -0.012)">
<defs>
<path id="g49/TT0" d="M358.0 0 L286.0 0 L286.0 619.0 L158.0 510.0 L114.0 560.0 L294.0 708.0 L358.0 708.0 L358.0 0Z">
</path>
</defs>
<use x="0" y="0" xlink:href="#g49/TT0"/>
<use x="580.0" y="0" xlink:href="#g48/TT0"/>
<use x="1160.0" y="0" xlink:href="#g48/TT0"/>
</g>
<text id="Text_195" x="20.0" y="228.47" font-size="9.0pt" font-family="Avenir Next" fill="#b0b8c3" text-anchor="end" opacity="0">
 100</text>
<g fill="#b0b8c3" stroke="#b0b8c3" transform="translate(-0.88 180.3) scale(0.012 -0.012)">
<use x="0" y="0" xlink:href="#g49/TT0"/>
<use x="580.0" y="0" xlink:href="#g50/TT0"/>
<use x="1160.0" y="0" xlink:href="#g48/TT0"/>
</g>
<text id="Text_196" x="20.0" y="180.3" font-size="9.0pt" font-family="Avenir Next" fill="#b0b8c3" text-anchor="end" opacity="0">
 120</text>
</g>
<path d="M25.0 476.0L247.0 476.0Z" stroke="#f9fafb" fill="none">
</path>
<defs>
<clipPath id="ClipPath3">
<rect x="25" y="476" width="222" height="24">
</rect>
</clipPath>
</defs>
<g clip-path="url(#ClipPath3)">
<g fill="#b0b8c3" stroke="#b0b8c3" transform="translate(28.0 496.65) scale(0.012 -0.012)">
<use x="0" y="0" xlink:href="#g50/TT0"/>
<use x="580.0" y="0" xlink:href="#g54/TT0"/>
<defs>
<path id="g74/TT0" d="M207.0 45.0Q 332.0,45.0  332.0,209.0  L332.0 708.0 L404.0 708.0 L404.0 204.0Q 404.0,116.0  361.5,49.0 T 215.0,-18.0 Q 140.0,-18.0  89.0,22.0 T 25.0,126.0  L92.0 144.0Q 101.0,101.0  131.5,73.0 T 207.0,45.0 Z">
</path>
</defs>
<use x="1160.0" y="0" xlink:href="#g74/TT0"/>
<use x="1652.0" y="0" xlink:href="#g97/TT0"/>
<defs>
<path id="g110/TT0" d="M155.0 388.0 L157.0 388.0Q 176.0,428.0  221.5,454.0 T 317.0,480.0 Q 404.0,480.0  449.5,428.0 T 495.0,287.0  L495.0 0 L427.0 0 L427.0 259.0Q 427.0,338.0  398.5,380.5 T 300.0,423.0 Q 262.0,423.0  230.0,402.5 T 178.0,341.0 T 158.0,240.0  L158.0 0 L90.0 0 L90.0 365.0Q 90.0,425.0  86.0,468.0  L151.0 468.0Q 155.0,418.0  155.0,388.0 Z">
</path>
</defs>
<use x="2186.0" y="0" xlink:href="#g110/TT0"/>
<use x="2767.0" y="0" xlink:href="#g50/TT0"/>
<use x="3347.0" y="0" xlink:href="#g48/TT0"/>
<use x="3927.0" y="0" xlink:href="#g50/TT0"/>
<use x="4507.0" y="0" xlink:href="#g48/TT0"/>
</g>
<text id="Text_198" x="58.0" y="496.65" font-size="9.0pt" font-family="Avenir Next" fill="#b0b8c3" text-anchor="middle" opacity="0">
 26Jan2020</text>
<g fill="#b0b8c3" stroke="#b0b8c3" transform="translate(181.67 496.65) scale(0.012 -0.012)">
<use x="0" y="0" xlink:href="#g50/TT0"/>
<use x="580.0" y="0" xlink:href="#g50/TT0"/>
<defs>
<path id="g77/TT0" d="M444.0 122.0 L445.0 122.0 L682.0 708.0 L792.0 708.0 L792.0 0 L720.0 0 L720.0 615.0 L718.0 615.0 L462.0 0 L424.0 0 L168.0 615.0 L166.0 615.0 L166.0 0 L94.0 0 L94.0 708.0 L204.0 708.0 L444.0 122.0Z">
</path>
</defs>
<use x="1160.0" y="0" xlink:href="#g77/TT0"/>
<use x="2046.0" y="0" xlink:href="#g97/TT0"/>
<use x="2580.0" y="0" xlink:href="#g114/TT0"/>
<use x="2940.0" y="0" xlink:href="#g50/TT0"/>
<use x="3520.0" y="0" xlink:href="#g48/TT0"/>
<use x="4100.0" y="0" xlink:href="#g50/TT0"/>
<use x="4680.0" y="0" xlink:href="#g48/TT0"/>
</g>
<text id="Text_199" x="212.67" y="496.65" font-size="9.0pt" font-family="Avenir Next" fill="#b0b8c3" text-anchor="middle" opacity="0">
 22Mar2020</text>
</g>
<path d="M31.0 476.0L31.0 482.0Z" stroke="#f9fafb" fill="none">
</path>
<path d="M217.67 476.0L217.67 482.0Z" stroke="#f9fafb" fill="none">
</path>
<path d="M25.0 476.0L247.0 476.0Z" stroke="#f9fafb" fill="none">
</path>
</g>
<g transform=" translate(16.0 -16.0)">
</g>
<g transform=" translate(16.0 -16.0)">
</g>
<g transform=" translate(16.0 -16.0)">
<rect x="55.64" y="76.44" rx="5" ry="5" width="191.36" height="87.95" fill="#103052">
</rect>
<g fill="#f9fafb" stroke="#f9fafb" transform="translate(116.32 96.03) scale(0.014 -0.014)">
<defs>
<path id="g65/TT1" d="M300.0 708.0 L409.0 708.0 L714.0 0 L570.0 0 L504.0 162.0 L197.0 162.0 L133.0 0 L-8.0 0 L300.0 708.0Z M460.0 270.0 L351.0 558.0 L240.0 270.0 L460.0 270.0Z">
</path>
</defs>
<use x="0" y="0" xlink:href="#g65/TT1"/>
<defs>
<path id="g103/TT1" d="M560.0 43.0Q 560.0,-91.0  492.5,-165.5 T 289.0,-240.0 Q 228.0,-240.0  162.0,-219.0 T 51.0,-161.0  L120.0 -68.0Q 154.0,-101.0  198.5,-118.5 T 288.0,-136.0 Q 370.0,-136.0  405.0,-92.5 T 440.0,29.0  L440.0 64.0 L438.0 64.0Q 412.0,29.0  371.5,10.5 T 281.0,-8.0 Q 211.0,-8.0  157.0,25.5 T 73.5,116.5 T 44.0,242.0 Q 44.0,312.0  73.0,369.5 T 155.0,460.5 T 279.0,494.0 Q 331.0,494.0  375.0,472.0 T 444.0,408.0  L446.0 408.0 L446.0 480.0 L560.0 480.0 L560.0 43.0Z M166.0 243.0Q 166.0,204.0  182.5,169.0 T 230.5,112.5 T 303.0,91.0 Q 346.0,91.0  378.5,112.0 T 428.5,168.0 T 446.0,243.0 Q 446.0,285.0  428.5,320.0 T 378.5,375.5 T 304.0,396.0 Q 241.0,396.0  203.5,352.5 T 166.0,243.0 Z">
</path>
</defs>
<use x="706.0" y="0" xlink:href="#g103/TT1"/>
<defs>
<path id="g101/TT1" d="M529.0 202.0 L164.0 202.0Q 168.0,152.0  208.0,118.0 T 301.0,84.0 Q 384.0,84.0  428.0,146.0  L508.0 82.0Q 437.0,-14.0  302.0,-14.0 Q 228.0,-14.0  169.5,16.5 T 77.5,104.0 T 44.0,237.0 Q 44.0,313.0  77.0,371.5 T 168.0,462.0 T 298.0,494.0 Q 402.0,494.0  466.0,427.0 T 530.0,234.0 Q 530.0,213.0  529.0,202.0 Z M297.0 404.0Q 244.0,404.0  206.0,371.0 T 164.0,288.0  L410.0 288.0Q 410.0,338.0  381.0,371.0 T 297.0,404.0 Z">
</path>
</defs>
<use x="1338.0" y="0" xlink:href="#g101/TT1"/>
<use x="1912.0" y="0" xlink:href="#g32/TT1"/>
<defs>
<path id="g71/TT1" d="M431.0 -18.0Q 318.0,-18.0  230.0,29.5 T 93.0,162.0 T 44.0,356.0 Q 44.0,467.0  94.0,551.0 T 231.5,680.5 T 428.0,726.0 Q 510.0,726.0  581.5,702.0 T 697.0,637.0  L610.0 543.0Q 582.0,574.0  533.0,594.5 T 429.0,615.0 Q 356.0,615.0  300.0,581.0 T 213.5,488.0 T 183.0,356.0 Q 183.0,281.0  213.5,221.5 T 301.5,128.5 T 435.0,95.0 Q 516.0,95.0  576.0,120.0  L576.0 300.0 L427.0 300.0 L427.0 404.0 L698.0 404.0 L698.0 37.0Q 583.0,-18.0  431.0,-18.0 Z">
</path>
</defs>
<use x="2162.0" y="0" xlink:href="#g71/TT1"/>
<defs>
<path id="g114/TT1" d="M187.0 480.0 L187.0 400.0 L189.0 400.0Q 209.0,443.0  246.0,468.5 T 329.0,494.0 Q 346.0,494.0  358.0,491.0  L358.0 381.0Q 338.0,386.0  321.0,386.0 Q 272.0,386.0  243.0,363.0 T 203.0,310.5 T 192.0,257.0  L192.0 0 L72.0 0 L72.0 480.0 L187.0 480.0Z">
</path>
</defs>
<use x="2935.0" y="0" xlink:href="#g114/TT1"/>
<defs>
<path id="g111/TT1" d="M305.0 494.0Q 377.0,494.0  437.0,462.5 T 531.5,373.5 T 566.0,242.0 Q 566.0,168.0  531.5,109.5 T 437.0,18.5 T 305.0,-14.0 Q 233.0,-14.0  173.0,18.5 T 78.5,109.5 T 44.0,242.0 Q 44.0,316.0  78.5,373.5 T 173.0,462.5 T 233.0,494.0 Z M305.0 86.0Q 350.0,86.0  381.5,108.5 T 428.5,167.0 T 444.0,242.0 Q 444.0,281.0  428.5,316.5 T 381.5,374.0 T 305.0,396.0 Q 260.0,396.0  228.5,374.0 T 181.5,316.5 T 166.0,242.0 Q 166.0,203.0  181.5,167.0 T 228.5,108.5 T 260.0,86.0 Z">
</path>
</defs>
<use x="3299.0" y="0" xlink:href="#g111/TT1"/>
<defs>
<path id="g117/TT1" d="M396.0 0 L396.0 77.0 L394.0 77.0Q 377.0,39.0  336.5,12.5 T 245.0,-14.0 Q 157.0,-14.0  112.5,42.5 T 68.0,180.0  L68.0 480.0 L188.0 480.0 L188.0 214.0Q 188.0,86.0  278.0,86.0 Q 332.0,86.0  361.0,124.5 T 390.0,216.0  L390.0 480.0 L510.0 480.0 L510.0 0 L396.0 0Z">
</path>
</defs>
<use x="3909.0" y="0" xlink:href="#g117/TT1"/>
<defs>
<path id="g112/TT1" d="M187.0 413.0 L190.0 413.0Q 211.0,446.0  253.5,470.0 T 356.0,494.0 Q 423.0,494.0  476.0,461.0 T 559.0,370.0 T 589.0,242.0 Q 589.0,172.0  560.0,113.5 T 477.5,20.5 T 353.0,-14.0 Q 303.0,-14.0  260.0,7.0 T 194.0,64.0  L192.0 64.0 L192.0 -240.0 L72.0 -240.0 L72.0 480.0 L187.0 480.0 L187.0 413.0Z M329.0 396.0Q 287.0,396.0  255.0,373.5 T 205.5,314.5 T 188.0,240.0 Q 188.0,202.0  205.5,166.5 T 255.0,108.5 T 329.0,86.0 Q 373.0,86.0  404.5,108.5 T 451.5,167.0 T 467.0,242.0 Q 467.0,281.0  451.5,316.5 T 404.5,374.0 T 373.0,396.0 Z">
</path>
</defs>
<use x="4491.0" y="0" xlink:href="#g112/TT1"/>
</g>
<text id="Text_7" x="151.32" y="96.03" font-size="10.5pt" font-family="Avenir Next" font-weight="bold" fill="#f9fafb" text-anchor="middle" opacity="0">
 Age Group</text>
<path d="M61.64 106.94L111.64 106.94Z" stroke="#35a5ff" stroke-width="3.0" fill="none">
</path>
<g fill="#b0b8c3" stroke="#b0b8c3" transform="translate(115.64 111.24) scale(0.012 -0.012)">
<use x="0" y="0" xlink:href="#g48/TT0"/>
<defs>
<path id="g45/TT0" d="M272.0 214.0 L48.0 214.0 L48.0 271.0 L272.0 271.0 L272.0 214.0Z">
</path>
</defs>
<use x="580.0" y="0" xlink:href="#g45/TT0"/>
<use x="900.0" y="0" xlink:href="#g49/TT0"/>
<defs>
<path id="g57/TT0" d="M379.0 311.0Q 364.0,299.0  335.0,292.0 T 278.0,285.0 Q 217.0,285.0  167.5,312.5 T 90.0,390.0 T 62.0,503.0 Q 62.0,568.0  91.5,618.5 T 173.5,697.5 T 292.0,726.0 Q 358.0,726.0  410.5,697.5 T 492.5,618.5 T 522.0,503.0 Q 522.0,453.0  505.0,406.5 T 458.0,311.0  L265.0 0 L182.0 0 L381.0 309.0 L379.0 311.0Z M292.0 665.0Q 246.0,665.0  210.0,644.0 T 154.0,586.0 T 134.0,503.0 Q 134.0,433.0  177.0,388.0 T 292.0,343.0 Q 364.0,343.0  407.0,388.0 T 450.0,503.0 Q 450.0,549.0  430.0,586.0 T 374.0,644.0 T 338.0,665.0 Z">
</path>
</defs>
<use x="1480.0" y="0" xlink:href="#g57/TT0"/>
</g>
<text x="115.64" y="111.24" font-size="9.0pt" font-family="Avenir Next" fill="#b0b8c3" text-anchor="start" opacity="0">
 0-19</text>
<path d="M155.32 106.94L205.32 106.94Z" stroke="#eace5c" stroke-width="3.0" fill="none">
</path>
<g fill="#b0b8c3" stroke="#b0b8c3" transform="translate(209.32 111.24) scale(0.012 -0.012)">
<use x="0" y="0" xlink:href="#g50/TT0"/>
<use x="580.0" y="0" xlink:href="#g48/TT0"/>
<use x="1160.0" y="0" xlink:href="#g45/TT0"/>
<use x="1480.0" y="0" xlink:href="#g52/TT0"/>
<use x="2060.0" y="0" xlink:href="#g52/TT0"/>
</g>
<text x="209.32" y="111.24" font-size="9.0pt" font-family="Avenir Next" fill="#b0b8c3" text-anchor="start" opacity="0">
 20-44</text>
<path d="M61.64 121.64L111.64 121.64Z" stroke="#837cff" stroke-width="3.0" fill="none">
</path>
<g fill="#b0b8c3" stroke="#b0b8c3" transform="translate(115.64 125.94) scale(0.012 -0.012)">
<use x="0" y="0" xlink:href="#g52/TT0"/>
<defs>
<path id="g53/TT0" d="M180.0 644.0 L175.0 425.0Q 219.0,441.0  273.0,441.0 Q 339.0,441.0  391.5,413.0 T 473.5,334.5 T 503.0,219.0 Q 503.0,151.0  473.5,97.0 T 390.5,12.5 T 268.0,-18.0 Q 194.0,-18.0  140.0,16.0 T 56.0,111.0  L121.0 140.0Q 140.0,96.0  179.0,70.0 T 264.0,44.0 Q 311.0,44.0  349.0,66.0 T 408.5,126.5 T 430.0,212.0 Q 430.0,289.0  380.5,335.5 T 254.0,382.0 Q 180.0,382.0  107.0,343.0  L114.0 708.0 L475.0 708.0 L475.0 644.0 L180.0 644.0Z">
</path>
</defs>
<use x="580.0" y="0" xlink:href="#g53/TT0"/>
<use x="1160.0" y="0" xlink:href="#g45/TT0"/>
<use x="1480.0" y="0" xlink:href="#g53/TT0"/>
<use x="2060.0" y="0" xlink:href="#g52/TT0"/>
</g>
<text x="115.64" y="125.94" font-size="9.0pt" font-family="Avenir Next" fill="#b0b8c3" text-anchor="start" opacity="0">
 45-54</text>
<path d="M155.32 121.64L205.32 121.64Z" stroke="#ea8c4a" stroke-width="3.0" fill="none">
</path>
<g fill="#b0b8c3" stroke="#b0b8c3" transform="translate(209.32 125.94) scale(0.012 -0.012)">
<use x="0" y="0" xlink:href="#g53/TT0"/>
<use x="580.0" y="0" xlink:href="#g53/TT0"/>
<use x="1160.0" y="0" xlink:href="#g45/TT0"/>
<use x="1480.0" y="0" xlink:href="#g54/TT0"/>
<use x="2060.0" y="0" xlink:href="#g52/TT0"/>
</g>
<text x="209.32" y="125.94" font-size="9.0pt" font-family="Avenir Next" fill="#b0b8c3" text-anchor="start" opacity="0">
 55-64</text>
<path d="M61.64 136.34L111.64 136.34Z" stroke="#37d7e4" stroke-width="3.0" fill="none">
</path>
<g fill="#b0b8c3" stroke="#b0b8c3" transform="translate(115.64 140.64) scale(0.012 -0.012)">
<use x="0" y="0" xlink:href="#g54/TT0"/>
<use x="580.0" y="0" xlink:href="#g53/TT0"/>
<use x="1160.0" y="0" xlink:href="#g45/TT0"/>
<defs>
<path id="g55/TT0" d="M498.0 642.0 L213.0 0 L132.0 0 L425.0 644.0 L78.0 644.0 L78.0 708.0 L498.0 708.0 L498.0 642.0Z">
</path>
</defs>
<use x="1480.0" y="0" xlink:href="#g55/TT0"/>
<use x="2060.0" y="0" xlink:href="#g52/TT0"/>
</g>
<text x="115.64" y="140.64" font-size="9.0pt" font-family="Avenir Next" fill="#b0b8c3" text-anchor="start" opacity="0">
 65-74</text>
<path d="M155.32 136.34L205.32 136.34Z" stroke="#d66979" stroke-width="3.0" fill="none">
</path>
<g fill="#b0b8c3" stroke="#b0b8c3" transform="translate(209.32 140.64) scale(0.012 -0.012)">
<use x="0" y="0" xlink:href="#g55/TT0"/>
<use x="580.0" y="0" xlink:href="#g53/TT0"/>
<use x="1160.0" y="0" xlink:href="#g45/TT0"/>
<use x="1480.0" y="0" xlink:href="#g56/TT0"/>
<use x="2060.0" y="0" xlink:href="#g52/TT0"/>
</g>
<text x="209.32" y="140.64" font-size="9.0pt" font-family="Avenir Next" fill="#b0b8c3" text-anchor="start" opacity="0">
 75-84</text>
<path d="M61.64 151.04L111.64 151.04Z" stroke="#27caa0" stroke-width="3.0" fill="none">
</path>
<g fill="#b0b8c3" stroke="#b0b8c3" transform="translate(115.64 155.34) scale(0.012 -0.012)">
<use x="0" y="0" xlink:href="#g56/TT0"/>
<use x="580.0" y="0" xlink:href="#g53/TT0"/>
<defs>
<path id="g43/TT0" d="M363.0 333.0 L588.0 333.0 L588.0 273.0 L363.0 273.0 L363.0 48.0 L303.0 48.0 L303.0 273.0 L78.0 273.0 L78.0 333.0 L303.0 333.0 L303.0 558.0 L363.0 558.0 L363.0 333.0Z">
</path>
</defs>
<use x="1160.0" y="0" xlink:href="#g43/TT0"/>
</g>
<text x="115.64" y="155.34" font-size="9.0pt" font-family="Avenir Next" fill="#b0b8c3" text-anchor="start" opacity="0">
 85+</text>
</g>
</g>
</svg>
