<svg xmlns="http://www.w3.org/2000/svg" xmlns:xlink="http://www.w3.org/1999/xlink" version="1.1" width="1040" height="500" viewBox="0 0 1040 500">
<rect x="0" y="0" width="1040" height="500" fill="#103052">
</rect>
<g>
<rect x="0" y="0" rx="5" ry="5" width="1040.0" height="500.0" fill="#011e33" opacity="0">
</rect>
<g transform=" translate(16.0 -462.0)">
<text x="302.73" y="495.5" font-size="13.3pt" font-family="Avenir Next" fill="#ffffff">
 COVID-19 Cases by Age Group by Date of Report</text>
</g>
<g transform=" translate(16.0 -16.0)">
<defs>
<clipPath id="ClipPath0">
<rect x="25" y="100" width="985" height="376">
</rect>
</clipPath>
</defs>
<g clip-path="url(#ClipPath0)">
<defs>
<clipPath id="ClipPath1">
<rect x="25" y="103" width="982" height="373">
</rect>
</clipPath>
</defs>
<g clip-path="url(#ClipPath1)">
<polyline points="554.49,466.99  569.89,470.0  616.08,470.0  631.48,470.0  646.87,470.0  693.06,470.0  708.46,470.0  723.86,470.0  739.25,470.0  754.65,470.0  770.05,470.0  785.44,466.99  800.84,470.0  816.24,466.99  831.63,470.0  847.03,466.99  862.43,470.0  877.83,463.98  893.22,463.98  908.62,454.96  924.02,463.98  939.41,457.97  954.81,466.99  970.21,457.97 " fill="none" stroke="#35a5ff" stroke-width="3.0">
</polyline>
<polyline points="31.0,470.0  184.97,470.0  523.7,470.0  600.68,470.0  616.08,466.99  631.48,470.0  646.87,470.0  662.27,466.99  677.67,466.99  693.06,463.98  708.46,457.97  723.86,466.99  739.25,457.97  754.65,463.98  770.05,451.95  785.44,427.88  800.84,424.88  816.24,427.88  831.63,373.73  847.03,340.64  862.43,376.74  877.83,382.76  893.22,322.59  908.62,292.51  924.02,310.56  939.41,223.32  954.81,310.56  970.21,118.02 " fill="none" stroke="#eace5c" stroke-width="3.0">
</polyline>
<polyline points="200.37,470.0  415.92,470.0  523.7,470.0  600.68,463.98  616.08,470.0  631.48,470.0  646.87,470.0  677.67,470.0  693.06,466.99  708.46,463.98  723.86,460.98  739.25,448.94  754.65,454.96  770.05,454.96  785.44,445.93  800.84,445.93  816.24,451.95  831.63,397.8  847.03,409.83  862.43,409.83  877.83,430.89  893.22,367.72  908.62,331.62  924.02,394.79  939.41,334.63  954.81,400.81  970.21,268.44 " fill="none" stroke="#837cff" stroke-width="3.0">
</polyline>
<polyline points="46.4,470.0  231.16,470.0  554.49,466.99  631.48,470.0  662.27,466.99  677.67,466.99  693.06,460.98  708.46,457.97  723.86,451.95  739.25,451.95  754.65,457.97  770.05,445.93  785.44,439.92  800.84,424.88  816.24,448.94  831.63,427.88  847.03,400.81  862.43,379.75  877.83,427.88  893.22,379.75  908.62,325.6  924.02,397.8  939.41,289.5  954.81,370.73  970.21,274.46 " fill="none" stroke="#ea8c4a" stroke-width="3.0">
</polyline>
<polyline points="616.08,470.0  631.48,470.0  646.87,466.99  662.27,466.99  677.67,463.98  693.06,466.99  708.46,466.99  723.86,460.98  739.25,445.93  754.65,448.94  770.05,454.96  785.44,436.91  800.84,454.96  816.24,457.97  831.63,433.9  847.03,424.88  862.43,406.83  877.83,442.92  893.22,391.78  908.62,376.74  924.02,385.77  939.41,370.73  954.81,421.87  970.21,310.56 " fill="none" stroke="#37d7e4" stroke-width="3.0">
</polyline>
<polyline points="616.08,466.99  646.87,470.0  677.67,466.99  693.06,463.98  708.46,466.99  723.86,466.99  739.25,460.98  754.65,457.97  770.05,470.0  785.44,463.98  800.84,460.98  816.24,463.98  831.63,451.95  847.03,430.89  862.43,457.97  877.83,454.96  893.22,427.88  908.62,418.86  924.02,418.86  939.41,412.84  954.81,442.92  970.21,385.77 " fill="none" stroke="#d66979" stroke-width="3.0">
</polyline>
<polyline points="631.48,470.0  646.87,470.0  693.06,470.0  708.46,470.0  723.86,470.0  739.25,463.98  754.65,463.98  770.05,470.0  785.44,470.0  800.84,466.99  816.24,460.98  831.63,460.98  847.03,457.97  862.43,460.98  877.83,463.98  893.22,466.99  908.62,439.92  924.02,445.93  939.41,457.97  954.81,439.92  970.21,451.95 " fill="none" stroke="#27caa0" stroke-width="3.0">
</polyline>
</g>
</g>
<defs>
<clipPath id="ClipPath2">
<rect x="0" y="103" width="25" height="373">
</rect>
</clipPath>
</defs>
<g clip-path="url(#ClipPath2)">
<g fill="#b0b8c3" stroke="#b0b8c3" transform="translate(13.04 473.3) scale(0.012 -0.012)">
<defs>
<path id="g48/TT0" d="M522.0 353.0Q 522.0,195.0  467.0,88.5 T 290.0,-18.0 Q 167.0,-18.0  112.5,88.5 T 58.0,353.0 Q 58.0,512.0  112.5,619.0 T 290.0,726.0 Q 412.0,726.0  467.0,618.5 T 522.0,353.0 Z M131.0 353.0Q 131.0,226.0  167.5,135.0 T 290.0,44.0 Q 375.0,44.0  412.0,135.5 T 449.0,353.0 Q 449.0,480.0  412.0,572.5 T 290.0,665.0 Q 204.0,665.0  167.5,573.0 T 131.0,353.0 Z">
</path>
</defs>
<use x="0" y="0" xlink:href="#g48/TT0"/>
</g>
<text id="Text_190" x="20.0" y="473.3" font-size="9.0pt" font-family="Avenir Next" fill="#b0b8c3" text-anchor="end" opacity="0">
 0</text>
<g fill="#b0b8c3" stroke="#b0b8c3" transform="translate(6.08 414.14) scale(0.012 -0.012)">
<defs>
<path id="g50/TT0" d="M51.0 0 L51.0 75.0 L341.0 368.0Q 380.0,408.0  403.0,447.0 T 426.0,530.0 Q 426.0,590.0  385.5,627.5 T 286.0,665.0 Q 230.0,665.0  191.0,630.0 T 140.0,539.0  L69.0 553.0Q 84.0,629.0  144.0,677.5 T 286.0,726.0 Q 344.0,726.0  392.5,703.5 T 470.0,637.0 T 499.0,531.0 Q 499.0,469.0  470.0,421.5 T 384.0,317.0  L129.0 64.0 L504.0 64.0 L504.0 0 L51.0 0Z">
</path>
</defs>
<use x="0" y="0" xlink:href="#g50/TT0"/>
<use x="580.0" y="0" xlink:href="#g48/TT0"/>
</g>
<text id="Text_191" x="20.0" y="414.14" font-size="9.0pt" font-family="Avenir Next" fill="#b0b8c3" text-anchor="end" opacity="0">
 20</text>
<g fill="#b0b8c3" stroke="#b0b8c3" transform="translate(6.08 353.97) scale(0.012 -0.012)">
<defs>
<path id="g52/TT0" d="M436.0 234.0 L540.0 234.0 L540.0 171.0 L436.0 171.0 L436.0 0 L366.0 0 L366.0 171.0 L42.0 171.0 L42.0 241.0 L342.0 708.0 L436.0 708.0 L436.0 234.0Z M366.0 627.0 L364.0 627.0 L117.0 234.0 L366.0 234.0 L366.0 627.0Z">
</path>
</defs>
<use x="0" y="0" xlink:href="#g52/TT0"/>
<use x="580.0" y="0" xlink:href="#g48/TT0"/>
</g>
<text id="Text_192" x="20.0" y="353.97" font-size="9.0pt" font-family="Avenir Next" fill="#b0b8c3" text-anchor="end" opacity="0">
 40</text>
<g fill="#b0b8c3" stroke="#b0b8c3" transform="translate(6.08 293.8) scale(0.012 -0.012)">
<defs>
<path id="g54/TT0" d="M203.0 397.0Q 218.0,409.0  247.0,416.0 T 304.0,423.0 Q 365.0,423.0  414.5,395.5 T 492.0,318.0 T 520.0,205.0 Q 520.0,140.0  490.5,89.5 T 408.5,10.5 T 290.0,-18.0 Q 224.0,-18.0  171.5,10.5 T 89.5,89.5 T 60.0,205.0 Q 60.0,255.0  77.0,301.5 T 124.0,397.0  L317.0 708.0 L400.0 708.0 L201.0 399.0 L203.0 397.0Z M290.0 43.0Q 336.0,43.0  372.0,64.0 T 428.0,122.0 T 448.0,205.0 Q 448.0,275.0  405.0,320.0 T 290.0,365.0 Q 218.0,365.0  175.0,320.0 T 132.0,205.0 Q 132.0,159.0  152.0,122.0 T 208.0,64.0 T 244.0,43.0 Z">
</path>
</defs>
<use x="0" y="0" xlink:href="#g54/TT0"/>
<use x="580.0" y="0" xlink:href="#g48/TT0"/>
</g>
<text id="Text_193" x="20.0" y="293.8" font-size="9.0pt" font-family="Avenir Next" fill="#b0b8c3" text-anchor="end" opacity="0">
 60</text>
<g fill="#b0b8c3" stroke="#b0b8c3" transform="translate(6.08 233.64) scale(0.012 -0.012)">
<defs>
<path id="g56/TT0" d="M517.0 186.0Q 517.0,126.0  486.0,79.5 T 403.0,7.5 T 290.0,-18.0 Q 229.0,-18.0  177.0,7.5 T 94.0,79.5 T 63.0,186.0 Q 63.0,256.0  100.5,306.5 T 197.0,375.0  L197.0 377.0Q 150.0,393.0  120.0,437.5 T 90.0,537.0 Q 90.0,593.0  117.0,636.0 T 190.0,702.5 T 290.0,726.0 Q 344.0,726.0  390.0,702.5 T 463.0,636.0 T 490.0,537.0 Q 490.0,482.0  460.0,437.5 T 383.0,377.0  L383.0 375.0Q 442.0,358.0  479.5,307.0 T 517.0,186.0 Z M290.0 406.0Q 345.0,406.0  382.5,442.0 T 420.0,533.0 Q 420.0,590.0  383.0,627.5 T 290.0,665.0 Q 234.0,665.0  197.0,627.5 T 160.0,533.0 Q 160.0,478.0  197.5,442.0 T 290.0,406.0 Z M290.0 43.0Q 359.0,43.0  402.0,86.0 T 445.0,194.0 Q 445.0,258.0  402.0,300.0 T 290.0,342.0 Q 221.0,342.0  178.0,300.0 T 135.0,194.0 Q 135.0,129.0  178.0,86.0 T 290.0,43.0 Z">
</path>
</defs>
<use x="0" y="0" xlink:href="#g56/TT0"/>
<use x="580.0" y="0" xlink:href="#g48/TT0"/>
</g>
<text id="Text_194" x="20.0" y="233.64" font-size="9.0pt" font-family="Avenir Next" fill="#b0b8c3" text-anchor="end" opacity="0">
 80</text>
<g fill="#b0b8c3" stroke="#b0b8c3" transform="translate(-0.88 173.47) scale(0.012 -0.012)">
<defs>
<path id="g49/TT0" d="M358.0 0 L286.0 0 L286.0 619.0 L158.0 510.0 L114.0 560.0 L294.0 708.0 L358.0 708.0 L358.0 0Z">
</path>
</defs>
<use x="0" y="0" xlink:href="#g49/TT0"/>
<use x="580.0" y="0" xlink:href="#g48/TT0"/>
<use x="1160.0" y="0" xlink:href="#g48/TT0"/>
</g>
<text id="Text_195" x="20.0" y="173.47" font-size="9.0pt" font-family="Avenir Next" fill="#b0b8c3" text-anchor="end" opacity="0">
 100</text>
<g fill="#b0b8c3" stroke="#b0b8c3" transform="translate(-0.88 114.3) scale(0.012 -0.012)">
<use x="0" y="0" xlink:href="#g49/TT0"/>
<use x="580.0" y="0" xlink:href="#g50/TT0"/>
<use x="1160.0" y="0" xlink:href="#g48/TT0"/>
</g>
<text id="Text_196" x="20.0" y="114.3" font-size="9.0pt" font-family="Avenir Next" fill="#b0b8c3" text-anchor="end" opacity="0">
 120</text>
</g>
<path d="M25.0 476.0L1007.0 476.0Z" stroke="#f9fafb" fill="none">
</path>
<defs>
<clipPath id="ClipPath3">
<rect x="25" y="476" width="982" height="24">
</rect>
</clipPath>
</defs>
<g clip-path="url(#ClipPath3)">
<g fill="#b0b8c3" stroke="#b0b8c3" transform="translate(28.0 496.65) scale(0.012 -0.012)">
<use x="0" y="0" xlink:href="#g50/TT0"/>
<use x="580.0" y="0" xlink:href="#g54/TT0"/>
<defs>
<path id="g74/TT0" d="M207.0 45.0Q 332.0,45.0  332.0,209.0  L332.0 708.0 L404.0 708.0 L404.0 204.0Q 404.0,116.0  361.5,49.0 T 215.0,-18.0 Q 140.0,-18.0  89.0,22.0 T 25.0,126.0  L92.0 144.0Q 101.0,101.0  131.5,73.0 T 207.0,45.0 Z">
</path>
</defs>
<use x="1160.0" y="0" xlink:href="#g74/TT0"/>
<defs>
<path id="g97/TT0" d="M260.0 423.0Q 220.0,423.0  183.0,408.0 T 121.0,368.0  L83.0 413.0Q 113.0,443.0  161.0,461.5 T 267.0,480.0 Q 347.0,480.0  398.0,436.0 T 449.0,310.0  L449.0 105.0Q 449.0,42.0  457.0,0  L396.0 0Q 389.0,40.0  389.0,76.0  L387.0 76.0Q 355.0,30.0  314.5,9.0 T 217.0,-12.0 Q 178.0,-12.0  141.0,2.5 T 79.5,49.0 T 55.0,130.0 Q 55.0,198.0  99.0,232.0 T 212.5,276.5 T 385.0,287.0  L385.0 302.0Q 385.0,362.0  353.0,392.5 T 260.0,423.0 Z M125.0 133.0Q 125.0,87.0  157.0,65.5 T 235.0,44.0 Q 304.0,44.0  344.5,89.0 T 385.0,199.0  L385.0 234.0 L365.0 234.0Q 259.0,234.0  192.0,213.5 T 125.0,133.0 Z">
</path>
</defs>
<use x="1652.0" y="0" xlink:href="#g97/TT0"/>
<defs>
<path id="g110/TT0" d="M155.0 388.0 L157.0 388.0Q 176.0,428.0  221.5,454.0 T 317.0,480.0 Q 404.0,480.0  449.5,428.0 T 495.0,287.0  L495.0 0 L427.0 0 L427.0 259.0Q 427.0,338.0  398.5,380.5 T 300.0,423.0 Q 262.0,423.0  230.0,402.5 T 178.0,341.0 T 158.0,240.0  L158.0 0 L90.0 0 L90.0 365.0Q 90.0,425.0  86.0,468.0  L151.0 468.0Q 155.0,418.0  155.0,388.0 Z">
</path>
</defs>
<use x="2186.0" y="0" xlink:href="#g110/TT0"/>
<use x="2767.0" y="0" xlink:href="#g50/TT0"/>
<use x="3347.0" y="0" xlink:href="#g48/TT0"/>
<use x="3927.0" y="0" xlink:href="#g50/TT0"/>
<use x="4507.0" y="0" xlink:href="#g48/TT0"/>
</g>
<text id="Text_198" x="58.0" y="496.65" font-size="9.0pt" font-family="Avenir Next" fill="#b0b8c3" text-anchor="middle" opacity="0">
 26Jan2020</text>
<g fill="#b0b8c3" stroke="#b0b8c3" transform="translate(107.78 496.65) scale(0.012 -0.012)">
<use x="0" y="0" xlink:href="#g48/TT0"/>
<use x="580.0" y="0" xlink:href="#g50/TT0"/>
<defs>
<path id="g70/TT0" d="M166.0 0 L94.0 0 L94.0 708.0 L521.0 708.0 L521.0 644.0 L166.0 644.0 L166.0 398.0 L496.0 398.0 L496.0 335.0 L166.0 335.0 L166.0 0Z">
</path>
</defs>
<use x="1160.0" y="0" xlink:href="#g70/TT0"/>
<defs>
<path id="g101/TT0" d="M515.0 216.0 L127.0 216.0Q 128.0,169.0  150.5,130.5 T 212.0,69.0 T 298.0,46.0 Q 347.0,46.0  387.0,69.5 T 448.0,127.0  L499.0 87.0Q 421.0,-12.0  298.0,-12.0 Q 229.0,-12.0  174.0,20.0 T 87.5,108.0 T 56.0,234.0 Q 56.0,303.0  87.0,359.5 T 172.0,448.0 T 292.0,480.0 Q 363.0,480.0  413.5,449.5 T 490.0,366.0 T 516.0,248.0 Q 516.0,228.0  515.0,216.0 Z M292.0 423.0Q 248.0,423.0  211.5,402.0 T 153.0,345.5 T 128.0,270.0  L447.0 270.0Q 444.0,338.0  403.5,380.5 T 292.0,423.0 Z">
</path>
</defs>
<use x="1722.0" y="0" xlink:href="#g101/TT0"/>
<defs>
<path id="g98/TT0" d="M160.0 0 L92.0 0 L92.0 756.0 L160.0 756.0 L160.0 387.0 L162.0 387.0Q 191.0,431.0  239.0,455.5 T 339.0,480.0 Q 410.0,480.0  465.5,447.5 T 551.0,359.0 T 581.0,234.0 Q 581.0,165.0  551.0,109.0 T 465.5,20.5 T 339.0,-12.0 Q 287.0,-12.0  239.0,12.0 T 162.0,79.0  L160.0 79.0 L160.0 0Z M332.0 423.0Q 280.0,423.0  239.0,398.0 T 175.0,330.0 T 152.0,234.0 Q 152.0,181.0  175.0,138.0 T 239.0,70.5 T 332.0,46.0 Q 387.0,46.0  427.0,71.0 T 488.0,138.5 T 509.0,234.0 Q 509.0,287.0  488.0,330.0 T 427.0,398.0 T 387.0,423.0 Z">
</path>
</defs>
<use x="2294.0" y="0" xlink:href="#g98/TT0"/>
<use x="2931.0" y="0" xlink:href="#g50/TT0"/>
<use x="3511.0" y="0" xlink:href="#g48/TT0"/>
<use x="4091.0" y="0" xlink:href="#g50/TT0"/>
<use x="4671.0" y="0" xlink:href="#g48/TT0"/>
</g>
<text id="Text_199" x="138.78" y="496.65" font-size="9.0pt" font-family="Avenir Next" fill="#b0b8c3" text-anchor="middle" opacity="0">
 02Feb2020</text>
<g fill="#b0b8c3" stroke="#b0b8c3" transform="translate(215.56 496.65) scale(0.012 -0.012)">
<use x="0" y="0" xlink:href="#g48/TT0"/>
<defs>
<path id="g57/TT0" d="M379.0 311.0Q 364.0,299.0  335.0,292.0 T 278.0,285.0 Q 217.0,285.0  167.5,312.5 T 90.0,390.0 T 62.0,503.0 Q 62.0,568.0  91.5,618.5 T 173.5,697.5 T 292.0,726.0 Q 358.0,726.0  410.5,697.5 T 492.5,618.5 T 522.0,503.0 Q 522.0,453.0  505.0,406.5 T 458.0,311.0  L265.0 0 L182.0 0 L381.0 309.0 L379.0 311.0Z M292.0 665.0Q 246.0,665.0  210.0,644.0 T 154.0,586.0 T 134.0,503.0 Q 134.0,433.0  177.0,388.0 T 292.0,343.0 Q 364.0,343.0  407.0,388.0 T 450.0,503.0 Q 450.0,549.0  430.0,586.0 T 374.0,644.0 T 338.0,665.0 Z">
</path>
</defs>
<use x="580.0" y="0" xlink:href="#g57/TT0"/>
<use x="1160.0" y="0" xlink:href="#g70/TT0"/>
<use x="1722.0" y="0" xlink:href="#g101/TT0"/>
<use x="2294.0" y="0" xlink:href="#g98/TT0"/>
<use x="2931.0" y="0" xlink:href="#g50/TT0"/>
<use x="3511.0" y="0" xlink:href="#g48/TT0"/>
<use x="4091.0" y="0" xlink:href="#g50/TT0"/>
<use x="4671.0" y="0" xlink:href="#g48/TT0"/>
</g>
<text id="Text_200" x="246.56" y="496.65" font-size="9.0pt" font-family="Avenir Next" fill="#b0b8c3" text-anchor="middle" opacity="0">
 09Feb2020</text>
<g fill="#b0b8c3" stroke="#b0b8c3" transform="translate(323.33 496.65) scale(0.012 -0.012)">
<use x="0" y="0" xlink:href="#g49/TT0"/>
<use x="580.0" y="0" xlink:href="#g54/TT0"/>
<use x="1160.0" y="0" xlink:href="#g70/TT0"/>
<use x="1722.0" y="0" xlink:href="#g101/TT0"/>
<use x="2294.0" y="0" xlink:href="#g98/TT0"/>
<use x="2931.0" y="0" xlink:href="#g50/TT0"/>
<use x="3511.0" y="0" xlink:href="#g48/TT0"/>
<use x="4091.0" y="0" xlink:href="#g50/TT0"/>
<use x="4671.0" y="0" xlink:href="#g48/TT0"/>
</g>
<text id="Text_201" x="354.33" y="496.65" font-size="9.0pt" font-family="Avenir Next" fill="#b0b8c3" text-anchor="middle" opacity="0">
 16Feb2020</text>
<g fill="#b0b8c3" stroke="#b0b8c3" transform="translate(431.11 496.65) scale(0.012 -0.012)">
<use x="0" y="0" xlink:href="#g50/TT0"/>
<defs>
<path id="g51/TT0" d="M245.0 402.0Q 319.0,402.0  364.5,433.5 T 410.0,532.0 Q 410.0,590.0  369.0,627.5 T 270.0,665.0 Q 226.0,665.0  191.0,643.5 T 135.0,582.0  L74.0 614.0Q 106.0,670.0  157.0,698.0 T 274.0,726.0 Q 331.0,726.0  378.0,703.5 T 453.0,638.0 T 481.0,536.0 Q 481.0,475.0  446.5,432.0 T 358.0,374.0  L358.0 372.0Q 421.0,359.0  461.0,312.0 T 501.0,196.0 Q 501.0,131.0  470.0,82.5 T 387.0,8.0 T 273.0,-18.0 Q 196.0,-18.0  137.5,19.5 T 49.0,127.0  L117.0 152.0Q 135.0,102.0  177.0,73.0 T 273.0,44.0 Q 314.0,44.0  350.0,62.5 T 407.5,115.5 T 429.0,196.0 Q 429.0,271.0  376.0,305.5 T 245.0,340.0  L214.0 340.0 L214.0 402.0 L245.0 402.0Z">
</path>
</defs>
<use x="580.0" y="0" xlink:href="#g51/TT0"/>
<use x="1160.0" y="0" xlink:href="#g70/TT0"/>
<use x="1722.0" y="0" xlink:href="#g101/TT0"/>
<use x="2294.0" y="0" xlink:href="#g98/TT0"/>
<use x="2931.0" y="0" xlink:href="#g50/TT0"/>
<use x="3511.0" y="0" xlink:href="#g48/TT0"/>
<use x="4091.0" y="0" xlink:href="#g50/TT0"/>
<use x="4671.0" y="0" xlink:href="#g48/TT0"/>
</g>
<text id="Text_202" x="462.11" y="496.65" font-size="9.0pt" font-family="Avenir Next" fill="#b0b8c3" text-anchor="middle" opacity="0">
 23Feb2020</text>
<g fill="#b0b8c3" stroke="#b0b8c3" transform="translate(538.89 496.65) scale(0.012 -0.012)">
<use x="0" y="0" xlink:href="#g48/TT0"/>
<use x="580.0" y="0" xlink:href="#g49/TT0"/>
<defs>
<path id="g77/TT0" d="M444.0 122.0 L445.0 122.0 L682.0 708.0 L792.0 708.0 L792.0 0 L720.0 0 L720.0 615.0 L718.0 615.0 L462.0 0 L424.0 0 L168.0 615.0 L166.0 615.0 L166.0 0 L94.0 0 L94.0 708.0 L204.0 708.0 L444.0 122.0Z">
</path>
</defs>
<use x="1160.0" y="0" xlink:href="#g77/TT0"/>
<use x="2046.0" y="0" xlink:href="#g97/TT0"/>
<defs>
<path id="g114/TT0" d="M86.0 468.0 L151.0 468.0Q 155.0,418.0  155.0,388.0  L157.0 388.0Q 177.0,429.0  217.5,454.5 T 307.0,480.0 Q 334.0,480.0  352.0,475.0  L343.0 411.0Q 337.0,413.0  322.5,415.0 T 295.0,417.0 Q 236.0,417.0  197.0,372.5 T 158.0,240.0  L158.0 0 L90.0 0 L90.0 365.0Q 90.0,425.0  86.0,468.0 Z">
</path>
</defs>
<use x="2580.0" y="0" xlink:href="#g114/TT0"/>
<use x="2940.0" y="0" xlink:href="#g50/TT0"/>
<use x="3520.0" y="0" xlink:href="#g48/TT0"/>
<use x="4100.0" y="0" xlink:href="#g50/TT0"/>
<use x="4680.0" y="0" xlink:href="#g48/TT0"/>
</g>
<text id="Text_203" x="569.89" y="496.65" font-size="9.0pt" font-family="Avenir Next" fill="#b0b8c3" text-anchor="middle" opacity="0">
 01Mar2020</text>
<g fill="#b0b8c3" stroke="#b0b8c3" transform="translate(646.67 496.65) scale(0.012 -0.012)">
<use x="0" y="0" xlink:href="#g48/TT0"/>
<use x="580.0" y="0" xlink:href="#g56/TT0"/>
<use x="1160.0" y="0" xlink:href="#g77/TT0"/>
<use x="2046.0" y="0" xlink:href="#g97/TT0"/>
<use x="2580.0" y="0" xlink:href="#g114/TT0"/>
<use x="2940.0" y="0" xlink:href="#g50/TT0"/>
<use x="3520.0" y="0" xlink:href="#g48/TT0"/>
<use x="4100.0" y="0" xlink:href="#g50/TT0"/>
<use x="4680.0" y="0" xlink:href="#g48/TT0"/>
</g>
<text id="Text_204" x="677.67" y="496.65" font-size="9.0pt" font-family="Avenir Next" fill="#b0b8c3" text-anchor="middle" opacity="0">
 08Mar2020</text>
<g fill="#b0b8c3" stroke="#b0b8c3" transform="translate(754.44 496.65) scale(0.012 -0.012)">
<use x="0" y="0" xlink:href="#g49/TT0"/>
<defs>
<path id="g53/TT0" d="M180.0 644.0 L175.0 425.0Q 219.0,441.0  273.0,441.0 Q 339.0,441.0  391.5,413.0 T 473.5,334.5 T 503.0,219.0 Q 503.0,151.0  473.5,97.0 T 390.5,12.5 T 268.0,-18.0 Q 194.0,-18.0  140.0,16.0 T 56.0,111.0  L121.0 140.0Q 140.0,96.0  179.0,70.0 T 264.0,44.0 Q 311.0,44.0  349.0,66.0 T 408.5,126.5 T 430.0,212.0 Q 430.0,289.0  380.5,335.5 T 254.0,382.0 Q 180.0,382.0  107.0,343.0  L114.0 708.0 L475.0 708.0 L475.0 644.0 L180.0 644.0Z">
</path>
</defs>
<use x="580.0" y="0" xlink:href="#g53/TT0"/>
<use x="1160.0" y="0" xlink:href="#g77/TT0"/>
<use x="2046.0" y="0" xlink:href="#g97/TT0"/>
<use x="2580.0" y="0" xlink:href="#g114/TT0"/>
<use x="2940.0" y="0" xlink:href="#g50/TT0"/>
<use x="3520.0" y="0" xlink:href="#g48/TT0"/>
<use x="4100.0" y="0" xlink:href="#g50/TT0"/>
<use x="4680.0" y="0" xlink:href="#g48/TT0"/>
</g>
<text id="Text_205" x="785.44" y="496.65" font-size="9.0pt" font-family="Avenir Next" fill="#b0b8c3" text-anchor="middle" opacity="0">
 15Mar2020</text>
<g fill="#b0b8c3" stroke="#b0b8c3" transform="translate(862.22 496.65) scale(0.012 -0.012)">
<use x="0" y="0" xlink:href="#g50/TT0"/>
<use x="580.0" y="0" xlink:href="#g50/TT0"/>
<use x="1160.0" y="0" xlink:href="#g77/TT0"/>
<use x="2046.0" y="0" xlink:href="#g97/TT0"/>
<use x="2580.0" y="0" xlink:href="#g114/TT0"/>
<use x="2940.0" y="0" xlink:href="#g50/TT0"/>
<use x="3520.0" y="0" xlink:href="#g48/TT0"/>
<use x="4100.0" y="0" xlink:href="#g50/TT0"/>
<use x="4680.0" y="0" xlink:href="#g48/TT0"/>
</g>
<text id="Text_206" x="893.22" y="496.65" font-size="9.0pt" font-family="Avenir Next" fill="#b0b8c3" text-anchor="middle" opacity="0">
 22Mar2020</text>
<g fill="#b0b8c3" stroke="#b0b8c3" transform="translate(942.0 496.65) scale(0.012 -0.012)">
<use x="0" y="0" xlink:href="#g50/TT0"/>
<use x="580.0" y="0" xlink:href="#g57/TT0"/>
<use x="1160.0" y="0" xlink:href="#g77/TT0"/>
<use x="2046.0" y="0" xlink:href="#g97/TT0"/>
<use x="2580.0" y="0" xlink:href="#g114/TT0"/>
<use x="2940.0" y="0" xlink:href="#g50/TT0"/>
<use x="3520.0" y="0" xlink:href="#g48/TT0"/>
<use x="4100.0" y="0" xlink:href="#g50/TT0"/>
<use x="4680.0" y="0" xlink:href="#g48/TT0"/>
</g>
<text id="Text_207" x="973.0" y="496.65" font-size="9.0pt" font-family="Avenir Next" fill="#b0b8c3" text-anchor="middle" opacity="0">
 29Mar2020</text>
</g>
<path d="M31.0 476.0L31.0 482.0Z" stroke="#f9fafb" fill="none">
</path>
<path d="M138.78 476.0L138.78 482.0Z" stroke="#f9fafb" fill="none">
</path>
<path d="M246.56 476.0L246.56 482.0Z" stroke="#f9fafb" fill="none">
</path>
<path d="M354.33 476.0L354.33 482.0Z" stroke="#f9fafb" fill="none">
</path>
<path d="M462.11 476.0L462.11 482.0Z" stroke="#f9fafb" fill="none">
</path>
<path d="M569.89 476.0L569.89 482.0Z" stroke="#f9fafb" fill="none">
</path>
<path d="M677.67 476.0L677.67 482.0Z" stroke="#f9fafb" fill="none">
</path>
<path d="M785.44 476.0L785.44 482.0Z" stroke="#f9fafb" fill="none">
</path>
<path d="M893.22 476.0L893.22 482.0Z" stroke="#f9fafb" fill="none">
</path>
<path d="M1001.0 476.0L1001.0 482.0Z" stroke="#f9fafb" fill="none">
</path>
<path d="M25.0 476.0L1007.0 476.0Z" stroke="#f9fafb" fill="none">
</path>
</g>
<g transform=" translate(16.0 -16.0)">
</g>
<g transform=" translate(16.0 -16.0)">
</g>
<g transform=" translate(16.0 -16.0)">
<rect x="363.97" y="54.72" rx="5" ry="5" width="643.03" height="43.85" fill="#103052">
</rect>
<g fill="#f9fafb" stroke="#f9fafb" transform="translate(650.48 74.31) scale(0.014 -0.014)">
<defs>
<path id="g65/TT1" d="M300.0 708.0 L409.0 708.0 L714.0 0 L570.0 0 L504.0 162.0 L197.0 162.0 L133.0 0 L-8.0 0 L300.0 708.0Z M460.0 270.0 L351.0 558.0 L240.0 270.0 L460.0 270.0Z">
</path>
</defs>
<use x="0" y="0" xlink:href="#g65/TT1"/>
<defs>
<path id="g103/TT1" d="M560.0 43.0Q 560.0,-91.0  492.5,-165.5 T 289.0,-240.0 Q 228.0,-240.0  162.0,-219.0 T 51.0,-161.0  L120.0 -68.0Q 154.0,-101.0  198.5,-118.5 T 288.0,-136.0 Q 370.0,-136.0  405.0,-92.5 T 440.0,29.0  L440.0 64.0 L438.0 64.0Q 412.0,29.0  371.5,10.5 T 281.0,-8.0 Q 211.0,-8.0  157.0,25.5 T 73.5,116.5 T 44.0,242.0 Q 44.0,312.0  73.0,369.5 T 155.0,460.5 T 279.0,494.0 Q 331.0,494.0  375.0,472.0 T 444.0,408.0  L446.0 408.0 L446.0 480.0 L560.0 480.0 L560.0 43.0Z M166.0 243.0Q 166.0,204.0  182.5,169.0 T 230.5,112.5 T 303.0,91.0 Q 346.0,91.0  378.5,112.0 T 428.5,168.0 T 446.0,243.0 Q 446.0,285.0  428.5,320.0 T 378.5,375.5 T 304.0,396.0 Q 241.0,396.0  203.5,352.5 T 166.0,243.0 Z">
</path>
</defs>
<use x="706.0" y="0" xlink:href="#g103/TT1"/>
<defs>
<path id="g101/TT1" d="M529.0 202.0 L164.0 202.0Q 168.0,152.0  208.0,118.0 T 301.0,84.0 Q 384.0,84.0  428.0,146.0  L508.0 82.0Q 437.0,-14.0  302.0,-14.0 Q 228.0,-14.0  169.5,16.5 T 77.5,104.0 T 44.0,237.0 Q 44.0,313.0  77.0,371.5 T 168.0,462.0 T 298.0,494.0 Q 402.0,494.0  466.0,427.0 T 530.0,234.0 Q 530.0,213.0  529.0,202.0 Z M297.0 404.0Q 244.0,404.0  206.0,371.0 T 164.0,288.0  L410.0 288.0Q 410.0,338.0  381.0,371.0 T 297.0,404.0 Z">
</path>
</defs>
<use x="1338.0" y="0" xlink:href="#g101/TT1"/>
<use x="1912.0" y="0" xlink:href="#g32/TT1"/>
<defs>
<path id="g71/TT1" d="M431.0 -18.0Q 318.0,-18.0  230.0,29.5 T 93.0,162.0 T 44.0,356.0 Q 44.0,467.0  94.0,551.0 T 231.5,680.5 T 428.0,726.0 Q 510.0,726.0  581.5,702.0 T 697.0,637.0  L610.0 543.0Q 582.0,574.0  533.0,594.5 T 429.0,615.0 Q 356.0,615.0  300.0,581.0 T 213.5,488.0 T 183.0,356.0 Q 183.0,281.0  213.5,221.5 T 301.5,128.5 T 435.0,95.0 Q 516.0,95.0  576.0,120.0  L576.0 300.0 L427.0 300.0 L427.0 404.0 L698.0 404.0 L698.0 37.0Q 583.0,-18.0  431.0,-18.0 Z">
</path>
</defs>
<use x="2162.0" y="0" xlink:href="#g71/TT1"/>
<defs>
<path id="g114/TT1" d="M187.0 480.0 L187.0 400.0 L189.0 400.0Q 209.0,443.0  246.0,468.5 T 329.0,494.0 Q 346.0,494.0  358.0,491.0  L358.0 381.0Q 338.0,386.0  321.0,386.0 Q 272.0,386.0  243.0,363.0 T 203.0,310.5 T 192.0,257.0  L192.0 0 L72.0 0 L72.0 480.0 L187.0 480.0Z">
</path>
</defs>
<use x="2935.0" y="0" xlink:href="#g114/TT1"/>
<defs>
<path id="g111/TT1" d="M305.0 494.0Q 377.0,494.0  437.0,462.5 T 531.5,373.5 T 566.0,242.0 Q 566.0,168.0  531.5,109.5 T 437.0,18.5 T 305.0,-14.0 Q 233.0,-14.0  173.0,18.5 T 78.5,109.5 T 44.0,242.0 Q 44.0,316.0  78.5,373.5 T 173.0,462.5 T 233.0,494.0 Z M305.0 86.0Q 350.0,86.0  381.5,108.5 T 428.5,167.0 T 444.0,242.0 Q 444.0,281.0  428.5,316.5 T 381.5,374.0 T 305.0,396.0 Q 260.0,396.0  228.5,374.0 T 181.5,316.5 T 166.0,242.0 Q 166.0,203.0  181.5,167.0 T 228.5,108.5 T 260.0,86.0 Z">
</path>
</defs>
<use x="3299.0" y="0" xlink:href="#g111/TT1"/>
<defs>
<path id="g117/TT1" d="M396.0 0 L396.0 77.0 L394.0 77.0Q 377.0,39.0  336.5,12.5 T 245.0,-14.0 Q 157.0,-14.0  112.5,42.5 T 68.0,180.0  L68.0 480.0 L188.0 480.0 L188.0 214.0Q 188.0,86.0  278.0,86.0 Q 332.0,86.0  361.0,124.5 T 390.0,216.0  L390.0 480.0 L510.0 480.0 L510.0 0 L396.0 0Z">
</path>
</defs>
<use x="3909.0" y="0" xlink:href="#g117/TT1"/>
<defs>
<path id="g112/TT1" d="M187.0 413.0 L190.0 413.0Q 211.0,446.0  253.5,470.0 T 356.0,494.0 Q 423.0,494.0  476.0,461.0 T 559.0,370.0 T 589.0,242.0 Q 589.0,172.0  560.0,113.5 T 477.5,20.5 T 353.0,-14.0 Q 303.0,-14.0  260.0,7.0 T 194.0,64.0  L192.0 64.0 L192.0 -240.0 L72.0 -240.0 L72.0 480.0 L187.0 480.0 L187.0 413.0Z M329.0 396.0Q 287.0,396.0  255.0,373.5 T 205.5,314.5 T 188.0,240.0 Q 188.0,202.0  205.5,166.5 T 255.0,108.5 T 329.0,86.0 Q 373.0,86.0  404.5,108.5 T 451.5,167.0 T 467.0,242.0 Q 467.0,281.0  451.5,316.5 T 404.5,374.0 T 373.0,396.0 Z">
</path>
</defs>
<use x="4491.0" y="0" xlink:href="#g112/TT1"/>
</g>
<text id="Text_7" x="685.48" y="74.31" font-size="10.5pt" font-family="Avenir Next" font-weight="bold" fill="#f9fafb" text-anchor="middle" opacity="0">
 Age Group</text>
<path d="M369.97 85.22L419.97 85.22Z" stroke="#35a5ff" stroke-width="3.0" fill="none">
</path>
<g fill="#b0b8c3" stroke="#b0b8c3" transform="translate(423.97 89.52) scale(0.012 -0.012)">
<use x="0" y="0" xlink:href="#g48/TT0"/>
<defs>
<path id="g45/TT0" d="M272.0 214.0 L48.0 214.0 L48.0 271.0 L272.0 271.0 L272.0 214.0Z">
</path>
</defs>
<use x="580.0" y="0" xlink:href="#g45/TT0"/>
<use x="900.0" y="0" xlink:href="#g49/TT0"/>
<use x="1480.0" y="0" xlink:href="#g57/TT0"/>
</g>
<text x="423.97" y="89.52" font-size="9.0pt" font-family="Avenir Next" fill="#b0b8c3" text-anchor="start" opacity="0">
 0-19</text>
<path d="M456.69 85.22L506.69 85.22Z" stroke="#eace5c" stroke-width="3.0" fill="none">
</path>
<g fill="#b0b8c3" stroke="#b0b8c3" transform="translate(510.69 89.52) scale(0.012 -0.012)">
<use x="0" y="0" xlink:href="#g50/TT0"/>
<use x="580.0" y="0" xlink:href="#g48/TT0"/>
<use x="1160.0" y="0" xlink:href="#g45/TT0"/>
<use x="1480.0" y="0" xlink:href="#g52/TT0"/>
<use x="2060.0" y="0" xlink:href="#g52/TT0"/>
</g>
<text x="510.69" y="89.52" font-size="9.0pt" font-family="Avenir Next" fill="#b0b8c3" text-anchor="start" opacity="0">
 20-44</text>
<path d="M550.37 85.22L600.37 85.22Z" stroke="#837cff" stroke-width="3.0" fill="none">
</path>
<g fill="#b0b8c3" stroke="#b0b8c3" transform="translate(604.37 89.52) scale(0.012 -0.012)">
<use x="0" y="0" xlink:href="#g52/TT0"/>
<use x="580.0" y="0" xlink:href="#g53/TT0"/>
<use x="1160.0" y="0" xlink:href="#g45/TT0"/>
<use x="1480.0" y="0" xlink:href="#g53/TT0"/>
<use x="2060.0" y="0" xlink:href="#g52/TT0"/>
</g>
<text x="604.37" y="89.52" font-size="9.0pt" font-family="Avenir Next" fill="#b0b8c3" text-anchor="start" opacity="0">
 45-54</text>
<path d="M644.05 85.22L694.05 85.22Z" stroke="#ea8c4a" stroke-width="3.0" fill="none">
</path>
<g fill="#b0b8c3" stroke="#b0b8c3" transform="translate(698.05 89.52) scale(0.012 -0.012)">
<use x="0" y="0" xlink:href="#g53/TT0"/>
<use x="580.0" y="0" xlink:href="#g53/TT0"/>
<use x="1160.0" y="0" xlink:href="#g45/TT0"/>
<use x="1480.0" y="0" xlink:href="#g54/TT0"/>
<use x="2060.0" y="0" xlink:href="#g52/TT0"/>
</g>
<text x="698.05" y="89.52" font-size="9.0pt" font-family="Avenir Next" fill="#b0b8c3" text-anchor="start" opacity="0">
 55-64</text>
<path d="M737.73 85.22L787.73 85.22Z" stroke="#37d7e4" stroke-width="3.0" fill="none">
</path>
<g fill="#b0b8c3" stroke="#b0b8c3" transform="translate(791.73 89.52) scale(0.012 -0.012)">
<use x="0" y="0" xlink:href="#g54/TT0"/>
<use x="580.0" y="0" xlink:href="#g53/TT0"/>
<use x="1160.0" y="0" xlink:href="#g45/TT0"/>
<defs>
<path id="g55/TT0" d="M498.0 642.0 L213.0 0 L132.0 0 L425.0 644.0 L78.0 644.0 L78.0 708.0 L498.0 708.0 L498.0 642.0Z">
</path>
</defs>
<use x="1480.0" y="0" xlink:href="#g55/TT0"/>
<use x="2060.0" y="0" xlink:href="#g52/TT0"/>
</g>
<text x="791.73" y="89.52" font-size="9.0pt" font-family="Avenir Next" fill="#b0b8c3" text-anchor="start" opacity="0">
 65-74</text>
<path d="M831.41 85.22L881.41 85.22Z" stroke="#d66979" stroke-width="3.0" fill="none">
</path>
<g fill="#b0b8c3" stroke="#b0b8c3" transform="translate(885.41 89.52) scale(0.012 -0.012)">
<use x="0" y="0" xlink:href="#g55/TT0"/>
<use x="580.0" y="0" xlink:href="#g53/TT0"/>
<use x="1160.0" y="0" xlink:href="#g45/TT0"/>
<use x="1480.0" y="0" xlink:href="#g56/TT0"/>
<use x="2060.0" y="0" xlink:href="#g52/TT0"/>
</g>
<text x="885.41" y="89.52" font-size="9.0pt" font-family="Avenir Next" fill="#b0b8c3" text-anchor="start" opacity="0">
 75-84</text>
<path d="M925.09 85.22L975.09 85.22Z" stroke="#27caa0" stroke-width="3.0" fill="none">
</path>
<g fill="#b0b8c3" stroke="#b0b8c3" transform="translate(979.09 89.52) scale(0.012 -0.012)">
<use x="0" y="0" xlink:href="#g56/TT0"/>
<use x="580.0" y="0" xlink:href="#g53/TT0"/>
<defs>
<path id="g43/TT0" d="M363.0 333.0 L588.0 333.0 L588.0 273.0 L363.0 273.0 L363.0 48.0 L303.0 48.0 L303.0 273.0 L78.0 273.0 L78.0 333.0 L303.0 333.0 L303.0 558.0 L363.0 558.0 L363.0 333.0Z">
</path>
</defs>
<use x="1160.0" y="0" xlink:href="#g43/TT0"/>
</g>
<text x="979.09" y="89.52" font-size="9.0pt" font-family="Avenir Next" fill="#b0b8c3" text-anchor="start" opacity="0">
 85+</text>
</g>
</g>
</svg>
