<svg xmlns="http://www.w3.org/2000/svg" xmlns:xlink="http://www.w3.org/1999/xlink" version="1.1" width="375" height="200" viewBox="0 0 375 200">
<rect x="0" y="0" width="375" height="200" fill="#103052">
</rect>
<g>
<rect x="0" y="0" rx="5" ry="5" width="375.0" height="200.0" fill="#011e33" opacity="0">
</rect>
<g transform=" translate(16.0 -16.0)">
<defs>
<clipPath id="ClipPath0">
<rect x="0" y="33" width="342" height="167">
</rect>
</clipPath>
</defs>
<g clip-path="url(#ClipPath0)">
<g fill="#f9fafb" stroke="#f9fafb" transform="translate(51.0 74.94) scale(0.031 -0.031)">
<defs>
<path id="g67/TT0" d="M428.0 615.0Q 356.0,615.0  300.5,581.0 T 214.0,488.0 T 183.0,356.0 Q 183.0,279.0  212.5,220.0 T 296.5,128.0 T 423.0,95.0 Q 478.0,95.0  522.5,117.0 T 595.0,177.0  L696.0 106.0Q 648.0,46.0  579.0,14.0 T 422.0,-18.0 Q 313.0,-18.0  227.0,29.5 T 92.5,162.0 T 44.0,356.0 Q 44.0,467.0  94.0,551.0 T 231.5,680.5 T 428.0,726.0 Q 502.0,726.0  573.5,698.5 T 685.0,618.0  L589.0 542.0Q 563.0,578.0  518.5,596.5 T 428.0,615.0 Z">
</path>
</defs>
<use x="0" y="0" xlink:href="#g67/TT0"/>
<defs>
<path id="g79/TT0" d="M423.0 726.0Q 533.0,726.0  620.0,680.5 T 756.0,551.0 T 805.0,356.0 Q 805.0,247.0  756.0,162.0 T 619.5,29.5 T 423.0,-18.0 Q 315.0,-18.0  228.5,29.5 T 93.0,162.0 T 44.0,356.0 Q 44.0,467.0  93.0,551.0 T 228.0,680.5 T 314.0,726.0 Z M424.0 95.0Q 495.0,95.0  550.5,128.5 T 637.0,221.5 T 668.0,356.0 Q 668.0,429.0  637.5,488.0 T 551.5,581.0 T 424.0,615.0 Q 353.0,615.0  297.5,581.0 T 211.5,488.0 T 181.0,356.0 Q 181.0,281.0  212.0,221.5 T 298.0,128.5 T 353.0,95.0 Z">
</path>
</defs>
<use x="696.0" y="0" xlink:href="#g79/TT0"/>
<defs>
<path id="g86/TT0" d="M-10.0 708.0 L131.0 708.0 L326.0 163.0 L330.0 163.0 L527.0 708.0 L663.0 708.0 L379.0 0 L270.0 0 L-10.0 708.0Z">
</path>
</defs>
<use x="1545.0" y="0" xlink:href="#g86/TT0"/>
<defs>
<path id="g73/TT0" d="M78.0 708.0 L204.0 708.0 L204.0 0 L78.0 0 L78.0 708.0Z">
</path>
</defs>
<use x="2198.0" y="0" xlink:href="#g73/TT0"/>
<defs>
<path id="g68/TT0" d="M329.0 708.0Q 430.0,708.0  518.5,673.0 T 663.5,558.5 T 720.0,354.0 Q 720.0,237.0  663.0,157.0 T 516.5,38.5 T 329.0,0  L78.0 0 L78.0 708.0 L329.0 708.0Z M585.0 354.0Q 585.0,492.0  506.0,546.0 T 309.0,600.0  L204.0 600.0 L204.0 110.0 L309.0 110.0Q 424.0,110.0  504.5,166.5 T 585.0,354.0 Z">
</path>
</defs>
<use x="2480.0" y="0" xlink:href="#g68/TT0"/>
<defs>
<path id="g45/TT0" d="M280.0 195.0 L40.0 195.0 L40.0 297.0 L280.0 297.0 L280.0 195.0Z">
</path>
</defs>
<use x="3244.0" y="0" xlink:href="#g45/TT0"/>
<defs>
<path id="g49/TT0" d="M279.0 562.0 L139.0 447.0 L69.0 530.0 L290.0 708.0 L399.0 708.0 L399.0 0 L279.0 0 L279.0 562.0Z">
</path>
</defs>
<use x="3564.0" y="0" xlink:href="#g49/TT0"/>
<defs>
<path id="g57/TT0" d="M350.0 263.0 L349.0 264.0Q 335.0,258.0  314.0,254.5 T 273.0,251.0 Q 211.0,251.0  159.5,281.0 T 77.5,363.0 T 47.0,478.0 Q 47.0,551.0  81.0,607.5 T 174.0,695.0 T 305.0,726.0 Q 378.0,726.0  437.0,694.0 T 530.0,606.5 T 564.0,483.0 Q 564.0,426.0  546.5,380.5 T 491.0,274.0  L314.0 0 L168.0 0 L350.0 263.0Z M306.0 626.0Q 245.0,626.0  207.5,586.5 T 170.0,484.0 Q 170.0,424.0  207.0,385.0 T 304.0,346.0 Q 365.0,346.0  403.5,385.0 T 442.0,486.0 Q 442.0,523.0  425.0,555.0 T 377.0,606.5 T 346.0,626.0 Z">
</path>
</defs>
<use x="4174.0" y="0" xlink:href="#g57/TT0"/>
<use x="4784.0" y="0" xlink:href="#g32/TT0"/>
<use x="5034.0" y="0" xlink:href="#g67/TT0"/>
<defs>
<path id="g97/TT0" d="M367.0 61.0Q 349.0,29.0  308.5,8.5 T 218.0,-12.0 Q 175.0,-12.0  134.0,3.0 T 65.5,51.5 T 38.0,137.0 Q 38.0,233.0  131.0,266.5 T 368.0,300.0  L368.0 312.0Q 368.0,354.0  337.0,377.0 T 258.0,400.0 Q 221.0,400.0  186.0,384.5 T 127.0,345.0  L65.0 418.0Q 105.0,455.0  158.5,474.5 T 268.0,494.0 Q 385.0,494.0  433.5,436.0 T 482.0,292.0  L482.0 0 L370.0 0 L370.0 61.0 L367.0 61.0Z M341.0 219.0Q 158.0,219.0  158.0,139.0 Q 158.0,107.0  182.5,93.0 T 242.0,79.0 Q 303.0,79.0  335.5,111.5 T 368.0,202.0  L368.0 219.0 L341.0 219.0Z">
</path>
</defs>
<use x="5730.0" y="0" xlink:href="#g97/TT0"/>
<defs>
<path id="g115/TT0" d="M230.0 404.0Q 198.0,404.0  175.5,391.0 T 153.0,352.0 Q 153.0,327.0  176.0,315.0 T 257.0,289.0 Q 325.0,273.0  368.5,241.0 T 412.0,146.0 Q 412.0,64.0  355.5,25.0 T 212.0,-14.0 Q 155.0,-14.0  102.0,7.0 T 15.0,65.0  L94.0 139.0Q 114.0,112.0  146.5,95.5 T 217.0,79.0 Q 248.0,79.0  271.0,93.0 T 294.0,136.0 Q 294.0,164.0  269.5,177.5 T 184.0,205.0 Q 119.0,221.0  80.5,250.5 T 42.0,341.0 Q 42.0,416.0  98.0,455.0 T 233.0,494.0 Q 287.0,494.0  336.0,475.0 T 413.0,421.0  L335.0 352.0Q 318.0,374.0  290.0,389.0 T 230.0,404.0 Z">
</path>
</defs>
<use x="6280.0" y="0" xlink:href="#g115/TT0"/>
<defs>
<path id="g101/TT0" d="M529.0 202.0 L164.0 202.0Q 168.0,152.0  208.0,118.0 T 301.0,84.0 Q 384.0,84.0  428.0,146.0  L508.0 82.0Q 437.0,-14.0  302.0,-14.0 Q 228.0,-14.0  169.5,16.5 T 77.5,104.0 T 44.0,237.0 Q 44.0,313.0  77.0,371.5 T 168.0,462.0 T 298.0,494.0 Q 402.0,494.0  466.0,427.0 T 530.0,234.0 Q 530.0,213.0  529.0,202.0 Z M297.0 404.0Q 244.0,404.0  206.0,371.0 T 164.0,288.0  L410.0 288.0Q 410.0,338.0  381.0,371.0 T 297.0,404.0 Z">
</path>
</defs>
<use x="6724.0" y="0" xlink:href="#g101/TT0"/>
<use x="7298.0" y="0" xlink:href="#g115/TT0"/>
</g>
<text id="Text_6" x="171.0" y="74.94" font-size="23.3pt" font-family="Avenir Next" font-weight="bold" fill="#f9fafb" text-anchor="middle" opacity="0">
 COVID-19 Cases</text>
<g fill="#35a5ff" stroke="#35a5ff" transform="translate(67.0 166.32) scale(0.086 -0.086)">
<use x="0" y="0" xlink:href="#g49/TT0"/>
<defs>
<path id="g54/TT0" d="M260.0 446.0 L261.0 445.0Q 275.0,451.0  296.0,454.0 T 336.0,457.0 Q 398.0,457.0  449.5,427.0 T 531.5,345.0 T 562.0,230.0 Q 562.0,157.0  528.0,100.5 T 435.0,13.0 T 304.0,-18.0 Q 231.0,-18.0  172.0,14.0 T 79.0,101.5 T 45.0,225.0 Q 45.0,282.0  62.5,327.5 T 118.0,434.0  L295.0 708.0 L441.0 708.0 L260.0 446.0Z M303.0 84.0Q 364.0,84.0  401.5,122.5 T 439.0,224.0 Q 439.0,284.0  402.0,323.0 T 305.0,362.0 Q 244.0,362.0  205.5,323.0 T 167.0,222.0 Q 167.0,185.0  184.0,153.5 T 232.0,103.0 T 263.0,84.0 Z">
</path>
</defs>
<use x="610.0" y="0" xlink:href="#g54/TT0"/>
<use x="1220.0" y="0" xlink:href="#g54/TT0"/>
<defs>
<path id="g56/TT0" d="M529.0 534.0Q 529.0,474.0  499.0,432.0 T 419.0,374.0  L419.0 372.0Q 476.0,358.0  514.0,311.0 T 552.0,200.0 Q 552.0,132.0  519.0,82.5 T 430.0,7.5 T 305.0,-18.0 Q 236.0,-18.0  180.0,7.5 T 91.0,82.5 T 58.0,200.0 Q 58.0,265.0  96.5,311.5 T 191.0,372.0  L191.0 374.0Q 141.0,392.0  111.0,431.0 T 81.0,529.0 Q 81.0,588.0  111.0,632.5 T 192.0,701.5 T 305.0,726.0 Q 367.0,726.0  418.5,702.5 T 499.5,635.5 T 529.0,592.0 Z M203.0 527.0Q 203.0,483.0  231.0,453.5 T 305.0,424.0 Q 348.0,424.0  378.0,454.0 T 408.0,527.0 Q 408.0,571.0  377.5,599.0 T 305.0,627.0 Q 260.0,627.0  231.5,599.5 T 203.0,527.0 Z M182.0 201.0Q 182.0,147.0  216.5,115.0 T 305.0,83.0 Q 358.0,83.0  392.5,115.0 T 427.0,201.0 Q 427.0,253.0  391.5,287.5 T 305.0,322.0 Q 253.0,322.0  217.5,288.0 T 182.0,201.0 Z">
</path>
</defs>
<use x="1830.0" y="0" xlink:href="#g56/TT0"/>
</g>
<text id="Text_7" x="171.0" y="166.32" font-size="64.5pt" font-family="Avenir Next" font-weight="bold" fill="#35a5ff" text-anchor="middle" opacity="0">
 1668</text>
</g>
</g>
<g transform=" translate(16.0 -16.0)">
</g>
<g transform=" translate(16.0 -16.0)">
</g>
<g transform=" translate(16.0 -16.0)">
</g>
</g>
</svg>
