<svg xmlns="http://www.w3.org/2000/svg" xmlns:xlink="http://www.w3.org/1999/xlink" version="1.1" width="375" height="200" viewBox="0 0 375 200">
<rect x="0" y="0" width="375" height="200" fill="#103052">
</rect>
<g>
<rect x="0" y="0" rx="5" ry="5" width="375.0" height="200.0" fill="#011e33" opacity="0">
</rect>
<g transform=" translate(16.0 -16.0)">
<defs>
<clipPath id="ClipPath0">
<rect x="0" y="33" width="342" height="167">
</rect>
</clipPath>
</defs>
<g clip-path="url(#ClipPath0)">
<g fill="#f9fafb" stroke="#f9fafb" transform="translate(121.0 74.94) scale(0.031 -0.031)">
<defs>
<path id="g68/TT0" d="M329.0 708.0Q 430.0,708.0  518.5,673.0 T 663.5,558.5 T 720.0,354.0 Q 720.0,237.0  663.0,157.0 T 516.5,38.5 T 329.0,0  L78.0 0 L78.0 708.0 L329.0 708.0Z M585.0 354.0Q 585.0,492.0  506.0,546.0 T 309.0,600.0  L204.0 600.0 L204.0 110.0 L309.0 110.0Q 424.0,110.0  504.5,166.5 T 585.0,354.0 Z">
</path>
</defs>
<use x="0" y="0" xlink:href="#g68/TT0"/>
<defs>
<path id="g101/TT0" d="M529.0 202.0 L164.0 202.0Q 168.0,152.0  208.0,118.0 T 301.0,84.0 Q 384.0,84.0  428.0,146.0  L508.0 82.0Q 437.0,-14.0  302.0,-14.0 Q 228.0,-14.0  169.5,16.5 T 77.5,104.0 T 44.0,237.0 Q 44.0,313.0  77.0,371.5 T 168.0,462.0 T 298.0,494.0 Q 402.0,494.0  466.0,427.0 T 530.0,234.0 Q 530.0,213.0  529.0,202.0 Z M297.0 404.0Q 244.0,404.0  206.0,371.0 T 164.0,288.0  L410.0 288.0Q 410.0,338.0  381.0,371.0 T 297.0,404.0 Z">
</path>
</defs>
<use x="764.0" y="0" xlink:href="#g101/TT0"/>
<defs>
<path id="g97/TT0" d="M367.0 61.0Q 349.0,29.0  308.5,8.5 T 218.0,-12.0 Q 175.0,-12.0  134.0,3.0 T 65.5,51.5 T 38.0,137.0 Q 38.0,233.0  131.0,266.5 T 368.0,300.0  L368.0 312.0Q 368.0,354.0  337.0,377.0 T 258.0,400.0 Q 221.0,400.0  186.0,384.5 T 127.0,345.0  L65.0 418.0Q 105.0,455.0  158.5,474.5 T 268.0,494.0 Q 385.0,494.0  433.5,436.0 T 482.0,292.0  L482.0 0 L370.0 0 L370.0 61.0 L367.0 61.0Z M341.0 219.0Q 158.0,219.0  158.0,139.0 Q 158.0,107.0  182.5,93.0 T 242.0,79.0 Q 303.0,79.0  335.5,111.5 T 368.0,202.0  L368.0 219.0 L341.0 219.0Z">
</path>
</defs>
<use x="1338.0" y="0" xlink:href="#g97/TT0"/>
<defs>
<path id="g116/TT0" d="M3.0 480.0 L87.0 480.0 L87.0 619.0 L205.0 619.0 L205.0 480.0 L325.0 480.0 L325.0 384.0 L205.0 384.0 L205.0 161.0Q 205.0,125.0  218.0,106.0 T 268.0,87.0 Q 299.0,87.0  319.0,97.0  L323.0 3.0Q 289.0,-10.0  243.0,-10.0 Q 155.0,-10.0  121.0,35.5 T 87.0,160.0  L87.0 384.0 L3.0 384.0 L3.0 480.0Z">
</path>
</defs>
<use x="1888.0" y="0" xlink:href="#g116/TT0"/>
<defs>
<path id="g104/TT0" d="M516.0 300.0 L516.0 0 L396.0 0 L396.0 264.0Q 396.0,391.0  307.0,391.0 Q 253.0,391.0  223.5,352.5 T 194.0,262.0  L194.0 0 L74.0 0 L74.0 756.0 L194.0 756.0 L194.0 413.0 L196.0 413.0Q 212.0,446.0  250.5,470.0 T 339.0,494.0 Q 427.0,494.0  471.5,437.5 T 516.0,300.0 Z">
</path>
</defs>
<use x="2228.0" y="0" xlink:href="#g104/TT0"/>
<defs>
<path id="g115/TT0" d="M230.0 404.0Q 198.0,404.0  175.5,391.0 T 153.0,352.0 Q 153.0,327.0  176.0,315.0 T 257.0,289.0 Q 325.0,273.0  368.5,241.0 T 412.0,146.0 Q 412.0,64.0  355.5,25.0 T 212.0,-14.0 Q 155.0,-14.0  102.0,7.0 T 15.0,65.0  L94.0 139.0Q 114.0,112.0  146.5,95.5 T 217.0,79.0 Q 248.0,79.0  271.0,93.0 T 294.0,136.0 Q 294.0,164.0  269.5,177.5 T 184.0,205.0 Q 119.0,221.0  80.5,250.5 T 42.0,341.0 Q 42.0,416.0  98.0,455.0 T 233.0,494.0 Q 287.0,494.0  336.0,475.0 T 413.0,421.0  L335.0 352.0Q 318.0,374.0  290.0,389.0 T 230.0,404.0 Z">
</path>
</defs>
<use x="2812.0" y="0" xlink:href="#g115/TT0"/>
</g>
<text id="Text_6" x="171.0" y="74.94" font-size="23.3pt" font-family="Avenir Next" font-weight="bold" fill="#f9fafb" text-anchor="middle" opacity="0">
 Deaths</text>
<g fill="#35a5ff" stroke="#35a5ff" transform="translate(119.0 166.32) scale(0.086 -0.086)">
<defs>
<path id="g54/TT0" d="M260.0 446.0 L261.0 445.0Q 275.0,451.0  296.0,454.0 T 336.0,457.0 Q 398.0,457.0  449.5,427.0 T 531.5,345.0 T 562.0,230.0 Q 562.0,157.0  528.0,100.5 T 435.0,13.0 T 304.0,-18.0 Q 231.0,-18.0  172.0,14.0 T 79.0,101.5 T 45.0,225.0 Q 45.0,282.0  62.5,327.5 T 118.0,434.0  L295.0 708.0 L441.0 708.0 L260.0 446.0Z M303.0 84.0Q 364.0,84.0  401.5,122.5 T 439.0,224.0 Q 439.0,284.0  402.0,323.0 T 305.0,362.0 Q 244.0,362.0  205.5,323.0 T 167.0,222.0 Q 167.0,185.0  184.0,153.5 T 232.0,103.0 T 263.0,84.0 Z">
</path>
</defs>
<use x="0" y="0" xlink:href="#g54/TT0"/>
<use x="610.0" y="0" xlink:href="#g54/TT0"/>
</g>
<text id="Text_7" x="171.0" y="166.32" font-size="64.5pt" font-family="Avenir Next" font-weight="bold" fill="#35a5ff" text-anchor="middle" opacity="0">
 66</text>
</g>
</g>
<g transform=" translate(16.0 -16.0)">
</g>
<g transform=" translate(16.0 -16.0)">
</g>
<g transform=" translate(16.0 -16.0)">
</g>
</g>
</svg>
